<svg id="visual" viewBox="0 0 900 600" width="900" height="600" xmlns="http://www.w3.org/2000/svg" xmlns:xlink="http://www.w3.org/1999/xlink" version="1.1"><g transform="translate(461.2864887230269 364.3098572241503)"><path d="M116.5 -185.7C148.4 -137.2 169.8 -99.7 205.2 -52.1C240.6 -4.6 290.1 52.8 277.2 89.4C264.4 125.9 189.2 141.4 132.6 154.3C76 167.1 38 177.3 -2.3 180.4C-42.5 183.5 -85 179.5 -118.2 159.1C-151.3 138.6 -175 101.6 -213.2 53C-251.4 4.4 -304 -55.7 -301.8 -109C-299.5 -162.2 -242.3 -208.5 -182.9 -248C-123.4 -287.6 -61.7 -320.3 -9.7 -306.9C42.3 -293.6 84.6 -234.2 116.5 -185.7" fill="#e2eafc"></path></g></svg>