<svg id="visual" viewBox="0 0 900 600" width="900" height="600" xmlns="http://www.w3.org/2000/svg" xmlns:xlink="http://www.w3.org/1999/xlink" version="1.1"><g transform="translate(469.65343140913313 320.6276384426877)"><path d="M128.2 -202.6C158 -154.7 168.4 -106.4 194.8 -56C221.3 -5.6 263.8 47 258 89.7C252.2 132.4 198.1 165.3 147 180C96 194.6 48 191.1 -12.7 208.6C-73.5 226.1 -146.9 264.8 -194 248.8C-241.1 232.8 -261.8 162.3 -278.8 94.3C-295.8 26.3 -309.1 -39.2 -283.7 -84.3C-258.2 -129.4 -194.1 -154.1 -140.3 -194.2C-86.6 -234.2 -43.3 -289.6 2.9 -293.6C49.2 -297.7 98.4 -250.4 128.2 -202.6" fill="#ffb4a2"></path></g></svg>