<svg viewBox="0 0 400 300" xmlns="http://www.w3.org/2000/svg"><path d="m179.87 115.2s-50.09 20.64-51.77 23.34-9.09 60.27-9.77 90.23 0 50.39 0 50.39h32.33s0-31.11.5-42.47a249.24 249.24 0 0 1 2.78-25s3.79 19.44 3.53 26.51-2.52 41-2.52 41h100.51s-5.06-44.75-4.55-50.81 6.31-31.82 6.31-31.82l12.12-63.89s-41-16.66-45.86-18.43-43.61.95-43.61.95z" fill="#68e1fd"/><path d="m206.52 279.66a.5.5 0 0 1 -.5-.5v-53.33a.5.5 0 0 1 1 0v53.33a.5.5 0 0 1 -.5.5z" fill="#231f20"/><path d="m184.54 104.79 37.12.12-.65 14.17h-26.22l-12.73-6.09z" fill="#231f20"/><path d="m221 119.58h-26.21a.54.54 0 0 1 -.21 0l-12.73-6.09a.5.5 0 0 1 -.27-.6l2.48-8.19a.49.49 0 0 1 .48-.36l37.12.12a.48.48 0 0 1 .36.16.45.45 0 0 1 .14.36l-.65 14.17a.51.51 0 0 1 -.51.43zm-26.1-1h25.62l.61-13.17-36.23-.12-2.25 7.43z" fill="#231f20"/><path d="m231.32 68.78c2-4.38 2.53-10.28 3.28-15 .57-3.53 2.09-9.23.48-12.64-1.05-2.24-4.64-4.5-6.77-5.63-1-8.81-9.33-14.21-17.66-14.66-5-.28-10 1.06-14.77 2.6s-9.7 3.52-12.16 7.79a15.8 15.8 0 0 1 -1.63 2.76 13.41 13.41 0 0 1 -2.87 2.06c-6.57 4.27-5.86 10.13-5 16.86.89 7.14 3.34 14.21 4 21.23 8.25.5 16.57 1.21 24.9 1.08 6.64-.11 24.66 1.34 28.2-6.45z" fill="#fff"/><path d="m209.92 75.77c-1.26 0-2.46 0-3.57 0s-2.32 0-3.2 0c-6.76.11-13.61-.35-20.22-.78l-4.72-.3a.51.51 0 0 1 -.47-.45 89.66 89.66 0 0 0 -2.05-11 102.65 102.65 0 0 1 -2-10.2c-.82-6.62-1.6-12.88 5.25-17.34l.75-.47a8.37 8.37 0 0 0 2-1.5 8.4 8.4 0 0 0 1.12-1.78c.15-.29.3-.58.46-.86 2.5-4.33 7.45-6.41 12.43-8 5.51-1.77 10.15-2.9 15-2.63 8.09.44 16.86 5.68 18.1 14.84 1.54.84 5.58 3.22 6.76 5.73 1.4 3 .57 7.43-.1 11-.13.69-.25 1.34-.34 1.94-.14.87-.27 1.78-.41 2.72-.6 4.1-1.27 8.74-2.92 12.37-2.79 6.03-13.62 6.71-21.87 6.71zm-6-1.06h2.44c7.53.1 21.57.28 24.49-6.17 1.59-3.5 2.25-8.07 2.84-12.11.14-.94.27-1.86.41-2.73.1-.6.22-1.26.35-2 .64-3.42 1.44-7.69.17-10.38-.88-1.88-4-4-6.55-5.4a.46.46 0 0 1 -.26-.38c-1-8.78-9.44-13.8-17.2-14.22-4.64-.26-9.19.84-14.59 2.58-4.79 1.54-9.55 3.52-11.87 7.56-.16.27-.3.54-.44.82a9.07 9.07 0 0 1 -1.26 2 9.15 9.15 0 0 1 -2.24 1.7c-.24.15-.49.29-.72.45-6.33 4.11-5.62 9.8-4.8 16.38a101.52 101.52 0 0 0 2 10.09 94.11 94.11 0 0 1 2 10.72l4.3.28c6.6.44 13.42.89 20.14.78z" fill="#231f20"/><path d="m187.11 70c-1.13-9.06-16-11.79-15.62-1.15a15.63 15.63 0 0 0 3.63 10.1c2.47 2.69 6.56 4.07 9.95 2.69" fill="#fff"/><path d="m182.22 82.67a10.31 10.31 0 0 1 -7.47-3.4c-2.92-3.19-3.66-7.42-3.76-10.42-.18-5.07 3-7.13 6-7.37 4.49-.36 10 3 10.65 8.45a.5.5 0 0 1 -1 .12c-.61-4.86-5.53-7.9-9.58-7.57-3.29.26-5.18 2.63-5 6.34.09 2.82.78 6.81 3.5 9.78 2.51 2.74 6.37 3.8 9.39 2.57a.5.5 0 1 1 .37.92 8 8 0 0 1 -3.1.58z" fill="#231f20"/><path d="m219.5 70c1.13-9.06 16-11.79 15.62-1.15a15.63 15.63 0 0 1 -3.63 10.1c-2.47 2.69-6.56 4.07-10 2.69" fill="#fff"/><path d="m224.39 82.67a8 8 0 0 1 -3-.58.5.5 0 1 1 .37-.92c3 1.22 6.88.17 9.39-2.57 2.72-3 3.41-7 3.5-9.78.13-3.71-1.76-6.08-5.05-6.34-4-.33-9 2.71-9.58 7.57a.5.5 0 0 1 -1-.12c.68-5.43 6.16-8.79 10.65-8.45 3 .24 6.15 2.3 6 7.37-.1 3-.84 7.23-3.77 10.42a10.29 10.29 0 0 1 -7.51 3.4z" fill="#231f20"/><path d="m186 115s6.87 3.51 18.67 3.92 13.75-2.79 13.75-2.79l-.28-6.32-.65-14.67-.62-13.71-26.93-.93-1.28 11.15-.4 3.61z" fill="#fff"/><path d="m206.62 119.47h-2c-11.77-.41-18.59-3.83-18.88-4a.51.51 0 0 1 -.26-.51l3.94-34.5a.47.47 0 0 1 .51-.44l26.93.93a.5.5 0 0 1 .48.48l1.55 34.69a.5.5 0 0 1 -.07.29c-.09.13-2.03 3.06-12.2 3.06zm-20.12-4.75c1.46.66 8 3.37 18.15 3.72 10 .34 12.73-1.94 13.23-2.46l-1.52-34-26-.9z" fill="#231f20"/><path d="m188.22 95.28c1.92 3.35 5.2 6 8.58 8.07 5.69 3.41 14.23 7.31 21.3 6.48l-.65-14.67a65.63 65.63 0 0 1 -15.53-.43c-4.53-.56-9.19-1.17-13.3-3.06z" fill="#231f20"/><path d="m216.09 110.45c-7.27 0-15.23-4.08-19.55-6.68-4.08-2.46-7-5.23-8.75-8.24a.46.46 0 0 1 -.06-.3l.39-3.62a.51.51 0 0 1 .25-.38.53.53 0 0 1 .46 0c4.16 1.92 8.94 2.5 13.15 3a64.65 64.65 0 0 0 15.42.43.51.51 0 0 1 .38.12.49.49 0 0 1 .17.36l.65 14.67a.5.5 0 0 1 -.44.52 17.7 17.7 0 0 1 -2.07.12zm-27.35-15.27a23.37 23.37 0 0 0 8.32 7.74c4.53 2.71 13.13 7.11 20.52 6.46l-.58-13.67a66.22 66.22 0 0 1 -15.12-.49c-4.08-.5-8.68-1.06-12.82-2.82z" fill="#231f20"/><path d="m226.88 45.57-1.13 32.68a21 21 0 0 1 -.56 4.15 20.66 20.66 0 0 1 -20.79 15.76l-2.4-.09a20.62 20.62 0 0 1 -19.92-21.34l1.13-32.67s5.11 6.71 19.73 6.58 23.94-5.07 23.94-5.07z" fill="#fff"/><path d="m205.11 98.68h-.73l-2.38-.11a21.25 21.25 0 0 1 -19.75-15.88 21 21 0 0 1 -.65-6l1.11-32.69a.49.49 0 0 1 .34-.46.51.51 0 0 1 .55.18c.05.06 5.13 6.52 19.32 6.38s23.63-5 23.72-5a.5.5 0 0 1 .5 0 .54.54 0 0 1 .24.44l-1.14 32.68a20.49 20.49 0 0 1 -.57 4.25 21.21 21.21 0 0 1 -20.56 16.21zm-21.45-53.4-1.09 31.47a20 20 0 0 0 .62 5.69 20.23 20.23 0 0 0 18.81 15.13l2.41.09a20.22 20.22 0 0 0 20.29-15.38 20.66 20.66 0 0 0 .55-4l1.1-31.85a59.72 59.72 0 0 1 -23.42 4.76c-11.58.08-17.27-4.04-19.27-5.91z" fill="#231f20"/><path d="m226 71.12c2 20.55-11.63 27.39-21.59 27l-2.41-.05c-22.69-1.68-19.92-21.34-19.69-27.9 1 5.51 3.66 14.35 8.41 15.36 2.42.51 4.71-5.61 7-6.84s8.9-.46 12.44-.22 5 6.22 6.85 7c1.24.53 6.61-4.95 8.99-14.35z" fill="#d1d3d4"/><path d="m205.13 98.68h-.75l-2.38-.11c-21.65-1.57-20.68-19.31-20.27-26.87 0-.58.06-1.09.07-1.55a.5.5 0 0 1 1-.07c1.22 6.66 4 14.1 8 15 1.07.23 2.41-1.68 3.59-3.36a11.22 11.22 0 0 1 3.08-3.43c2.1-1.13 7.2-.72 10.93-.42l1.78.14c2.41.15 3.92 2.62 5.12 4.61.65 1.07 1.33 2.17 1.89 2.4.93.17 6-4.86 8.3-14a.5.5 0 0 1 .52-.38.5.5 0 0 1 .46.45c.86 8.84-1.12 16.12-5.75 21.05a21.57 21.57 0 0 1 -15.59 6.54zm-22.51-24.77c-.32 8.38.52 22.26 19.41 23.66l2.39.09a20.59 20.59 0 0 0 15.58-6.22c3.93-4.19 5.87-10.19 5.66-17.47-2.17 6.48-5.66 10.79-7.66 11.78a1.43 1.43 0 0 1 -1.17.16c-.87-.36-1.56-1.5-2.36-2.81-1.14-1.88-2.44-4-4.34-4.13l-1.79-.14c-3.4-.27-8.54-.69-10.38.3a11.06 11.06 0 0 0 -2.73 3.12c-1.42 2-2.9 4.14-4.62 3.77-4.32-.92-6.78-7.49-7.99-12.11z" fill="#231f20"/><path d="m204.13 63.89s6.79 15 3.78 15.23-7.26-2-7.26-2" fill="#fff"/><path d="m207.39 79.65c-3 0-6.8-2-7-2.05a.5.5 0 1 1 .47-.88s4.16 2.15 7 1.91a.2.2 0 0 0 .17-.12c.89-1.53-2.2-9.65-4.36-14.41a.51.51 0 0 1 .25-.67.5.5 0 0 1 .66.25c1 2.14 5.73 12.91 4.32 15.33a1.2 1.2 0 0 1 -.95.61 5.44 5.44 0 0 1 -.56.03z" fill="#231f20"/><path d="m208.38 88.25a28.25 28.25 0 0 1 -11.08-2.57.5.5 0 0 1 .39-.92c10.18 4.37 15.57 1.64 15.62 1.62a.5.5 0 1 1 .47.88 12.31 12.31 0 0 1 -5.4.99z" fill="#231f20"/><ellipse cx="195.35" cy="61.62" fill="#231f20" rx="1.42" ry="3.2"/><ellipse cx="214.29" cy="61.62" fill="#231f20" rx="1.42" ry="3.2"/><path d="m180.79 112.16 25.23 110.22 5.74-27.4 13.33-82.82-20.46 6.78z" fill="#231f20"/><path d="m206 222.88a.5.5 0 0 1 -.48-.39l-25.22-110.22a.51.51 0 0 1 .14-.47.52.52 0 0 1 .49-.12l23.69 6.74 20.32-6.73a.5.5 0 0 1 .48.09.53.53 0 0 1 .17.46l-13.34 82.82-5.74 27.42a.51.51 0 0 1 -.48.4zm-24.56-110 24.56 107.12 5.27-25.16 13.2-82-19.68 6.52a.51.51 0 0 1 -.3 0z" fill="#231f20"/><path d="m195.77 122.38 4.21 8.58-4.51 43.89 10.95 43.41 8.79-43.39-6.89-44.41 3.44-6.74-7.13-4.78z" fill="#d1d3d4"/><path d="m206.42 218.76a.48.48 0 0 1 -.48-.37l-10.94-43.39a.47.47 0 0 1 0-.17l4.5-43.75-4.14-8.46a.47.47 0 0 1 0-.4.48.48 0 0 1 .28-.28l8.86-3.44a.5.5 0 0 1 .46 0l7.12 4.79a.49.49 0 0 1 .17.64l-3.36 6.59 6.87 44.25a.37.37 0 0 1 0 .18l-8.79 43.39a.49.49 0 0 1 -.48.4zm-10.42-43.95 10.4 41.2 8.34-41.15-6.89-44.33a.52.52 0 0 1 .05-.3l3.24-6.34-6.54-4.39-8.11 3.14 4 8.1a.5.5 0 0 1 0 .27z" fill="#231f20"/><path d="m221.66 104.91c-.51 0-17.19 14-17.19 14l10.31 12 10.31-18.8z" fill="#fff"/><path d="m214.78 131.46a.52.52 0 0 1 -.38-.17l-10.31-12a.49.49 0 0 1 .06-.7c16.81-14.15 17.28-14.15 17.51-14.15a.49.49 0 0 1 .45.29l3.43 7.25a.48.48 0 0 1 0 .45l-10.31 18.8a.52.52 0 0 1 -.39.26zm-9.6-12.46 9.51 11.09 9.84-18-3.08-6.51c-1.99 1.49-10.45 8.49-16.27 13.42z" fill="#231f20"/><path d="m184.54 104.79c.55 0 20.09 14.15 20.09 14.15l-11.92 12-11.92-18.8z" fill="#fff"/><path d="m192.71 131.46h-.05a.49.49 0 0 1 -.37-.23l-11.92-18.8a.5.5 0 0 1 0-.5l3.75-7.37a.52.52 0 0 1 .45-.27c.21 0 .71 0 20.38 14.24a.54.54 0 0 1 .21.37.48.48 0 0 1 -.15.39l-11.92 12a.47.47 0 0 1 -.38.17zm-11.35-19.33 11.44 18 11.06-11.13c-7-5-17-12.2-19.11-13.53z" fill="#231f20"/><path d="m180.79 112.16s21.75 97.51 25.73 107.35c0 0-45.76-77.77-46-79.29s6.57-7.9 6.57-7.9l-5.56-2.49 5-9.05z" fill="#68e1fd"/><path d="m206.52 220a.51.51 0 0 1 -.43-.24c-7.65-13-45.82-77.94-46.08-79.47s3.87-5.64 6.17-7.83l-4.87-2.18a.5.5 0 0 1 -.27-.3.51.51 0 0 1 0-.4l5-9.06a.45.45 0 0 1 .18-.18l14.26-8.62a.53.53 0 0 1 .46 0 .52.52 0 0 1 .29.35c.21 1 21.78 97.58 25.7 107.28a.48.48 0 0 1 -.24.63.42.42 0 0 1 -.17.02zm-44.3-90.41 5.05 2.27a.45.45 0 0 1 .29.37.51.51 0 0 1 -.15.45c-3.17 3-6.5 6.66-6.41 7.45.57 1.73 27.6 47.92 43.67 75.24-5.82-20.26-22.31-93.9-24.22-102.43l-13.55 8.19z" fill="#231f20"/><path d="m225.09 112.16s-14.58 97.51-18.57 107.35c0 0 38.6-77.77 38.86-79.29s-6.57-7.9-6.57-7.9l5.56-2.49-5-9.05z" fill="#68e1fd"/><path d="m206.52 220a.45.45 0 0 1 -.2 0 .49.49 0 0 1 -.26-.64c3.91-9.69 18.39-106.27 18.54-107.24a.48.48 0 0 1 .28-.38.52.52 0 0 1 .47 0l14.26 8.62a.45.45 0 0 1 .18.18l5 9.06a.47.47 0 0 1 0 .4.5.5 0 0 1 -.27.3l-4.87 2.18c2.3 2.19 6.42 6.35 6.17 7.83s-35 71.47-38.9 79.44a.5.5 0 0 1 -.4.25zm19-107c-1.31 8.71-12.11 80.28-17.06 101.58 13.63-27.48 36-72.81 36.47-74.45.08-.76-3.25-4.46-6.42-7.42a.51.51 0 0 1 -.15-.45.46.46 0 0 1 .29-.37l5.06-2.27-4.71-8.48z" fill="#231f20"/><path d="m269.34 132.64s1.77-1.51 4 2 56.21 105.83 32.66 114.84c-7.9 3-75.84 8.17-75.84 8.17l2.84-34.35 33.59-1s-13.89-20.71-14.15-24 16.9-65.66 16.9-65.66z" fill="#68e1fd"/><path d="m231.43 227.28a29.47 29.47 0 0 1 -8-2.48c-3.28-1.76-11.25-12.24-14.18-14s-23-8.23-22.39-4 7.83 5.69 7.83 5.69-8.07.41-9.08 3.54-.31 15 3.63 19.46 23.35 9.85 29.8 11.93c4 1.28 11.11 1.77 11.11 1.77z" fill="#fff"/><g fill="#231f20"><path d="m230.2 249.69c-.29 0-7.23-.5-11.23-1.79l-3.68-1.14c-8.57-2.62-22.91-7-26.35-10.93-4.13-4.72-4.77-16.72-3.73-19.95.73-2.26 4.41-3.22 7-3.61-2.27-.84-5.35-2.5-5.77-5.39a1.45 1.45 0 0 1 .67-1.49c3.24-2.15 19.89 3.4 22.48 5 1.43.88 3.92 3.64 6.56 6.55 2.78 3.09 5.93 6.58 7.59 7.47a29.1 29.1 0 0 0 7.8 2.42.51.51 0 0 1 .42.53l-1.23 21.9a.51.51 0 0 1 -.5.48zm-40.69-43.84a3.63 3.63 0 0 0 -1.88.36.47.47 0 0 0 -.23.52c.56 3.85 7.37 5.25 7.44 5.27a.48.48 0 0 1 .4.52.5.5 0 0 1 -.47.46c-2.15.12-7.9.91-8.64 3.2-1 3.06-.17 14.76 3.53 19 3.25 3.71 18 8.22 25.9 10.64 1.45.44 2.72.83 3.68 1.14a57 57 0 0 0 10.49 1.71l1.18-21a28.73 28.73 0 0 1 -7.67-2.46c-1.82-1-4.89-4.38-7.87-7.68-2.47-2.73-5-5.56-6.33-6.36-2.2-1.3-14.41-5.32-19.53-5.32z"/><path d="m230.43 254.84 2.55-31.54h-5.81l-3.79 29.04z"/><path d="m230.43 255.35a.51.51 0 0 1 -.17 0l-7-2.51a.49.49 0 0 1 -.33-.53l3.79-29a.5.5 0 0 1 .49-.44h5.79a.52.52 0 0 1 .37.16.53.53 0 0 1 .13.38l-2.55 31.55a.55.55 0 0 1 -.23.38.53.53 0 0 1 -.29.01zm-6.5-3.34 6 2.15 2.46-30.36h-4.83z"/><path d="m230.2 258.15a.52.52 0 0 1 -.36-.16.5.5 0 0 1 -.14-.39l2.78-34.34a.5.5 0 1 1 1 .08l-2.73 33.77c5.68-.32 51.91-3.1 71.93-7.74a.5.5 0 0 1 .23 1c-21.33 4.94-72.17 7.77-72.68 7.79z"/><path d="m233 223.8a.5.5 0 0 1 0-1l32.69-1-10.69-16.15a.5.5 0 0 1 .84-.55l11.16 16.9a.5.5 0 0 1 0 .5.49.49 0 0 1 -.43.27l-33.58 1z"/><path d="m251.5 222.88h-.1a.51.51 0 0 1 -.39-.6c.09-.45 9.47-45.87 13.63-67.67a.51.51 0 0 1 .59-.39.5.5 0 0 1 .4.58c-4.16 21.8-13.55 67.2-13.63 67.68a.51.51 0 0 1 -.5.4z"/><path d="m155.19 270.39a.5.5 0 0 1 -.46-.54c0-.25 1.95-25.77 2.29-31.68.27-4.86-.8-10.9-2.42-20q-.52-3-1.11-6.36c-2.18-12.66-18.59-64.48-18.76-65a.5.5 0 0 1 .33-.63.49.49 0 0 1 .62.33c.17.52 16.6 52.4 18.79 65.13.39 2.27.77 4.38 1.11 6.35 1.64 9.22 2.71 15.3 2.43 20.28-.33 5.91-2.26 31.44-2.28 31.7a.5.5 0 0 1 -.54.42z"/><path d="m151.16 237.19a.51.51 0 0 1 -.31-.11c-.5-.39-12.38-9.69-16.08-14.4a.5.5 0 0 1 .79-.61c3.63 4.61 15.79 14.13 15.91 14.22a.5.5 0 0 1 .09.7.51.51 0 0 1 -.4.2z"/><path d="m266.57 222.79a.5.5 0 0 1 0-1l21.13-.76a.5.5 0 0 1 0 1z"/><path d="m168.39 271.68a.5.5 0 0 1 -.49-.38.5.5 0 0 1 .37-.6l25.27-6.17a.5.5 0 0 1 .6.37.48.48 0 0 1 -.36.6l-25.27 6.17z"/><path d="m254.36 271.19h-.12l-25.24-6.19a.51.51 0 0 1 -.37-.61.51.51 0 0 1 .61-.36l25.27 6.16a.5.5 0 0 1 -.12 1z"/><circle cx="201.65" cy="247.58" r="1.29"/><path d="m201.65 249.37a1.8 1.8 0 1 1 1.79-1.79 1.8 1.8 0 0 1 -1.79 1.79zm0-2.59a.8.8 0 1 0 .79.8.8.8 0 0 0 -.79-.8z"/><circle cx="201.65" cy="266.31" r="1.29"/><path d="m201.65 268.1a1.79 1.79 0 1 1 1.79-1.79 1.8 1.8 0 0 1 -1.79 1.79zm0-2.58a.79.79 0 1 0 .79.79.79.79 0 0 0 -.79-.79z"/></g></svg>