<svg viewBox="0 0 1600 1400" xmlns="http://www.w3.org/2000/svg"><path d="m1202.79 469.61c-247.1 201.16-300.44 521-311.92 642.49a36.4 36.4 0 0 1 -49.74 30.4l-401-160.11a22.67 22.67 0 0 1 -14.23-22.3c4.59-83.23 41.13-464.26 328.5-686.32a36.48 36.48 0 0 1 35.83-5.06l406.58 162.29c16.01 6.43 19.36 27.72 5.98 38.61z" fill="#fff"/><path d="m854.69 1147.13a38.5 38.5 0 0 1 -14.3-2.77l-401-160.11a24.65 24.65 0 0 1 -15.53-24.25c2.39-43.42 12.87-158.76 58.31-291.63 25.83-75.37 58.95-144.85 98.59-206.47 48-74.58 106-138.41 172.37-189.72a38.64 38.64 0 0 1 37.8-5.33l406.61 162.33a24.65 24.65 0 0 1 6.51 42c-245.05 199.49-299.26 514.82-311.18 641.11a38.5 38.5 0 0 1 -38.18 34.84zm-77.93-879a34.69 34.69 0 0 0 -21.19 7.21c-288.26 222.77-323.57 609.58-327.71 684.86a20.65 20.65 0 0 0 13 20.34l401 160.11a34.4 34.4 0 0 0 47-28.73c5.33-56.42 21.21-169.36 67.72-291.9 55.61-146.5 138-264.92 244.92-352l1.26 1.55-1.26-1.55a20.65 20.65 0 0 0 -5.47-35.16l-406.58-162.3a34.19 34.19 0 0 0 -12.68-2.42z" fill="#262424"/><path d="m349.43 1002.87s58.92-72.87 126.46-100.49l26.11 49.43s-68.75 45-102.54 98.38l-8.24-44.42z" fill="#88c0c2"/><path d="m612.72 1085.18s-11-94.67-52.87-156.55l-47.85 26.32s33.82 77 34 141.07l30.23-32.4z" fill="#88c0c2"/><path d="m631.17 926c5.38-18.78-3.62-38.18-20.09-43.33a27.59 27.59 0 0 0 -7.12-1.23 31.12 31.12 0 0 0 6.81-3.19c15.45-9.64 21.61-31.17 13.77-48.1s-26.72-22.81-42.17-13.15a34 34 0 0 0 -6 4.83 39.64 39.64 0 0 0 3-7.57c5.38-18.78-3.62-38.18-20.09-43.33s-34.18 5.9-39.56 24.69a40.23 40.23 0 0 0 -1.44 8.07 36.35 36.35 0 0 0 -2.51-7.51c-7.86-16.94-26.77-22.85-42.19-13.18s-21.61 31.17-13.77 48.1a33.44 33.44 0 0 0 4 6.57 28.12 28.12 0 0 0 -6.59-3.06c-16.47-5.15-34.18 5.9-39.56 24.69s3.62 38.18 20.09 43.33a27.59 27.59 0 0 0 7.12 1.23 31.12 31.12 0 0 0 -6.81 3.19c-15.45 9.64-21.61 31.17-13.77 48.1s26.73 22.83 42.18 13.19a34 34 0 0 0 6-4.83 39.64 39.64 0 0 0 -3 7.57c-5.38 18.78 3.62 38.18 20.09 43.33s34.18-5.9 39.56-24.69a40.23 40.23 0 0 0 1.44-8.07 36.35 36.35 0 0 0 2.51 7.51c7.84 16.92 26.73 22.83 42.18 13.19s21.61-31.17 13.77-48.1a33.44 33.44 0 0 0 -4-6.57 28.11 28.11 0 0 0 6.59 3.06c16.47 5.12 34.18-5.94 39.56-24.74z" fill="#de9244"/><path d="m579.63 909.91c-10 34.77-42.74 55.23-73.23 45.7s-47.14-45.45-37.18-80.22 42.74-55.23 73.23-45.7 47.13 45.45 37.18 80.22z" fill="#fff"/><path d="m521.65 960.06a53.18 53.18 0 0 1 -15.89-2.43c-31.54-9.86-48.85-47-38.6-82.83 5.32-18.59 17.43-34.14 33.23-42.65a54.88 54.88 0 0 1 42.69-4.49c31.54 9.86 48.85 47 38.6 82.83-5.32 18.59-17.43 34.14-33.22 42.65a56.41 56.41 0 0 1 -26.81 6.92zm5.54-130.57a52.17 52.17 0 0 0 -24.78 6.4c-14.79 8-26.14 22.58-31.15 40.08-9.62 33.61 6.42 68.43 35.77 77.6a50.67 50.67 0 0 0 39.4-4.18c14.79-8 26.14-22.58 31.15-40.08 9.62-33.61-6.42-68.43-35.77-77.6a48.91 48.91 0 0 0 -14.62-2.22z" fill="#262424"/><path d="m731.4 361q-5.52 5.32-10.94 10.77a16 16 0 0 0 5.45 26.07l329.09 131.41a16 16 0 0 0 18-4.41q4.64-5.36 9.4-10.68a16 16 0 0 0 -6-25.49l-328-130.95a16 16 0 0 0 -17 3.28z" fill="#88c0c2"/><path d="m644.15 497.2 335.28 133.86a16 16 0 0 0 19.42-6.24q3.65-5.75 7.41-11.48a16 16 0 0 0 -7.4-23.66l-334.86-133.68a16 16 0 0 0 -18.93 5.54q-4.18 5.88-8.26 11.86a16 16 0 0 0 7.34 23.8z" fill="#88c0c2"/><path d="m582.68 604.63 337.64 134.79a16 16 0 0 0 20.38-8.12q2.84-6.08 5.79-12.18a16 16 0 0 0 -8.49-21.77l-337.48-134.73a16 16 0 0 0 -20.22 7.68q-3.1 6.24-6.12 12.56a16 16 0 0 0 8.5 21.77z" fill="#88c0c2"/><path d="m681.37 906.9 160.68 64.49a16 16 0 0 0 21.54-11.32q1.48-6.61 3.08-13.36a16 16 0 0 0 -9.6-18.5l-161.13-64.67a16 16 0 0 0 -21.64 11.78l-2.66 13.68a16 16 0 0 0 9.73 17.9z" fill="#88c0c2"/><path d="m532.41 685.53q-2.25 6.57-4.37 13.07a16 16 0 0 0 9.29 19.81l337.74 134.52a16 16 0 0 0 21.07-9.77q2.13-6.35 4.36-12.75a16 16 0 0 0 -9.18-20.1l-337.83-134.57a16 16 0 0 0 -21 9.62z" fill="#88c0c2"/><path d="m415.31 406.46s-2.25 36 26.37 51c25.1 13.1 22.69 31.84 22.69 31.84l25.94-12.32s-3.34-23-25-34.91c-21.89-12.06-19.75-35.57-19.75-35.57h-30.25z" fill="#de9244"/><path d="m920.37 197.28s36 2.25 51-26.37c13.1-25.1 31.84-22.69 31.84-22.69l-12.32-25.94s-23 3.34-34.91 25c-12.1 21.89-35.61 19.72-35.61 19.72v30.25z" fill="#de9244"/><path d="m484.79 191.19a69.09 69.09 0 0 0 -36.67-18.78l-5.2 19.4a51.5 51.5 0 0 1 27.33 14z" fill="#de9244"/><path d="m1269.54 598.56a69.09 69.09 0 0 0 -36.67-18.78l-5.2 19.4a51.5 51.5 0 0 1 27.33 14z" fill="#88c0c2"/><path d="m726.3 119a19.63 19.63 0 0 0 10.15-10.15l2.61-6 2.61 6a19.63 19.63 0 0 0 10.15 10.15l6 2.61-6 2.61a19.63 19.63 0 0 0 -10.15 10.15l-2.61 6-2.61-6a19.63 19.63 0 0 0 -10.15-10.15l-6-2.61z" fill="#88c0c2"/><path d="m295.48 582.77a15 15 0 0 0 7.77-7.77l2-4.58 2 4.58a15 15 0 0 0 7.77 7.77l4.58 2-4.58 2a15 15 0 0 0 -7.77 7.77l-2 4.58-2-4.58a15 15 0 0 0 -7.77-7.77l-4.58-2z" fill="#de9244"/><path d="m357.43 665.93a23.75 23.75 0 0 0 12.29-12.29l3.16-7.25 3.16 7.25a23.75 23.75 0 0 0 12.29 12.29l7.25 3.16-7.25 3.16a23.75 23.75 0 0 0 -12.33 12.28l-3.16 7.25-3.16-7.25a23.75 23.75 0 0 0 -12.29-12.29l-7.25-3.16z" fill="#88c0c2"/><path d="m460 279a23.75 23.75 0 0 0 12.29-12.29l3.16-7.25 3.16 7.25a23.75 23.75 0 0 0 12.32 12.29l7.25 3.16-7.25 3.16a23.75 23.75 0 0 0 -12.29 12.29l-3.16 7.25-3.16-7.25a23.75 23.75 0 0 0 -12.32-12.32l-7.25-3.16z" fill="#88c0c2"/><path d="m1153.86 276.53a33.45 33.45 0 0 0 17.31-17.31l4.45-10.2 4.45 10.2a33.45 33.45 0 0 0 17.31 17.31l10.2 4.45-10.2 4.45a33.45 33.45 0 0 0 -17.31 17.31l-4.45 10.2-4.45-10.2a33.45 33.45 0 0 0 -17.31-17.31l-10.2-4.45z" fill="#88c0c2"/><circle cx="1187.94" cy="717.05" fill="#de9244" r="11.42"/><path d="m908.88 1217.18 62.14 2.19-.33-24.25-62.58-7.97z" fill="#fff"/><path d="m971 1221.37-62.14-2.19a2 2 0 0 1 -1.93-1.95l-.77-30a2 2 0 0 1 2.25-2l62.58 8a2 2 0 0 1 1.75 2l.33 24.25a2 2 0 0 1 -2.07 1.89zm-60.19-6.12 58.16 2-.28-20.42-58.54-7.45z" fill="#262424"/><path d="m1070.42 1296.74 10.54-2.33-28.83-130.29s-5.59.8-14.94 2.44a736.44 736.44 0 0 0 -82.47 19l2.54 43.06s45 27.47 81 52.83c3.73 2.63 7.42 5.46 11 8.5 6.84 5.78 14.31 8.3 21.16 6.79z" fill="#88c0c2"/><path d="m1028.19 1243.53a2 2 0 0 1 -1-.29c-35.06-21.47-61.66-28.67-61.92-28.73a2 2 0 0 1 1-3.87c.27.07 27.43 7.41 63 29.19a2 2 0 0 1 -1.08 3.7z" fill="#262424"/><ellipse cx="1008.44" cy="1195.42" fill="#fff" rx="13.19" ry="11.85" transform="matrix(.9763715 -.21609881 .21609881 .9763715 -234.47 246.13)"/><path d="m1007.85 1209.33c-6.81 0-12.83-4.28-14.24-10.63-1.65-7.46 3.66-15 11.84-16.8a15.91 15.91 0 0 1 11.27 1.58 13 13 0 0 1 4.26 19.26 15.88 15.88 0 0 1 -9.55 6.19 16.57 16.57 0 0 1 -3.58.4zm1.21-23.83a12.7 12.7 0 0 0 -2.75.3c-6 1.33-10 6.73-8.8 12s7 8.53 13.05 7.2a11.89 11.89 0 0 0 7.16-4.61 9 9 0 0 0 -3-13.45 11.55 11.55 0 0 0 -5.67-1.44z" fill="#262424"/><path d="m1070.42 1296.74 10.54-2.33-28.83-130.29s-5.59.8-14.94 2.44l15.22 68.78s-29.67 11.18-14.19 46.07c3.73 2.63 7.42 5.46 11 8.5 6.88 5.82 14.35 8.34 21.2 6.83z" fill="#fff"/><path d="m1066.47 1299.16c-6.12 0-12.55-2.66-18.54-7.74-3.37-2.86-7-5.68-10.86-8.39a2 2 0 0 1 -.67-.82c-5.3-11.94-6.07-22.55-2.31-31.53 4.13-9.86 12.5-14.8 16-16.51l-14.85-67.17a2 2 0 0 1 1.61-2.4c9.27-1.63 14.94-2.44 15-2.45a2 2 0 0 1 2.23 1.55l28.84 130.3a2 2 0 0 1 -1.52 2.39l-10.54 2.33a20.28 20.28 0 0 1 -4.39.44zm-26.59-19.08c3.77 2.67 7.36 5.46 10.69 8.29 6.46 5.48 13.37 7.76 19.47 6.41l8.59-1.9-28-126.52c-2.09.32-5.89.92-11 1.79l14.77 66.74a2 2 0 0 1 -1.25 2.3c-.1 0-10.86 4.25-15.36 15.06-3.28 7.82-2.58 17.17 2.04 27.84z" fill="#262424"/><path d="m661.22 878.88s34.7-25 68.7-.41c7.83 5.67 34 34.87 36 55 .44 4.37-7 42.79-4.62 57 8.61 51.3 26.2 147.19 26.2 147.19l139 40.35-11.23 64.47s-100-.65-178.74-9.36c-18.48-2-30.37-6.32-32-7.26-1.91-1.11-6.48-15.12-12.28-35.66-18-63.65-47.89-190-47.89-190s-14.94-110.73 16.86-121.32z" fill="#88c0c2"/><path d="m731.87 1203.63c6.08 10 7.52 21.11 4.64 29.52-18.23-3.65-30.37-6.32-32-7.26-1.91-1.11-6.48-15.12-12.28-35.66a17.11 17.11 0 0 1 2.51-1.86c11.26-6.84 27.83 0 37.13 15.26z" fill="#fff"/><path d="m897.79 1197.8h-.31l-151.48-23a2 2 0 0 1 -1.71-1.65l-43.1-230.92a2 2 0 0 1 4-.75l42.86 229.52 150 22.75a2 2 0 0 1 -.26 4.05z" fill="#262424"/><path d="m899.51 1232.16a2.08 2.08 0 0 1 -.35 0 2 2 0 0 1 -1.67-2.37l8.42-48.36a2 2 0 1 1 4 .7l-8.42 48.36a2 2 0 0 1 -1.98 1.67z" fill="#262424"/><path d="m1132.43 954.1 45.74-42.12-17.29-17.02-50.11 38.33z" fill="#fff"/><path d="m1132.43 956.1a2 2 0 0 1 -1.39-.56l-21.66-20.82a2 2 0 0 1 .17-3l50.11-38.32a2 2 0 0 1 2.62.16l17.29 17a2 2 0 0 1 0 2.9l-45.74 42.12a2 2 0 0 1 -1.4.52zm-18.59-22.64 18.62 17.9 42.81-39.42-14.55-14.32z" fill="#262424"/><path d="m1303.25 897.14 5.86-9.07-112.11-72.4s-3.42 4.5-8.91 12.23a736.44 736.44 0 0 0 -45.34 71.45l32.07 28.84s51.34-12.11 94.73-19.33c4.5-.75 9.12-1.33 13.8-1.68 9.01-.68 16.09-4.18 19.9-10.04z" fill="#88c0c2"/><path d="m1169.63 912.85a2 2 0 0 1 -1-3.74c.24-.14 24.72-14 65.32-23.51a2 2 0 0 1 .91 3.89c-40 9.36-64 23-64.24 23.09a2 2 0 0 1 -.99.27z" fill="#262424"/><ellipse cx="1187.94" cy="868.65" fill="#fff" rx="13.19" ry="11.85" transform="matrix(.54258815 -.83999887 .83999887 .54258815 -186.3 1395.16)"/><path d="m1186.72 883.45a12.85 12.85 0 0 1 -7-2 13.17 13.17 0 0 1 -5.83-9.16 16.27 16.27 0 0 1 11.57-17.91 13 13 0 0 1 16.54 10.62 15.88 15.88 0 0 1 -2.44 11.12 15.53 15.53 0 0 1 -12.84 7.33zm2.43-25.62a10.13 10.13 0 0 0 -2.66.36 12.27 12.27 0 0 0 -8.67 13.42 9.23 9.23 0 0 0 4.05 6.43c4.56 2.94 11 1.13 14.34-4.06a11.9 11.9 0 0 0 1.85-8.32 9.23 9.23 0 0 0 -4.05-6.43 8.9 8.9 0 0 0 -4.86-1.39z" fill="#262424"/><path d="m1303.25 897.14 5.86-9.07-112.11-72.4s-3.42 4.5-8.91 12.23l59.17 38.22s-13.24 28.8 22.29 42.74c4.5-.75 9.12-1.33 13.8-1.68 9.01-.68 16.09-4.18 19.9-10.04z" fill="#fff"/><path d="m1269.57 910.86a2 2 0 0 1 -.73-.14c-12.16-4.77-20.17-11.77-23.81-20.8-4-9.92-1.51-19.32-.21-23l-57.82-37.34a2 2 0 0 1 -.55-2.84c5.45-7.67 8.92-12.24 9-12.29a2 2 0 0 1 2.68-.47l112.09 72.41a2 2 0 0 1 .59 2.76l-5.86 9.07c-4.08 6.32-11.69 10.21-21.41 10.94-4.4.33-9 .89-13.62 1.66zm-78.62-83.51 57.42 37.09a2 2 0 0 1 .73 2.52c0 .1-4.74 10.65-.34 21.51 3.17 7.83 10.25 14 21 18.33 4.56-.75 9.08-1.29 13.43-1.62 8.45-.64 15-3.88 18.35-9.12l4.77-7.39-108.81-70.31c-1.26 1.69-3.5 4.79-6.55 8.99z" fill="#262424"/><path d="m718.48 887.56s15.94-39.09 53.44-33.09c9.55 1.53 56.72 11.49 72.31 24.39s146 104 146 104l127.22-69 37.33 53.75s-71.6 69.85-133.72 119c-14.58 11.53-26 16.85-27.86 17.32-2.14.56-15.24-6.2-33.81-16.73-57.53-32.63-167.65-101.51-167.65-101.51s-94.24-81.83-73.26-98.13z" fill="#88c0c2"/><path d="m997 1068.88c11.35 2.83 20.19 9.73 24.05 17.73-15.53 10.22-26 16.85-27.86 17.32-2.14.56-15.24-6.2-33.81-16.73a17.11 17.11 0 0 1 .48-3.09c3.14-12.73 19.8-19.54 37.14-15.23z" fill="#fff"/><path d="m985.59 1038.85a2 2 0 0 1 -1.17-.37l-193-134a2 2 0 1 1 2.33-3.36l191.79 133.13 122.73-89.25a2 2 0 0 1 2.41 3.31l-123.89 90.14a2 2 0 0 1 -1.2.4z" fill="#262424"/><path d="m1134.85 971.94a2 2 0 0 1 -1.68-.88l-28-40.32a2 2 0 0 1 3.36-2.34l28 40.32a2 2 0 0 1 -1.68 3.22z" fill="#262424"/><path d="m614.14 223.49 9.84-23.17-2-42.33 57.66 3-23.5 46.33-7.66 28.84z" fill="#fff"/><path d="m648.48 238.16a2 2 0 0 1 -.69-.12l-34.33-12.67a2 2 0 0 1 -1.15-2.66l9.69-22.71-2-41.88a2 2 0 0 1 .59-1.51 2 2 0 0 1 1.51-.58l57.67 3a2 2 0 0 1 1.68 2.9l-23.45 46.07-7.61 28.63a2 2 0 0 1 -1.91 1.53zm-31.67-15.82 30.3 11.18 7.1-26.71a2 2 0 0 1 .15-.39l22.11-43.59-52.39-2.73 1.9 40.13a2 2 0 0 1 -.16.88z" fill="#262424"/><path d="m652.15 175.41c-13.82 2.05-31 4.67-31.5-17.42s37.61-26.33 39.3-7.83.79 23.97-7.8 25.25z" fill="#fff"/><path d="m638.95 178.74c-5.25 0-10.19-1-14-4.17-4.08-3.44-6.15-8.85-6.32-16.53-.3-13.2 11.57-20.79 23.44-21.47 9.23-.57 18.93 3.43 19.87 13.43 1.64 17.84 1.23 25.82-9.5 27.41h-.12a93.07 93.07 0 0 1 -13.37 1.33zm4.75-38.21q-.69 0-1.38 0c-10 .57-19.91 6.72-19.67 17.38.15 6.47 1.75 10.9 4.9 13.56 5.58 4.7 15.46 3.24 24.18 1.94h.12c6.38-.95 7.86-3.93 6.11-23.09-.63-6.85-7.41-9.8-14.26-9.8z" fill="#262424"/><path d="m668.15 140.91c-13.2 2.43-6.94 34.65 4.4 34.07s17.35-38.07-4.4-34.07z" fill="#fff"/><path d="m672.25 177c-7.18 0-12.19-9.76-13.29-19.13-1.2-10.28 2.26-17.71 8.83-18.91 7.27-1.34 11.31 1.61 13.42 4.31 5.09 6.54 4.2 18 .78 25.5-2.34 5.12-5.66 8-9.33 8.23h-.4zm-3.74-34.12c-5.25 1-6.29 8.42-5.58 14.52.9 7.72 4.9 15.81 9.52 15.59 2-.1 4.25-2.31 5.89-5.9 2.91-6.36 3.63-16.34-.3-21.37-2.08-2.67-5.29-3.62-9.54-2.84z" fill="#262424"/><path d="m657.27 178.92s-11.12-3.27-11.56-9.82 32.28-3.49 34 .87-.44 21.6-3.05 25.3-13.31 12.22-24.43 10.25-10.23-20.71 5.04-26.6z" fill="#fff"/><path d="m655.54 207.82a20.91 20.91 0 0 1 -3.64-.31c-5.07-.9-8.56-4.89-9.09-10.43-.57-5.83 2.27-13.36 9.56-17.94-3.67-1.78-8.33-5-8.66-9.9-.12-1.74.78-4.05 5.69-5.17 8-1.82 30.06-.17 32.19 5.16 1.94 4.84-.24 22.89-3.28 27.2s-12.52 11.39-22.77 11.39zm-7.83-38.82c.35 4.17 7.42 7.16 10.13 8a2 2 0 0 1 .15 3.78c-8.44 3.25-11.72 10.53-11.2 15.9.17 1.79 1.09 6 5.81 6.87 10 1.77 20-5.93 22.45-9.44 2.23-3.17 4.23-19.52 2.87-23.31-1.66-1.76-14.55-4.14-24.2-3.34-4.72.41-5.83 1.39-6.01 1.54z" fill="#262424"/><path d="m669.92 427.47-40 115.53c-20.18-31.25-52.23-97.26-70-136.37-7.77-17.09-12.83-29-13-30.71s4.82-18.18 11.77-40.12c15.48-48.8 40.73-124.8 40.73-124.8l60 19.5-34.5 128.28z" fill="#de9244"/><path d="m559.9 406.68c-7.77-17.09-12.83-29-13-30.71s4.82-18.18 11.77-40.12c15.33 13.44 26.05 48.58 1.23 70.83z" fill="#fbfefd"/><path d="m587.92 366.47 29.5-5.5" fill="#fff"/><path d="m587.92 368.47a2 2 0 0 1 -.36-4l29.5-5.5a2 2 0 1 1 .73 3.93l-29.5 5.5a2 2 0 0 1 -.37.07z" fill="#262424"/><path d="m599.42 231.97 39 12" fill="#fff"/><path d="m638.42 246a2 2 0 0 1 -.59-.09l-39-12a2 2 0 0 1 1.18-3.82l39 12a2 2 0 0 1 -.59 3.91z" fill="#262424"/><path d="m669.92 427.47s-114.92 157.1-65.4 557.53c36.89 19.28 74.41 31.05 112.49 36-12.68-48.78-14.57-84.62-16.01-144.2 17.29 47.74 51.49 100 82 139.67 58.47-24.17 110.46-58.47 154-106 0 0-79-113-96-164 0 0 28-106 83-203l-31-83-143 43z" fill="#de9244"/><path d="m790.69 996.85a2 2 0 0 1 -.77-3.95c.77-.31 77.41-31.84 129.14-89.14a2 2 0 1 1 3 2.74c-52.38 58-129.87 89.88-130.64 90.19a2 2 0 0 1 -.73.16z" fill="#262424"/><path d="m707.26 1008.85h-.29c-46.79-6.64-96.47-31.28-97-31.53a2 2 0 1 1 1.83-3.66c.49.25 49.59 24.59 95.71 31.14a2 2 0 0 1 -.25 4.05z" fill="#262424"/><path d="m627 528.07a2 2 0 0 1 -2-2.64c20.56-67.7 43-98.86 43.24-99.17a2 2 0 0 1 3.31 2.42c-.22.3-22.3 31-42.62 97.94a2 2 0 0 1 -1.93 1.45z" fill="#262424"/><path d="m601.32 959.49a2 2 0 0 1 -2-1.83c-5-46.22-8-91.46-8.89-134.45a2 2 0 0 1 2-2.09 2 2 0 0 1 2 2c.91 42.87 3.89 88 8.87 134.1a2 2 0 0 1 -1.82 2.26h-.22z" fill="#262424"/><path d="m698.92 859.52a2 2 0 0 1 -2-2c-3.63-103.4 10.24-165.91 10.38-166.53a2 2 0 0 1 4 .91c-.14.61-13.9 62.66-10.28 165.48a2 2 0 0 1 -2 2.12h-.07z" fill="#262424"/><path d="m724.92 776.52a2 2 0 0 1 -.29-4.07 582.42 582.42 0 0 0 97.11-23.45 2 2 0 0 1 1.36 3.86 587 587 0 0 1 -97.89 23.6z" fill="#262424"/><path d="m1020.92 314.44v-33.86s-8.13-9.48-9.48-14.22 7.79-20 7.79-20-3.86-9.82-3.12-16.59 20.38-10.16 38.33-9.82 19.4 26.07 19.52 35.89-26 27.76-26 27.76l4.06 32.84z" fill="#fff"/><path d="m1052.07 318.47h-.13l-31.15-2a2 2 0 0 1 -1.87-2v-33.16c-1.91-2.28-8.12-9.92-9.4-14.4-1.4-4.89 5.2-16.78 7.5-20.72-1-2.69-3.56-10.62-2.9-16.61 1.07-9.76 26.87-11.86 40.36-11.6s21.18 13.7 21.48 37.87c.12 9.77-20.47 25-25.82 28.74l3.92 31.65a2 2 0 0 1 -1.99 2.23zm-29.15-5.91 26.87 1.75-3.79-30.44a2 2 0 0 1 .85-1.89c9.74-6.71 25.16-19.72 25.08-26.09-.15-12.55-2.64-33.64-17.55-33.92-20.83-.39-35.85 3.92-36.3 8-.68 6.21 3 15.55 3 15.64a2 2 0 0 1 -.15 1.76c-4.18 7-8.27 16-7.58 18.4 1 3.54 6.9 10.92 9.08 13.47a2 2 0 0 1 .48 1.3v32z" fill="#262424"/><path d="m1072.92 474.93c-.77 2.26-14.34 10.68-33.3 21.54-47.17 27-127.74 69.16-127.74 69.16s-25-22.14-31.63-50.15 12.67-55 12.67-55l106-41.67 3.33-114.66 65.34-1.34s3.82 78.39 5.3 129.46c.66 22.84.86 40.22.03 42.66z" fill="#de9244"/><path d="m907.88 563.78a2 2 0 0 1 -1.47-.62c-8.41-8.6-23.14-26.16-28.15-47.16-4.79-20.13 3.39-39.68 8.69-49.54a2 2 0 0 1 3.61 1.94c-5 9.35-12.79 27.85-8.31 46.66 5 20.84 20.61 38.62 27.1 45.3a2 2 0 0 1 -1.47 3.42z" fill="#262424"/><path d="m1072.92 474.93c-.77 2.26-14.34 10.68-33.3 21.54-11.62-23.27-3.36-62.2 33.27-64.21.66 22.85.86 40.23.03 42.67z" fill="#fbfefd"/><path d="m998.92 418.8 30.5 25.11" fill="#fff"/><path d="m1029.42 445.91a2 2 0 0 1 -1.27-.46l-30.5-25.11a2 2 0 0 1 2.54-3.09l30.5 25.11a2 2 0 0 1 -1.27 3.55z" fill="#262424"/><path d="m1062.42 321.72h-52.25a2 2 0 0 1 0-4h52.25a2 2 0 0 1 0 4z" fill="#262424"/><path d="m924.25 446.8c-70 68-213.33 227.34-213.33 227.34-42-92-51.5-262.17-51.5-262.17l15.83 15.59 73.67 72.58 147.48-44.87z" fill="#88c0c2"/><path d="m924.25 446.8c-70 68-213.33 227.34-213.33 227.34-42-92-51.5-262.17-51.5-262.17l15.83 15.59c5.37 43.09 22.09 166.61 42.17 212.91 0 0 116.54-133.13 179-185.2z" fill="#fbfefd"/><path d="m748.92 502.19a2 2 0 0 1 -1.44-.59l-89.48-88.17a2 2 0 1 1 2.87-2.92l88.63 87.32 174.17-53a2 2 0 0 1 1.19 3.92l-175.34 53.35a2.05 2.05 0 0 1 -.6.09z" fill="#262424"/><path d="m780.26 443.91-1.4 23.81-2.39 40.73c-14 9.14-27.39 9.72-39.94-.35l2.5-18.88 3.78-28.59z" fill="#fff"/><path d="m755.82 517.48c-7.18 0-14-2.61-20.54-7.82a2 2 0 0 1 -.73-1.82l6.28-47.46a2 2 0 0 1 1.17-1.56l37.46-16.72a2 2 0 0 1 2.81 1.94l-3.8 64.54a2 2 0 0 1 -.9 1.56c-7.57 4.86-14.79 7.34-21.75 7.34zm-17.16-10.25c11 8.32 22.72 8.35 35.87.09l3.54-60.24-33.43 14.92z" fill="#262424"/><path d="m767.33 449.69c-.54 10.76-.73 47.45-29.75 50.47l5.23-39.53z" fill="#262424"/><path d="m714.12 431.22c-2.63 19.54-2.54 43.68 21.2 45.58 28.22 2.27 50.4-12.77 56.83-38.61s-2-43.29-33.74-47.72a48.91 48.91 0 0 0 -8.14-.47c-19 .55-31.49 13.2-34.52 30.81-.55 3.19-1.14 6.72-1.63 10.41z" fill="#fff"/><path d="m740.77 479q-2.78 0-5.6-.23c-7.78-.62-13.78-3.59-17.83-8.81-9.11-11.74-6.61-31.71-3.55-49.51 3.84-22.35 21.9-35.2 44.91-32a2 2 0 0 1 -.55 4c-21.05-2.94-36.91 8.33-40.41 28.7-2.1 12.25-6 35 2.77 46.38 3.38 4.36 8.29 6.73 15 7.27 10.58.85 20.27-.74 28.8-4.73a2 2 0 0 1 1.7 3.62 59.49 59.49 0 0 1 -25.24 5.31z" fill="#262424"/><path d="m799.09 445a81.78 81.78 0 0 1 -11.34 8.54l-13.93-2.42-.61-10.41s-8.62-2.47-9-8.77a3.5 3.5 0 0 1 0-.44c0-2 .26-11 4.75-24.08 0 0-23.14 4.25-34.82 2.73-4.2-.54-8.61-3.26-12.54-6.53-7.87-6.54-12.2-22.93-8.3-32.39l.08-.18c5.89-13.82 11-2 11-2s4.91-11.08 12.37-10.19 9.53 12.72 9.53 12.72a117.61 117.61 0 0 1 43 8.37c27.06 11 15.46 28.66 15.46 28.66s19.01 11.51-5.65 36.39z" fill="#262424"/><path d="m777.16 450.34c1.4-11.1 11.4-19.33 22.51-18a18.63 18.63 0 0 1 6.73 2.12c12.54 6.81 1.58 37.17-30.64 27z" fill="#fff"/><g fill="#262424"><path d="m788.08 465.49a42.88 42.88 0 0 1 -12.93-2.15 2 2 0 1 1 1.21-3.81c18 5.7 28.41-1.74 31.85-9.84 2.39-5.63 1.23-11.29-2.77-13.47a16.68 16.68 0 0 0 -6-1.89 18.49 18.49 0 0 0 -20.29 16.26 2 2 0 0 1 -4-.5c1.56-12.33 12.65-21.18 24.73-19.73a20.68 20.68 0 0 1 7.45 2.35c5.85 3.18 7.76 11 4.54 18.55-3.33 7.87-11.62 14.23-23.79 14.23z"/><path d="m883.64 343.55a2.34 2.34 0 0 1 -2-1.06 158.54 158.54 0 0 0 -25.31-30.14 2.34 2.34 0 0 1 3.06-3.54c.54.47 13.44 11.7 26.17 31.12a2.34 2.34 0 0 1 -1.92 3.62z"/><path d="m888 359.49a2 2 0 0 1 -2-1.49l-2.79-10.34a2 2 0 0 1 3.89-1.05l2.82 10.39a2 2 0 0 1 -1.92 2.49z"/><path d="m879.88 359.3a2 2 0 0 1 -2-2.4l2.21-11.21a2 2 0 1 1 4 .78l-2.21 11.21a2 2 0 0 1 -2 1.62z"/><path d="m894.86 355.25a2 2 0 0 1 -1.51-.68l-7.56-8.57a2 2 0 0 1 3-2.66l7.55 8.57a2 2 0 0 1 -1.48 3.34z"/><circle cx="883.81" cy="343.31" r="4.48" transform="matrix(.96538164 -.26084151 .26084151 .96538164 -58.96 242.45)"/><path d="m857.89 310.58-10.24 34.52s-30.09-17.13-66.53 2.11c-20-36-54.61-38.06-54.61-38.06l10.25-34.52 59 23.31z"/><path d="m787.28 313.67-84.75-58a2.8 2.8 0 0 1 1.52-5.12l102.68-2.39a11.84 11.84 0 0 1 7 2.07l84.75 58a2.8 2.8 0 0 1 -1.52 5.12l-102.68 2.39a11.84 11.84 0 0 1 -7-2.07z"/></g><path d="m794 317.74a13.75 13.75 0 0 1 -7.81-2.42l-46-31.53a2 2 0 1 1 2.26-3.3l46 31.53a9.73 9.73 0 0 0 5.79 1.72l56.7-1.32a2 2 0 0 1 .09 4l-56.7 1.32z" fill="#fff"/></svg>