<svg enable-background="new 0 0 512 512" viewBox="0 0 512 512" xmlns="http://www.w3.org/2000/svg"><path d="m343.144 68.223-64.883-9.428-29.017-58.795-29.016 58.795-64.883 9.428 46.948 45.766-11.082 64.622 58.032-30.51 58.034 30.511-11.083-64.622zm-43.743 99.548-50.158-26.37-50.156 26.37 9.578-55.852-40.578-39.555 56.078-8.149 25.079-50.815 25.079 50.816 56.077 8.149-40.578 39.555z" fill="#4a555f"/><path d="m479.64 125.852-42.976-6.245-19.219-38.942-19.219 38.942-42.976 6.245 31.097 30.312-7.341 42.802 38.438-20.208 38.438 20.208-7.341-42.802zm-62.194 46.206-30.562 16.068 5.837-34.032-24.725-24.101 34.169-4.965 15.281-30.963 15.281 30.963 34.169 4.965-24.725 24.101 5.837 34.032z" fill="#4a555f"/><path d="m452.029 134.823-23.897-3.473-10.686-21.653-10.687 21.653-23.896 3.472 17.292 16.856-4.082 23.8 21.373-11.237 21.374 11.237-4.083-23.8z" fill="#71cce0"/><path d="m122.094 98.984-31.003-4.505-13.864-28.094-13.865 28.093-31.002 4.505 22.435 21.868-5.296 30.878 27.729-14.579 27.73 14.579-5.296-30.878zm-44.867 31.467-19.853 10.438 3.792-22.107-16.062-15.657 22.196-3.226 9.927-20.114 9.927 20.114 22.196 3.225-16.062 15.656 3.792 22.108z" fill="#4a555f"/><path d="m94.483 107.955-11.923-1.732-5.333-10.806-5.332 10.805-11.924 1.733 8.628 8.41-2.036 11.876 10.664-5.607 10.665 5.607-2.037-11.875z" fill="#71cce0"/><path d="m315.533 77.195-45.805-6.656-20.484-41.506-20.484 41.506-45.806 6.656 33.145 32.308-7.823 45.62 40.968-21.538 40.969 21.538-7.825-45.62z" fill="#71cce0"/><path d="m336.982 231.054c-27.301 0-49.513 22.211-49.513 49.512s22.212 49.512 49.513 49.512 49.512-22.211 49.512-49.512-22.211-49.512-49.512-49.512zm0 93.095c-24.032 0-43.583-19.551-43.583-43.582 0-24.032 19.551-43.582 43.583-43.582 24.031 0 43.582 19.551 43.582 43.582-.001 24.031-19.551 43.582-43.582 43.582z" fill="#4a555f"/><path d="m336.982 243.903c-20.217 0-36.664 16.447-36.664 36.664s16.448 36.664 36.664 36.664c20.217 0 36.663-16.447 36.663-36.664s-16.447-36.664-36.663-36.664z" fill="#ffd452"/><path d="m423.917 474.144c-3.995-10.901-8.127-22.174-13.141-35.315l-6.804-17.864c-5.4-14.19-10.8-28.38-16.276-42.54-6.007-15.533-12.817-33.138-32.456-41.938l-77.179-34.58c-1.155-.517-2.323-.975-3.326-1.338l-36.69-16.084c-17.536-7.688-28.867-25.027-28.867-44.174v-17.127c0-16.546-13.46-30.007-30.007-30.007-16.546 0-30.006 13.461-30.006 30.007v68.825c0 12.361 4.282 24.461 12.059 34.071l31.186 38.538-63.416 144.982 5.434 2.376 64.859-148.286-33.454-41.341c-6.925-8.558-10.739-19.333-10.739-30.341v-68.825c0-13.276 10.8-24.076 24.076-24.076s24.077 10.801 24.077 24.076v17.127c0 21.501 12.725 40.972 32.417 49.605l36.855 16.15c1.044.385 2.087.791 3.118 1.253l77.178 34.58c16.165 7.243 22.36 20.594 29.35 38.665 5.472 14.151 10.868 28.33 16.264 42.51l6.806 17.869c5 13.104 9.125 24.358 13.114 35.241 4 10.913 8.135 22.198 13.156 35.355l5.54-2.115c-5.004-13.118-9.134-24.384-13.128-35.279z" fill="#4a555f"/><path d="m352.805 456.735-23.675 52.84 5.411 2.425 18.48-41.244 19.917 41.021 5.333-2.59z" fill="#4a555f"/><path d="m398.771 443.41-6.746-17.711c-5.413-14.223-10.824-28.446-16.313-42.639-6.59-17.04-11.941-28.671-25.726-34.848l-77.173-34.578c-.888-.397-1.786-.746-2.683-1.076l-.28-.103-36.964-16.203c-22.209-9.736-36.558-31.694-36.558-55.941v-17.127c0-9.461-7.698-17.158-17.158-17.158s-17.158 7.697-17.158 17.158v68.825c0 9.429 3.267 18.658 9.198 25.988l36.1 44.611-64.837 147.874h178.612l31.498-70.174 33.02 68.478h38.115z" fill="#dfdfdf"/><g fill="#4a555f"><path d="m168.886 178.914c-.355.05-35.55 5.398-35.55 41.798h5.93c0-31.182 29.204-35.747 30.448-35.926z"/><path d="m140.251 174.644 3.676 4.654c.162-.128 16.524-12.815 38.906-11.904l.241-5.925c-24.616-1-42.089 12.596-42.823 13.175z"/></g></svg>