<svg enable-background="new 0 0 128 128" height="128" viewBox="0 0 128 128" width="128" xmlns="http://www.w3.org/2000/svg"><g fill="#282d33"><path d="m38.763 69.334-3.974-.447c1.983-17.626 10.157-33.456 22.425-43.432l6.786-5.52 6.788 5.521c12.152 9.883 20.308 25.554 22.374 42.994l-3.973.471c-1.944-16.417-9.572-31.129-20.925-40.361l-4.264-3.47-4.263 3.468c-11.462 9.321-19.106 24.183-20.974 40.776z"/><path d="m58.368 122.712h-.001c-14.383-.001-29.145-6.577-40.499-18.044-12.714-12.839-19.295-29.952-17.607-45.779l.171-1.601 1.602-.175c1.593-.173 3.231-.261 4.869-.261 14.381 0 29.143 6.577 40.501 18.046 12.713 12.834 19.293 29.947 17.604 45.776l-.171 1.602-1.601.174c-1.593.173-3.231.262-4.868.262zm-54.271-61.766c-.957 14.184 5.176 29.358 16.613 40.908 10.608 10.714 24.334 16.858 37.657 16.859h.001c.938 0 1.877-.032 2.805-.095.957-14.187-5.175-29.36-16.61-40.906-10.612-10.715-24.339-16.86-37.66-16.86-.939 0-1.878.032-2.806.094z"/><path d="m69.635 122.711c-.001 0-.001 0-.002 0-1.638 0-3.275-.088-4.867-.261l-1.601-.174-.171-1.602c-1.688-15.823 4.893-32.936 17.604-45.776 11.359-11.469 26.12-18.046 40.501-18.046 1.637 0 3.274.088 4.868.261l1.601.175.171 1.601c1.69 15.827-4.892 32.94-17.605 45.777-11.353 11.469-26.114 18.045-40.499 18.045zm-2.806-4.093c.927.063 1.865.094 2.804.094 13.325.001 27.052-6.145 37.658-16.86 11.438-11.548 17.569-26.721 16.612-40.905-.928-.063-1.866-.095-2.805-.095-13.32 0-27.046 6.146-37.659 16.86-11.433 11.552-17.566 26.725-16.61 40.906z"/><path d="m63.575 122.504c-15.1-4.617-28.136-17.425-34.872-34.26-6.734-16.83-6.169-35.178 1.51-49.08l.784-1.42 1.551.475c15.099 4.616 28.134 17.423 34.869 34.258 2.576 6.435 4.105 13.099 4.546 19.805l-3.992.262c-.412-6.285-1.848-12.537-4.267-18.58-6.053-15.131-17.472-26.751-30.758-31.405-6.364 12.678-6.587 29.061-.529 44.2 6.29 15.721 18.375 27.655 32.327 31.923z"/><path d="m64.428 122.504-1.17-3.823c13.951-4.268 26.037-16.202 32.328-31.923 6.056-15.137 5.832-31.52-.53-44.2-13.285 4.654-24.705 16.274-30.758 31.405-2.475 6.188-3.92 12.58-4.293 19.001l-3.993-.232c.398-6.852 1.937-13.666 4.572-20.255 6.736-16.836 19.771-29.643 34.87-34.258l1.552-.475.784 1.42c7.678 13.905 8.242 32.253 1.509 49.08-6.736 16.834-19.773 29.643-34.871 34.26z"/><path d="m14.196 59.59h-4c0-.684.013-1.363.038-2.04l3.997.146c-.023.628-.035 1.259-.035 1.894z"/><path d="m113.666 55.82c-.082-1.132-.204-2.272-.362-3.39l3.961-.559c.17 1.205.302 2.436.392 3.656zm-99.162-1.861-3.975-.438c.149-1.354.352-2.72.602-4.058l3.931.734c-.231 1.241-.419 2.506-.558 3.762zm98.127-5.271c-.271-1.238-.591-2.477-.951-3.681l3.832-1.146c.389 1.3.734 2.637 1.027 3.972zm-96.73-2.198-3.865-1.029c.35-1.315.755-2.635 1.205-3.923l3.776 1.317c-.416 1.194-.791 2.416-1.116 3.635zm94.552-5.08c-.451-1.177-.954-2.352-1.494-3.492l3.615-1.711c.583 1.231 1.126 2.5 1.613 3.77zm-92.047-2.096-3.666-1.601c.545-1.249 1.146-2.494 1.784-3.698l3.535 1.871c-.591 1.118-1.147 2.27-1.653 3.428zm88.798-4.765c-.623-1.095-1.297-2.182-2.004-3.23l3.318-2.234c.762 1.131 1.489 2.304 2.162 3.485zm-85.239-1.952-3.384-2.134c.727-1.151 1.507-2.291 2.32-3.388l3.212 2.383c-.753 1.017-1.476 2.072-2.148 3.139zm80.995-4.349c-.783-.991-1.613-1.965-2.467-2.893l2.943-2.708c.922 1.001 1.817 2.052 2.662 3.122zm-76.468-1.757-3.024-2.617c.89-1.028 1.833-2.037 2.802-3l2.818 2.838c-.898.892-1.771 1.827-2.596 2.779zm71.323-3.835c-.919-.859-1.886-1.697-2.873-2.489l2.502-3.12c1.066.855 2.109 1.76 3.103 2.688zm-65.93-1.519-2.596-3.043c1.04-.887 2.124-1.742 3.222-2.544l2.357 3.231c-1.016.742-2.02 1.534-2.983 2.356zm60.005-3.234c-1.041-.712-2.124-1.394-3.218-2.025l2-3.464c1.182.683 2.352 1.418 3.476 2.188zm-53.87-1.243-2.105-3.401c1.158-.717 2.359-1.397 3.571-2.024l1.839 3.552c-1.122.579-2.233 1.21-3.305 1.873zm47.289-2.555c-1.137-.545-2.311-1.053-3.487-1.508l1.443-3.73c1.274.493 2.543 1.042 3.772 1.632zm-40.548-.932-1.56-3.684c1.253-.53 2.544-1.02 3.837-1.453l1.272 3.792c-1.196.401-2.391.854-3.549 1.345zm33.466-1.81c-1.205-.362-2.442-.683-3.676-.951l.852-3.908c1.334.291 2.672.637 3.977 1.029zm-26.273-.6-.973-3.88c1.32-.331 2.671-.615 4.019-.845l.672 3.943c-1.247.213-2.497.476-3.718.782zm18.856-1.015c-1.244-.172-2.516-.298-3.779-.374l.242-3.993c1.364.082 2.739.219 4.086.405zm-11.373-.258-.366-3.983c1.355-.125 2.734-.198 4.1-.219l.061 4c-1.265.019-2.541.087-3.795.202z"/><path d="m117.803 59.59h-4c0-.635-.012-1.267-.034-1.896l3.998-.144c.024.678.036 1.357.036 2.04z"/></g></svg>