<svg viewBox="0 0 400 300" xmlns="http://www.w3.org/2000/svg"><g fill="#dfeaef"><path d="m277.93 146.26a1 1 0 0 1 -1-1v-4a1 1 0 1 1 2 0v4a1 1 0 0 1 -1 1z"/><path d="m277.93 155.36a1 1 0 0 1 -1-1v-4a1 1 0 0 1 2 0v4a1 1 0 0 1 -1 1z"/><path d="m284.5 148.79h-4a1 1 0 0 1 0-2h4a1 1 0 0 1 0 2z"/><path d="m275.4 148.79h-4a1 1 0 0 1 0-2h4a1 1 0 0 1 0 2z"/><path d="m227.79 67.43a1 1 0 0 1 -1-1v-4a1 1 0 0 1 2 0v4a1 1 0 0 1 -1 1z"/><path d="m227.79 76.54a1 1 0 0 1 -1-1v-4.05a1 1 0 1 1 2 0v4.05a1 1 0 0 1 -1 1z"/><path d="m234.36 70h-4a1 1 0 0 1 0-2h4a1 1 0 0 1 0 2z"/><path d="m225.26 70h-4a1 1 0 0 1 0-2h4a1 1 0 0 1 0 2z"/><path d="m284.69 117.53a1 1 0 0 1 -1-1v-7.44a1 1 0 1 1 2 0v7.44a1 1 0 0 1 -1 1z"/><path d="m288.4 113.81h-7.4a1 1 0 0 1 0-2h7.43a1 1 0 0 1 0 2z"/></g><rect fill="#093f68" height="154.51" rx="8.83" transform="matrix(-.84656498 .53228539 -.53228539 -.84656498 427.73 189.3)" width="87.88" x="142.64" y="79.05"/><path d="m193.3 242.75a9.83 9.83 0 0 1 -8.34-4.59l-72.85-115.85a9.81 9.81 0 0 1 3.08-13.55l59.45-37.39a9.84 9.84 0 0 1 13.55 3.09l72.86 115.85a9.83 9.83 0 0 1 -3.05 13.55l-59.45 37.39a9.75 9.75 0 0 1 -5.25 1.5zm-13.44-170.88a7.7 7.7 0 0 0 -4.15 1.2l-59.45 37.38a7.82 7.82 0 0 0 -2.46 10.79l72.85 115.85a7.84 7.84 0 0 0 10.8 2.46l59.45-37.38a7.82 7.82 0 0 0 2.45-10.79l-72.85-115.86a7.81 7.81 0 0 0 -6.64-3.65z" fill="#093f68"/><rect fill="#68e1fd" height="154.51" rx="8.83" transform="matrix(-.85 .53 -.53 -.85 441.73 173.62)" width="87.88" x="151.9" y="73.23"/><path d="m202.56 236.93a9.84 9.84 0 0 1 -8.34-4.6l-72.85-115.85a9.81 9.81 0 0 1 3.09-13.55l59.44-37.38a9.84 9.84 0 0 1 13.56 3.09l72.85 115.85a9.83 9.83 0 0 1 -3.09 13.51l-59.45 37.38-.53-.84.53.84a9.77 9.77 0 0 1 -5.21 1.55zm-13.44-170.93a7.79 7.79 0 0 0 -4.15 1.2l-59.45 37.39a7.81 7.81 0 0 0 -2.46 10.79l72.86 115.85a7.83 7.83 0 0 0 10.79 2.46l59.45-37.39a7.83 7.83 0 0 0 2.46-10.79l-72.86-115.81a7.75 7.75 0 0 0 -4.88-3.46 7.54 7.54 0 0 0 -1.76-.24z" fill="#093f68"/><rect fill="#fff" height="117.74" rx="4.62" transform="matrix(-.84656498 .53228539 -.53228539 -.84656498 439.79 171.89)" width="77.53" x="156.35" y="90.47"/><path d="m195.1 219.06a5.61 5.61 0 0 1 -4.76-2.62l-57.77-91.86a5.61 5.61 0 0 1 1.77-7.74l57.82-36.36a5.62 5.62 0 0 1 7.74 1.76l57.77 91.86a5.63 5.63 0 0 1 -1.77 7.74l-57.82 36.37a5.58 5.58 0 0 1 -2.98.85zm.04-137.45a3.6 3.6 0 0 0 -1.92.56l-57.82 36.36a3.61 3.61 0 0 0 -1.13 5l57.73 91.85a3.63 3.63 0 0 0 5 1.13l57.82-36.36a3.61 3.61 0 0 0 1.13-5l-57.74-91.84a3.59 3.59 0 0 0 -2.26-1.6 3.21 3.21 0 0 0 -.81-.1z" fill="#093f68"/><circle cx="171.6" cy="85.57" fill="#093f68" r="1.42"/><path d="m165.85 89.18-19.22 12.09" fill="#fff"/><path d="m146.63 102.27a1 1 0 0 1 -.53-1.85l19.22-12.09a1 1 0 1 1 1.06 1.7l-19.22 12.09a1 1 0 0 1 -.53.15z" fill="#093f68"/><circle cx="231.43" cy="207.07" fill="#093f68" r="5.98"/><path d="m146.52 162.4-4.67 2.94" fill="#68e1fd"/><path d="m141.85 166.34a1 1 0 0 1 -.53-1.84l4.67-2.94a1 1 0 1 1 1.06 1.69l-4.67 2.94a1 1 0 0 1 -.53.15z" fill="#093f68"/><path d="m249.55 177a1 1 0 0 1 -.84-.46l-15.32-24.24a1 1 0 0 1 1.69-1.07l15.32 24.22a1 1 0 0 1 -.31 1.38 1.08 1.08 0 0 1 -.54.17z" fill="#dfeaef"/><path d="m153.67 140.91a1 1 0 0 1 -.84-.46l-3.07-4.77a1 1 0 0 1 -.14-.76 1 1 0 0 1 .44-.63l51.3-32.41a1 1 0 0 1 1.37.3l12.76 19.16a1 1 0 1 1 -1.66 1.11l-12.22-18.35-49.61 31.34 2.52 3.93a1 1 0 0 1 -.3 1.38 1 1 0 0 1 -.55.16z" fill="#dfeaef"/><path d="m178.46 165.91a1 1 0 0 1 -.73-.32 1 1 0 0 1 .05-1.41l39.53-37a1 1 0 0 1 1.37 1.46l-39.54 37a1 1 0 0 1 -.68.27z" fill="#093f68"/><path d="m211.59 183.62a1 1 0 0 1 -.49-.13 1 1 0 0 1 -.39-1.36l23.29-41.4a1 1 0 1 1 1.74 1l-23.3 41.4a1 1 0 0 1 -.85.49z" fill="#093f68"/><path d="m195.55 149.91a1 1 0 0 1 -.84-.45 13.72 13.72 0 0 0 -9.39-6.46c-5.3-.9-11.95 1.25-17.79 5.75a1 1 0 0 1 -1 .14 1 1 0 0 1 -.62-.77 9.77 9.77 0 0 0 -7.2-7.58 12.83 12.83 0 0 0 -10.71 2.34 1 1 0 0 1 -1.4-.22 1 1 0 0 1 .21-1.39 14.9 14.9 0 0 1 12.41-2.67 12.06 12.06 0 0 1 8.31 7.66c6-4.27 12.57-6.18 18.11-5.24a15.69 15.69 0 0 1 10.74 7.35 1 1 0 0 1 -.84 1.54z" fill="#093f68"/><path d="m183 169.62a1 1 0 0 1 -.65-.24c-9.19-7.74-22.83-3.34-23-3.3a1 1 0 0 1 -1.26-.63 1 1 0 0 1 .63-1.27c.6-.19 14.83-4.79 24.89 3.67a1 1 0 0 1 -.64 1.77z" fill="#093f68"/><path d="m242.46 187.8a1 1 0 0 1 -1-.93 4.43 4.43 0 0 0 -1.6-3.25c-1.66-1.37-4.63-1.92-8.16-1.51a1 1 0 0 1 -1.07-1.28 11.14 11.14 0 0 0 -9.69-14.32 1 1 0 1 1 .18-2 13.12 13.12 0 0 1 11.76 15.49c2.48-.13 5.91.13 8.25 2.07a6.42 6.42 0 0 1 2.33 4.65 1 1 0 0 1 -.93 1.07z" fill="#093f68"/><path d="m232.51 188.8a1 1 0 0 1 -1-.87 10.41 10.41 0 0 0 -8-8.64 1 1 0 0 1 -.77-1.19 1 1 0 0 1 1.19-.77 12.46 12.46 0 0 1 9.53 10.34 1 1 0 0 1 -.86 1.12z" fill="#093f68"/><path d="m228.63 101.13a24.93 24.93 0 0 0 -19.92 3.9c-8.41 5.73-13.57 14.25-17.43 22.92a1.56 1.56 0 0 0 2.44 1.81 19.84 19.84 0 0 1 10.64-5.18c7.82-.94 11.09 2.34 11.09 2.34z" fill="#f56132"/><path d="m192.71 131.16a2.54 2.54 0 0 1 -1.51-.51 2.5 2.5 0 0 1 -.83-3.11c3.08-6.92 8.28-16.87 17.78-23.34a25.75 25.75 0 0 1 20.77-4 1 1 0 0 1 .6 1.41l-13.18 25.79a1 1 0 0 1 -.74.54 1 1 0 0 1 -.86-.29s-3.1-2.91-10.26-2a18.58 18.58 0 0 0 -10.09 4.93 2.54 2.54 0 0 1 -1.68.58zm30.56-29.65a24.7 24.7 0 0 0 -14 4.35c-9.07 6.17-14.09 15.8-17.08 22.49a.55.55 0 0 0 .19.69.51.51 0 0 0 .68 0 20.51 20.51 0 0 1 11.18-5.42c5.78-.7 9.25.81 10.85 1.82l12.06-23.58a22.34 22.34 0 0 0 -3.88-.35z" fill="#093f68"/><path d="m257.21 122a24.93 24.93 0 0 1 2.34 20.16c-2.9 9.76-9.46 17.26-16.54 23.57a1.55 1.55 0 0 1 -2.46-1.78 19.74 19.74 0 0 0 1.69-11.7c-1.48-7.74-5.59-9.86-5.59-9.86z" fill="#f56132"/><path d="m242 167.16a2.59 2.59 0 0 1 -1.52-.51 2.5 2.5 0 0 1 -.83-3.08 18.6 18.6 0 0 0 1.63-11.11c-1.35-7.09-5-9.14-5.07-9.16a1 1 0 0 1 -.24-1.6l20.56-20.39a1 1 0 0 1 .8-.29 1 1 0 0 1 .73.43 25.79 25.79 0 0 1 2.47 21c-3.27 11-11.17 19-16.83 24a2.53 2.53 0 0 1 -1.7.71zm-3.78-24.87c1.44 1.22 3.93 4.07 5 9.79a20.61 20.61 0 0 1 -1.77 12.3.5.5 0 0 0 .18.65.54.54 0 0 0 .71 0c5.47-4.88 13.11-12.59 16.24-23.1a24.6 24.6 0 0 0 -1.58-18.29z" fill="#093f68"/><path d="m268.81 111.66c-11.61 15.89-22.81 25.81-33.52 31.94l-20.56-15c2.6-12 8.64-25.75 20.25-41.63a74.51 74.51 0 0 1 14.81-15.26c16.29-12.5 32.1-13.44 32.1-13.44s3.92 15.35-3.05 34.67a74.8 74.8 0 0 1 -10.03 18.72z" fill="#ffbc0e"/><path d="m235.29 144.6a1 1 0 0 1 -.59-.2l-20.56-15a1 1 0 0 1 -.39-1c2.91-13.45 9.59-27.19 20.42-42a75.74 75.74 0 0 1 15-15.46c16.35-12.55 32-13.61 32.65-13.64a1 1 0 0 1 1 .75c.16.63 3.91 15.86-3.08 35.25a75.4 75.4 0 0 1 -10.17 19c-10.82 14.82-21.89 25.36-33.82 32.21a1 1 0 0 1 -.46.09zm-19.44-16.45 19.5 14.25c11.47-6.72 22.16-17 32.65-31.33a73.87 73.87 0 0 0 9.9-18.5 65.1 65.1 0 0 0 3.2-33.24 65.24 65.24 0 0 0 -30.7 13.14 73.89 73.89 0 0 0 -14.62 15.06c-10.49 14.35-17.01 27.65-19.93 40.62z" fill="#093f68"/><path d="m231.22 153.11-24.32-17.77 7.85-6.75 20.52 14.99z" fill="#093f68"/><path d="m231.23 154.11a1 1 0 0 1 -.59-.19l-24.33-17.77a1.08 1.08 0 0 1 -.41-.77 1 1 0 0 1 .35-.8l7.85-6.75a1 1 0 0 1 1.25 0l20.51 15a1 1 0 0 1 .33 1.2l-4 9.53a1 1 0 0 1 -.66.57.82.82 0 0 1 -.3-.02zm-22.72-18.84 22.29 16.29 3.24-7.64-19.23-14.06z" fill="#093f68"/><circle cx="252.95" cy="97.85" fill="#68e1fd" r="10.89"/><path d="m252.93 109.74a11.89 11.89 0 1 1 9.62-4.87 11.86 11.86 0 0 1 -9.62 4.87zm.07-21.74a9.88 9.88 0 1 0 5.82 1.9 9.89 9.89 0 0 0 -5.82-1.9z" fill="#093f68"/><path d="m278.84 92.91-29-21.23c16.29-12.5 32.1-13.44 32.1-13.44s3.87 15.35-3.1 34.67z" fill="#f56132"/><path d="m278.84 93.91a1.06 1.06 0 0 1 -.59-.19l-29.05-21.23a1 1 0 0 1 0-1.6c16.35-12.55 32-13.61 32.65-13.64a1 1 0 0 1 1 .75c.16.63 3.91 15.86-3.08 35.25a1 1 0 0 1 -.64.62 1 1 0 0 1 -.29.04zm-27.37-22.24 26.87 19.64a65.09 65.09 0 0 0 2.76-32 65 65 0 0 0 -29.63 12.36z" fill="#093f68"/><rect fill="#ffbc0e" height="45.13" rx="2.26" transform="matrix(.80737244 .59004216 -.59004216 .80737244 121.3 -109.77)" width="4.51" x="226.53" y="108.36"/><path d="m216.79 150.58a3.26 3.26 0 0 1 -2.62-5.18l24-32.79a3.17 3.17 0 0 1 2.12-1.3 3.25 3.25 0 0 1 3.13 5.14l-24 32.79a3.27 3.27 0 0 1 -2.13 1.3 4.38 4.38 0 0 1 -.5.04zm24-37.31h-.2a1.26 1.26 0 0 0 -.82.51l-24 32.79a1.25 1.25 0 0 0 .27 1.75 1.26 1.26 0 0 0 1.76-.27l24-32.79a1.25 1.25 0 0 0 -1-2z" fill="#093f68"/><path d="m257.72 104.91a1 1 0 0 1 -.54-1.84 7.28 7.28 0 0 0 2.21-3.32c1.17-3.16-1.25-5.87-1.35-6a1 1 0 0 1 1.47-1.36c.14.15 3.36 3.7 1.75 8a8.92 8.92 0 0 1 -3 4.3 1 1 0 0 1 -.54.22z" fill="#fff"/><path d="m253.88 106.73a1 1 0 0 1 -.12-2 8.72 8.72 0 0 0 1.89-.56 1 1 0 0 1 .8 1.83 10.77 10.77 0 0 1 -2.44.72z" fill="#fff"/><path d="m141.77 124.09a1 1 0 0 1 -.56-1.84l4.64-3.07a1 1 0 0 1 1.39.28 1 1 0 0 1 -.28 1.38l-4.64 3.08a1 1 0 0 1 -.55.17z" fill="#dfeaef"/><path d="m144.25 127.3a1 1 0 0 1 -.83-.44 1 1 0 0 1 .28-1.39l4.15-2.76a1 1 0 0 1 1.11 1.67l-4.15 2.76a1 1 0 0 1 -.56.16z" fill="#dfeaef"/><path d="m146.54 130.53a1 1 0 0 1 -.55-1.83l4.15-2.76a1 1 0 1 1 1.11 1.66l-4.15 2.76a1 1 0 0 1 -.56.17z" fill="#dfeaef"/><path d="m163.73 113.49a1 1 0 0 1 -.53-1.84l30.8-19.53a1 1 0 1 1 1.07 1.69l-30.8 19.53a1 1 0 0 1 -.54.15z" fill="#dfeaef"/><path d="m213 192.6a.75.75 0 0 1 -.21 0 1 1 0 0 1 -.76-1.19c1.51-7-5.09-10.95-5.37-11.12a1 1 0 0 1 1-1.73c.08.05 8.14 4.85 6.31 13.28a1 1 0 0 1 -.97.76z" fill="#093f68"/></svg>