<svg viewBox="0 0 400 300" xmlns="http://www.w3.org/2000/svg"><path d="m82.77 146.6 24.96 14.53-12.48 21.89-25.25-14.64z" fill="#fff"/><path d="m95.25 183.53a.48.48 0 0 1 -.26-.07l-25.25-14.64a.5.5 0 0 1 -.18-.7l12.76-21.78a.51.51 0 0 1 .7-.18l25 14.52a.52.52 0 0 1 .19.7l-12.51 21.89a.57.57 0 0 1 -.32.25zm-24.54-15.34 24.35 14.12 12-21-24.06-14z" fill="#231f20"/><path d="m107.61 253.17a38.41 38.41 0 0 0 -3.1 7.08c-1.05 3.48 1.06 8.48 2.54 9.82a4.42 4.42 0 0 0 5.47-.06c1.63-1.43 0-15.15 0-15.15z" fill="#231f20"/><path d="m109.66 271.5a4.38 4.38 0 0 1 -3-1.06c-1.6-1.45-3.78-6.69-2.67-10.33a37.05 37.05 0 0 1 3.16-7.21.5.5 0 0 1 .58-.2l4.85 1.69a.49.49 0 0 1 .33.41c.41 3.28 1.59 14.1-.11 15.59a5 5 0 0 1 -3.14 1.11zm-1.82-17.72a37.18 37.18 0 0 0 -2.84 6.62c-1 3.23 1 8 2.39 9.3a3.94 3.94 0 0 0 4.81-.06c.89-.77.61-7.88-.18-14.41z" fill="#231f20"/><path d="m123.59 203.1a60.23 60.23 0 0 0 -10.32 20.65c-3.19 12-4.88 28.53-5.07 29.09s-3.19 5.82-1.08 6.81 4.22 1.55 5.35-4.79c0 0 21.82-43.5 22.66-48.71s-11.54-3.05-11.54-3.05z" fill="#fff"/><path d="m109.18 260.77a5.59 5.59 0 0 1 -2.28-.65 1.7 1.7 0 0 1 -.9-1c-.52-1.45.46-3.82 1.48-5.94.12-.24.2-.41.23-.49s.15-1.07.29-2.16c.67-5.2 2.24-17.37 4.77-26.9a61.3 61.3 0 0 1 10.42-20.85.55.55 0 0 1 .31-.18c.36-.06 8.76-1.49 11.38 1.1a2.76 2.76 0 0 1 .76 2.54c-.84 5.18-21.39 46.24-22.68 48.8-.55 3.08-1.39 4.82-2.62 5.46a2.45 2.45 0 0 1 -1.16.27zm14.69-57.19a60.4 60.4 0 0 0 -10.11 20.3c-2.51 9.47-4.07 21.59-4.74 26.77-.23 1.83-.28 2.21-.33 2.36s-.14.31-.28.61c-.52 1.07-1.88 3.9-1.44 5.14a.68.68 0 0 0 .37.42c1.07.5 1.86.74 2.52.4.91-.48 1.62-2.09 2.1-4.81a.39.39 0 0 1 .05-.14c.22-.43 21.79-43.49 22.61-48.56a1.75 1.75 0 0 0 -.47-1.65c-1.81-1.78-7.85-1.24-10.28-.84z" fill="#231f20"/><path d="m193.56 253.17a38 38 0 0 1 3.09 7.08c1.06 3.48-1.05 8.48-2.53 9.82a4.42 4.42 0 0 1 -5.47-.06c-1.64-1.43 0-15.15 0-15.15z" fill="#231f20"/><path d="m191.51 271.48a4.94 4.94 0 0 1 -3.19-1.09c-1.7-1.49-.52-12.31-.11-15.59a.49.49 0 0 1 .33-.41l4.85-1.69a.51.51 0 0 1 .58.2 38.74 38.74 0 0 1 3.16 7.21c1.11 3.64-1.08 8.88-2.68 10.33a4.38 4.38 0 0 1 -2.94 1.04zm-2.35-16.25c-.79 6.53-1.07 13.64-.18 14.41a3.93 3.93 0 0 0 4.81.06c1.4-1.27 3.37-6.07 2.39-9.3a38 38 0 0 0 -2.85-6.62z" fill="#231f20"/><path d="m177.58 203.1a60.23 60.23 0 0 1 10.32 20.65c3.19 12 4.88 28.53 5.07 29.09s3.19 5.82 1.08 6.81-4.22 1.55-5.35-4.79c0 0-21.82-43.5-22.67-48.71s11.55-3.05 11.55-3.05z" fill="#fff"/><path d="m192 260.77a2.45 2.45 0 0 1 -1.16-.28c-1.23-.64-2.07-2.38-2.63-5.46-1.28-2.56-21.84-43.62-22.68-48.8a2.79 2.79 0 0 1 .77-2.54c2.62-2.59 11-1.16 11.38-1.1a.55.55 0 0 1 .31.18 61.3 61.3 0 0 1 10.42 20.85c2.53 9.53 4.1 21.7 4.77 26.9.14 1.09.26 2 .29 2.18l.23.47c1 2.12 2 4.49 1.48 5.94a1.73 1.73 0 0 1 -.9 1 5.63 5.63 0 0 1 -2.28.66zm-19.63-57.59c-2.19 0-4.37.29-5.34 1.24a1.78 1.78 0 0 0 -.48 1.65c.83 5.07 22.4 48.13 22.62 48.56a.78.78 0 0 1 .05.14c.48 2.72 1.19 4.33 2.1 4.81.66.34 1.45.1 2.52-.4a.68.68 0 0 0 .37-.42c.44-1.24-.93-4.07-1.44-5.14a6.5 6.5 0 0 1 -.28-.61c0-.15-.1-.53-.34-2.36-.66-5.18-2.22-17.3-4.74-26.77a60.46 60.46 0 0 0 -10.1-20.3 32.07 32.07 0 0 0 -4.95-.4z" fill="#231f20"/><path d="m130.91 145.29c0 .56-7.88 40.92-9.38 58.94 0 0 30.78 16.14 58.94-1.13 0 0-6.39-25.9-6.57-31.91s-3.2-21.77-7.51-28.34z" fill="#231f20"/><path d="m151.57 211.53a72.71 72.71 0 0 1 -30.28-6.86.49.49 0 0 1 -.26-.48c1.21-14.58 6.59-43.71 8.62-54.68.43-2.36.75-4.06.76-4.25a.53.53 0 0 1 .47-.47l35.47-2.44a.48.48 0 0 1 .45.22c4.36 6.64 7.4 22.29 7.59 28.61.19 5.88 6.49 31.54 6.56 31.8a.52.52 0 0 1 -.22.55 55.09 55.09 0 0 1 -29.16 8zm-29.52-7.6c3.2 1.56 31.79 14.67 57.85-1.06-.8-3.26-6.32-26-6.5-31.66-.19-6-3.16-21.31-7.27-27.85l-34.79 2.4c-.09.51-.28 1.59-.72 3.93-2 10.87-7.31 39.61-8.57 54.24z" fill="#231f20"/><path d="m186 58.07 2.37-6.42s-1.1-2.53.13-4.42 2-3.5 3-2.92 6 3.19 5.19 6.32-3 3.56-3 3.56a51.77 51.77 0 0 1 -3.92 8.51z" fill="#fff"/><path d="m189.75 63.21a.53.53 0 0 1 -.4-.19l-3.77-4.62a.52.52 0 0 1 -.08-.51l2.3-6.23a5.54 5.54 0 0 1 .25-4.71l.49-.77c1-1.65 2-3.07 3.19-2.31l.3.18c1.47.85 5.95 3.45 5.12 6.71a5 5 0 0 1 -3.08 3.84 54.42 54.42 0 0 1 -3.86 8.4.52.52 0 0 1 -.41.26zm-3.18-5.21 3.1 3.81a49.91 49.91 0 0 0 3.5-7.75.51.51 0 0 1 .4-.35c.07 0 1.88-.42 2.58-3.17.64-2.51-3.33-4.81-4.64-5.57l-.32-.19c-.38-.23-1.09.89-1.77 2-.17.25-.33.52-.51.79-1.06 1.62-.09 3.9-.08 3.93a.55.55 0 0 1 0 .38z" fill="#231f20"/><path d="m190.93 45.62a9.12 9.12 0 0 1 3.57 3.18.8.8 0 0 1 .17.53c0 .23-.28.36-.49.46a1.65 1.65 0 0 1 -.94.24 1.5 1.5 0 0 1 -.59-.24 10.24 10.24 0 0 1 -2-1.57 1.86 1.86 0 0 1 -.83 3.27" fill="#fff"/><path d="m189.86 52a.51.51 0 0 1 -.5-.42.52.52 0 0 1 .41-.61 1.38 1.38 0 0 0 1-1 1.4 1.4 0 0 0 -.27-1.18c-.08-.07-.15-.15-.23-.23a.51.51 0 0 1 .69-.76 2.76 2.76 0 0 1 .3.29 9.72 9.72 0 0 0 1.61 1.24 1.19 1.19 0 0 0 .39.17 1.29 1.29 0 0 0 .64-.2.71.71 0 0 0 .2-.11.6.6 0 0 1 -.08-.13 8.63 8.63 0 0 0 -3.37-3 .52.52 0 0 1 .45-.93 9.6 9.6 0 0 1 3.78 3.37 1.21 1.21 0 0 1 .24.92 1.27 1.27 0 0 1 -.76.81 1.75 1.75 0 0 1 -2 0l-.5-.33a2.14 2.14 0 0 1 -.06.35 2.43 2.43 0 0 1 -1.8 1.75z" fill="#231f20"/><path d="m100.7 139.12-1.07 8.41c-.07.52 1.06 2.16 1.21 2.8.4 1.82.46 3.84.71 5.7 0 .28.06.63-.17.8s-.68 0-1-.25l-2.34-1.9a47.64 47.64 0 0 0 -3 6.35c-1.94.47-3.86-.83-5.25-2.27a2.1 2.1 0 0 1 -.39-.51 2.27 2.27 0 0 1 -.16-.73c-.36-3.35-.76-9.84 3.2-11.57a63.88 63.88 0 0 1 2.36-11.36z" fill="#fff"/><path d="m94.3 161.64a7 7 0 0 1 -4.81-2.52 2.44 2.44 0 0 1 -.48-.65 2.55 2.55 0 0 1 -.21-.89c-.26-2.45-1-9.79 3.23-12a67.48 67.48 0 0 1 2.34-11.15.5.5 0 0 1 .34-.35.52.52 0 0 1 .47.08l5.84 4.53a.55.55 0 0 1 .2.48s-1.08 8.37-1.08 8.41a6.86 6.86 0 0 0 .59 1.28 6.34 6.34 0 0 1 .61 1.34 31.12 31.12 0 0 1 .5 3.65c.06.71.13 1.41.22 2.09a1.29 1.29 0 0 1 -.37 1.28c-.25.19-.79.4-1.59-.26l-1.87-1.51a48.77 48.77 0 0 0 -2.64 5.74.52.52 0 0 1 -.36.32 4.22 4.22 0 0 1 -.93.13zm.85-26.17a62.07 62.07 0 0 0 -2.15 10.53.54.54 0 0 1 -.31.43c-2.62 1.14-3.57 4.76-2.9 11.05a1.66 1.66 0 0 0 .12.55 1.25 1.25 0 0 0 .3.38c.91.95 2.67 2.44 4.49 2.18a50.11 50.11 0 0 1 2.9-6.16.51.51 0 0 1 .35-.25.52.52 0 0 1 .43.11l2.34 1.91a1.38 1.38 0 0 0 .33.2s0-.13 0-.29c-.09-.69-.16-1.41-.23-2.13a28.16 28.16 0 0 0 -.48-3.52 6 6 0 0 0 -.51-1.09 4 4 0 0 1 -.71-1.9c0-.07.86-6.64 1-8.11z" fill="#231f20"/><path d="m142.18 93.26a3.13 3.13 0 0 0 -.67-.23c-1.71-.37-4.36 1.69-5.8 2.71a8.91 8.91 0 0 0 -3.11 4.59 40 40 0 0 0 -1.42 7.34c-1.59 13-1.59 26.4-2.38 39.5 0 0 10.9 7.88 20 6.61s20.51-6.47 20.51-6.47-3.19-36.31-3.31-41.82c0 0 5.76-7.74 12.66-17.31s13.28-28.18 13.28-28.18l-6-4.08s-20.51 32.57-24.08 35.62c-3.41 2.91-8.45 3.76-12.8 3.52a23.25 23.25 0 0 1 -4.62-.71 15.44 15.44 0 0 1 -2.26-1.09z" fill="#68e1fd"/><path d="m136.9 89.4a3.8 3.8 0 0 1 -1.59-1.84 3.56 3.56 0 0 1 .29-1.75c2-6 1.6-12.86 5-18.2a5.07 5.07 0 0 1 1.71-1.82 2.26 2.26 0 0 1 2.39 0c3-5.09 10.37-1.45 12.46 2.65 2.21 4.34 3.51 9.32 5.15 13.9a9.87 9.87 0 0 1 .86 4.39 3.41 3.41 0 0 1 -2.73 3.15l-.8-1.39a1.07 1.07 0 0 1 -.14 1.51 3.15 3.15 0 0 1 -1.48.68c-5.29 1.33-11 2.4-16.12.58-.79-.28-1.72-1-1.41-1.76-.49 1.38-2.24.84-3.59-.1z" fill="#fff"/><path d="m148 92.72a18.57 18.57 0 0 1 -6.23-1 3.18 3.18 0 0 1 -1.54-1.09 1.59 1.59 0 0 1 -.27.12c-1.25.42-2.85-.61-3.32-.93-.37-.26-1.62-1.2-1.8-2.17a3.83 3.83 0 0 1 .28-1.92 47.32 47.32 0 0 0 1.61-7.21c.65-3.84 1.33-7.82 3.45-11.19a5.68 5.68 0 0 1 1.9-2 2.91 2.91 0 0 1 2.46-.21 5.29 5.29 0 0 1 4.72-2.32 10.79 10.79 0 0 1 8.38 5.41 69.21 69.21 0 0 1 3.73 9.79c.46 1.4.92 2.79 1.41 4.15a10.35 10.35 0 0 1 .88 4.63 3.92 3.92 0 0 1 -3.2 3.6.52.52 0 0 1 -.47-.21l-.13.15a3.58 3.58 0 0 1 -1.71.81 42.66 42.66 0 0 1 -10.15 1.59zm-7-3a.32.32 0 0 0 0 .23 2 2 0 0 0 1.09.8c4.94 1.74 10.52.74 15.83-.59a2.64 2.64 0 0 0 1.23-.54.76.76 0 0 0 .22-.51.43.43 0 0 1 0 0l-.16-.29a.51.51 0 0 1 .8-.63 1.39 1.39 0 0 1 .33.53l.37.66a3.09 3.09 0 0 0 2-2.64 9.79 9.79 0 0 0 -.83-4.16c-.49-1.37-.95-2.77-1.42-4.18a68.86 68.86 0 0 0 -3.71-9.66 9.67 9.67 0 0 0 -7.49-4.85 4.37 4.37 0 0 0 -4.07 2.24.53.53 0 0 1 -.34.24.51.51 0 0 1 -.41-.09 1.75 1.75 0 0 0 -1.82 0 4.67 4.67 0 0 0 -1.62 1.6c-2 3.2-2.65 6.9-3.31 10.81a49.33 49.33 0 0 1 -1.6 7.31 3.42 3.42 0 0 0 -.28 1.49 3.5 3.5 0 0 0 1.39 1.51 3.31 3.31 0 0 0 2.39.79.61.61 0 0 0 .39-.39.69.69 0 0 1 0-.1.51.51 0 0 1 1 .36.24.24 0 0 1 .02.06z" fill="#231f20"/><path d="m150.91 103.87-.2.17a1.68 1.68 0 0 1 -1.83.19 2.42 2.42 0 0 1 -.66-.73c-2.14-3.07-3.58-6.26-2.94-10.08a.87.87 0 0 0 0-.11l-.1-1.29-.26-3.56v-.52-.75l.32-3.94 8.27.09.29 4.82v.3l.19 3.09.1 1.69v.07a19.25 19.25 0 0 1 -2.32 9.18 5 5 0 0 1 -.86 1.38z" fill="#fff"/><path d="m149.59 104.94a1.82 1.82 0 0 1 -1-.28 3 3 0 0 1 -.81-.86c-1.79-2.58-3.75-6.09-3-10.46l-.36-4.84.09-1.35.32-3.94a.51.51 0 0 1 .52-.47l8.27.08a.53.53 0 0 1 .51.49l.28 4.82s0 .1 0 .11l.29 5a19.6 19.6 0 0 1 -2.37 9.51 5.35 5.35 0 0 1 -1.07 1.53l-.24.21a2.5 2.5 0 0 1 -1.43.45zm-3.78-21.17-.37 4.72.37 4.78a1.36 1.36 0 0 1 0 .24c-.53 3.16.32 6.06 2.85 9.7a2.11 2.11 0 0 0 .52.58 1.18 1.18 0 0 0 1.24-.16 1.07 1.07 0 0 0 .16-.14 4 4 0 0 0 .85-1.24 18.48 18.48 0 0 0 2.26-8.91l-.3-5.08v-.1l-.25-4.31z" fill="#231f20"/><path d="m144.92 88.46a7.82 7.82 0 0 0 2.69 2.76c1.76 1.15 4.26 2.17 6.42 1.82l-.15-4.88a17.66 17.66 0 0 1 -4.76 0 12 12 0 0 1 -4.1-1z" fill="#231f20"/><path d="m153.11 93.61a11.49 11.49 0 0 1 -5.77-2 8.32 8.32 0 0 1 -2.86-3 .5.5 0 0 1 0-.27l.09-1.27a.52.52 0 0 1 .25-.4.49.49 0 0 1 .47 0 11.76 11.76 0 0 0 3.93.91 17.55 17.55 0 0 0 4.64 0 .44.44 0 0 1 .39.11.47.47 0 0 1 .18.36l.15 4.88a.5.5 0 0 1 -.42.51 6.74 6.74 0 0 1 -1.05.17zm-7.68-5.26a7.32 7.32 0 0 0 2.45 2.45 9.67 9.67 0 0 0 5.64 1.79l-.12-3.87a19.45 19.45 0 0 1 -4.34-.08 15.2 15.2 0 0 1 -3.6-.72z" fill="#231f20"/><path d="m149.13 89.32h.87a7.27 7.27 0 0 0 7.35-7.19 59.25 59.25 0 0 0 -.63-6.66s-3.35-1.2-6-2.2c-4.41-1.67-5.6-4-5.6-4a17.94 17.94 0 0 1 -1 4.64 21.11 21.11 0 0 1 -2 3s-.13 3.58-.15 5.07a7.28 7.28 0 0 0 7.16 7.34z" fill="#fff"/><path d="m150.06 89.85h-.94a7.79 7.79 0 0 1 -7.69-7.85c0-1.5.14-5.09.14-5.09a.55.55 0 0 1 .11-.3 21.47 21.47 0 0 0 1.91-2.92 17.49 17.49 0 0 0 1-4.47.52.52 0 0 1 .42-.47.51.51 0 0 1 .56.28s1.19 2.24 5.33 3.8c2.62 1 6 2.2 6 2.2a.51.51 0 0 1 .34.41 55.78 55.78 0 0 1 .63 6.74 7.78 7.78 0 0 1 -7.81 7.67zm-.93-1h.87a6.55 6.55 0 0 0 4.79-1.92 6.7 6.7 0 0 0 2-4.75 53.1 53.1 0 0 0 -.58-6.28c-.87-.31-3.53-1.28-5.7-2.1a13 13 0 0 1 -5.07-3.2 16.64 16.64 0 0 1 -.92 3.51 19.55 19.55 0 0 1 -1.93 3c0 .72-.13 3.6-.14 4.9a6.74 6.74 0 0 0 6.67 6.82z" fill="#231f20"/><path d="m149.87 81.63a12.36 12.36 0 0 1 -1.27-.07.52.52 0 0 1 -.44-.58.51.51 0 0 1 .58-.44 9.4 9.4 0 0 0 1.85 0 12.64 12.64 0 0 0 -1.07-4.1.52.52 0 0 1 1-.37c.47 1.21 1.52 4.15 1 5.08a.82.82 0 0 1 -.61.4 8.3 8.3 0 0 1 -1.04.08z" fill="#231f20"/><ellipse cx="146.31" cy="77.53" fill="#231f20" rx="1.23" ry=".5" transform="matrix(.01099535 -.99993955 .99993955 .01099535 67.17 222.98)"/><ellipse cx="152.93" cy="77.37" fill="#231f20" rx="1.23" ry=".5" transform="matrix(.01099535 -.99993955 .99993955 .01099535 73.87 229.44)"/><path d="m158.34 95.34c0 2 .15 6.07-4.16 13.63l-4.18-4.59c1.07-2 3.83-3.37 4.05-10.54 0-.18 0-.35 0-.53a.61.61 0 0 1 .17-.07c1.57-.68 3.9.52 4.12 1.36a4.08 4.08 0 0 1 0 .74z" fill="#fff"/><path d="m154.18 109.48a.51.51 0 0 1 -.38-.16l-4.23-4.59a.52.52 0 0 1 -.08-.59 9.69 9.69 0 0 1 1-1.5c1.24-1.57 2.78-3.52 2.94-8.82a4.77 4.77 0 0 0 0-.51.5.5 0 0 1 .25-.44 1.11 1.11 0 0 1 .27-.12 4.08 4.08 0 0 1 3.26.27c.39.19 1.33.71 1.52 1.45a4.27 4.27 0 0 1 .05.88v.28c0 2.18 0 6.26-4.24 13.59a.49.49 0 0 1 -.39.26zm-3.6-5.17 3.49 3.79c3.72-6.72 3.74-10.45 3.76-12.48v-.28a3.61 3.61 0 0 0 0-.62 2.12 2.12 0 0 0 -1-.76 3.23 3.23 0 0 0 -2.31-.28 1.09 1.09 0 0 0 0 .18c-.18 5.64-1.91 7.83-3.17 9.43-.29.36-.55.71-.77 1.02z" fill="#231f20"/><path d="m149.57 104.42-4.64 4.58c-5.1-3.52-4.08-13.76-3.92-14.37a2 2 0 0 1 1-1 3.61 3.61 0 0 1 3.28-.31v.11c.2 7.44 3.18 8.93 4.28 10.99z" fill="#fff"/><path d="m144.93 109.48a.53.53 0 0 1 -.3-.09c-5.62-3.88-4.14-14.82-4.11-14.92a2.47 2.47 0 0 1 1.21-1.29 4.12 4.12 0 0 1 3.77-.32.53.53 0 0 1 .28.46v.11c.14 5.49 1.79 7.56 3.12 9.22a9.9 9.9 0 0 1 1.09 1.54.52.52 0 0 1 -.09.61l-4.64 4.55a.54.54 0 0 1 -.33.13zm-2.7-15.4a1.74 1.74 0 0 0 -.72.65c-.23.92-.94 10.1 3.37 13.56l4-4c-.22-.34-.49-.68-.79-1.06-1.34-1.66-3.15-3.93-3.35-9.63a3.42 3.42 0 0 0 -2.52.42z" fill="#231f20"/><path d="m151.11 82.93h-2.42s-.28 4.33 1.21 3.87c1.21-.38 1.52-2.28 1.21-3.87z" fill="#231f20"/><path d="m138.56 93.84c-.42-1.3-29.85 14.85-35.13 18.41s-12.22 30-12.22 30l11.12.54s8.67-20.79 12.55-24.16 20.4-9.66 20.4-9.66z" fill="#68e1fd"/><path d="m292.52 50.82a9.14 9.14 0 0 0 .55-3.13c-.19-1-.92-2.86-.55-4s1.65-4.7 3.13-4.61 5.89 1.29 6.35 3.5-4 13.49-4 13.49z" fill="#fff"/><path d="m298 56.57a.52.52 0 0 1 -.35-.14l-5.43-5.25a.51.51 0 0 1 -.13-.52 8.15 8.15 0 0 0 .54-2.88c-.05-.26-.13-.56-.22-.9a6.51 6.51 0 0 1 -.32-3.39c.36-1.19 1.69-5.09 3.64-5 1.28.08 6.26 1.26 6.81 3.9.48 2.29-3.61 12.65-4.08 13.82a.49.49 0 0 1 -.36.31zm-4.86-5.89 4.67 4.51c1.76-4.51 4.05-11.12 3.75-12.56-.37-1.8-4.35-3-5.89-3.1-.81 0-2 2.12-2.63 4.25a6 6 0 0 0 .33 2.84c.1.37.19.7.24 1a8.11 8.11 0 0 1 -.52 3.06z" fill="#231f20"/><path d="m285.72 37.68 25.13 12.83 9.01-17.47-25.34-12.11z" fill="#fff"/><path d="m310.85 51a.46.46 0 0 1 -.23-.06l-25.13-12.8a.51.51 0 0 1 -.26-.3.51.51 0 0 1 0-.4l8.79-16.75a.51.51 0 0 1 .68-.23l25.34 12.11a.5.5 0 0 1 .27.3.51.51 0 0 1 0 .4l-9 17.47a.51.51 0 0 1 -.46.26zm-24.43-13.54 24.21 12.35 8.53-16.54-24.41-11.66z" fill="#231f20"/><path d="m218.8 50.82a8.9 8.9 0 0 1 -.55-3.13c.18-1 .92-2.86.55-4s-1.66-4.7-3.13-4.61-5.89 1.29-6.35 3.5 4.05 13.54 4.05 13.54z" fill="#fff"/><g fill="#231f20"><path d="m213.37 56.57h-.11a.53.53 0 0 1 -.36-.31c-.46-1.17-4.55-11.53-4.07-13.82.55-2.64 5.52-3.82 6.81-3.9 1.93-.14 3.27 3.77 3.64 5a6.73 6.73 0 0 1 -.32 3.39c-.09.34-.17.64-.22.9a8.25 8.25 0 0 0 .53 2.88.48.48 0 0 1 -.12.52l-5.43 5.25a.52.52 0 0 1 -.35.09zm2.36-17c-1.54.1-5.52 1.3-5.89 3.1-.3 1.44 2 8 3.75 12.56l4.67-4.51a7.92 7.92 0 0 1 -.47-3.08c.05-.28.14-.61.23-1a6 6 0 0 0 .33-2.84c-.67-2.12-1.81-4.27-2.62-4.27z"/><path d="m282.43 259.57c.09.28-.83 8.75 0 10.13s8.93 5.34 12.43 2.76.83-4.76 0-6-4.33-8.8-4.33-8.8z"/><path d="m291.76 273.81a12 12 0 0 1 -2.29-.24c-3.24-.65-6.82-2.53-7.47-3.61s-.49-4.1-.15-8.84c0-.67.09-1.36.09-1.48a.41.41 0 0 1 0-.36.52.52 0 0 1 .33-.2l8.11-1.93a.5.5 0 0 1 .57.28c0 .07 3.49 7.53 4.29 8.74a7.11 7.11 0 0 0 .43.57 4.65 4.65 0 0 1 1.38 3.39 4.18 4.18 0 0 1 -1.93 2.73 5.66 5.66 0 0 1 -3.36.95zm-8.83-13.81c0 .25 0 .62-.08 1.22-.15 2-.52 7.36 0 8.25.41.7 3.58 2.5 6.81 3.15 1.5.3 3.56.45 4.89-.53a3.33 3.33 0 0 0 1.55-2.09 3.83 3.83 0 0 0 -1.18-2.63c-.18-.23-.35-.45-.48-.64-.74-1.13-3.46-7-4.19-8.5z"/><path d="m221.15 255.84s-6.91 11.47-5.8 14.5 11.19.42 13.12-1.79 2.07-15.61 2.07-15.61z"/><path d="m218.7 272.22a8.08 8.08 0 0 1 -1.53-.13 2.7 2.7 0 0 1 -2.29-1.58c-1.15-3.17 5.12-13.73 5.84-14.93a.52.52 0 0 1 .28-.22l9.39-2.9a.5.5 0 0 1 .65.49c0 1.39-.2 13.64-2.19 15.93-1.4 1.59-6.52 3.34-10.15 3.34zm2.78-16c-2.72 4.54-6.4 11.87-5.66 13.91.17.47.68.78 1.53.94 3.12.59 9.34-1.29 10.74-2.89s1.86-10.51 1.94-14.6z"/><path d="m239.66 144.38s-9.53 54.14-12.57 67.4-8.56 45.86-8.56 45.86 4.42 3 11.6 1.1l26.62-82.6 25 84.81 10.77-2.48-17.64-110.32z"/><path d="m281.79 261.45a.49.49 0 0 1 -.48-.36l-24.58-83.25-26.13 81.06a.48.48 0 0 1 -.34.32c-7.32 2-11.83-1-12-1.17a.51.51 0 0 1 -.21-.5c.06-.32 5.56-32.76 8.57-45.88s12.47-66.84 12.57-67.38a.49.49 0 0 1 .54-.41l35.22 3.77a.5.5 0 0 1 .44.42l17.68 110.32a.49.49 0 0 1 -.38.56l-10.77 2.49zm-25-85.81a.5.5 0 0 1 .47.36l24.9 84.36 9.86-2.28-17.57-109.47-34.38-3.69c-.94 5.31-9.64 54.5-12.49 67s-7.91 42-8.5 45.49c1 .58 4.92 2.41 10.66.95l26.54-82.36a.49.49 0 0 1 .47-.36z"/></g><path d="m300.11 51.83c-2.58 9.76-19.34 52.64-20.63 55.59s-.18 42.39-.18 42.39c-10.69 6.82-41.26 3.86-41.81 2.58s.19-28.37-.73-33.52-25.76-66.12-25.76-66.12l8.84-2.94 9.16 19.75s10.86 18.37 13.44 20.21a7.78 7.78 0 0 0 3 1.07 41 41 0 0 0 7.75.53c5.14 1.47 11.45-.53 14.9-2.21a14.28 14.28 0 0 0 1.83-1c2.38-1.67 22.08-38.35 22.08-38.35z" fill="#68e1fd"/><path d="m268.08 89.16-11.08 43.15-11.57-41.47a41 41 0 0 0 7.75.53c5.14 1.47 11.45-.53 14.9-2.21z" fill="#231f20"/><path d="m257 132.81a.5.5 0 0 1 -.48-.36l-11.52-41.45a.52.52 0 0 1 .11-.48.48.48 0 0 1 .47-.15 40.91 40.91 0 0 0 7.64.52h.15c4.67 1.34 10.58-.25 14.54-2.18a.51.51 0 0 1 .7.58l-11.08 43.15a.48.48 0 0 1 -.48.37zm-10.87-41.34 10.87 38.91 10.35-40.32c-4.06 1.78-9.65 3.09-14.21 1.81a42.25 42.25 0 0 1 -7.01-.4z" fill="#231f20"/><path d="m265.68 76.39a9.65 9.65 0 0 0 .32-1c1.76-6.47-.83-14.79-8.45-15.31a9.23 9.23 0 0 0 -8.55 4.92c-2.19 3.81-1.58 8.68-1.18 12.87a1.41 1.41 0 0 0 .24.78c.44.51 1.29.17 1.85.16.81 0 1.66.12 2.47.17 1.42.07 2.83.12 4.24.09a43.11 43.11 0 0 0 6.12-.17c.86-.14 1.45-.14 2-.84a5.38 5.38 0 0 0 .94-1.67z" fill="#fff"/><path d="m259.7 79.56h-1.26-1.78c-1.24 0-2.6 0-4.27-.09l-1-.08c-.49 0-1-.1-1.48-.09h-.43a1.52 1.52 0 0 1 -2.16-1.44v-.58c-.41-4.13-.87-8.82 1.29-12.59a9.73 9.73 0 0 1 9-5.13 9.31 9.31 0 0 1 7.15 4 14.75 14.75 0 0 1 1.75 12 10.59 10.59 0 0 1 -.33 1 6 6 0 0 1 -1 1.77 2.74 2.74 0 0 1 -2 1h-.3a19.69 19.69 0 0 1 -3.18.23zm-2.51-1h1.27a25 25 0 0 0 4.23-.18h.31a1.83 1.83 0 0 0 1.41-.61 5.26 5.26 0 0 0 .81-1.48c.11-.32.21-.65.3-1a13.71 13.71 0 0 0 -1.61-11.14 8.29 8.29 0 0 0 -6.4-3.54 8.7 8.7 0 0 0 -8 4.63c-2 3.5-1.56 8-1.17 12l.06.58a1.19 1.19 0 0 0 .12.5c.13.15.45.12.9 0l.56-.06c.53 0 1.06 0 1.58.09l.93.08c1.65.08 3 .11 4.21.09z" fill="#231f20"/><path d="m250.75 77.18c-.4-3.22-5.68-4.19-5.55-.41a5.66 5.66 0 0 0 1.29 3.59 3.31 3.31 0 0 0 3.54 1" fill="#fff"/><path d="m249 82a4 4 0 0 1 -2.9-1.31 6.1 6.1 0 0 1 -1.42-3.91 2.58 2.58 0 0 1 2.42-3 3.9 3.9 0 0 1 4.13 3.28.5.5 0 0 1 -1 .13 2.92 2.92 0 0 0 -3.06-2.41c-.58 0-1.55.36-1.5 1.92a5.08 5.08 0 0 0 1.19 3.3 2.81 2.81 0 0 0 3 .83.51.51 0 0 1 .65.27.52.52 0 0 1 -.27.66 3.27 3.27 0 0 1 -1.24.24z" fill="#231f20"/><path d="m262.26 77.18c.4-3.22 5.69-4.19 5.56-.41a5.61 5.61 0 0 1 -1.3 3.59 3.29 3.29 0 0 1 -3.53 1" fill="#fff"/><path d="m264 82a3.27 3.27 0 0 1 -1.2-.22.51.51 0 0 1 -.27-.66.5.5 0 0 1 .65-.27 2.82 2.82 0 0 0 3-.83 5.14 5.14 0 0 0 1.16-3.27c.05-1.56-.92-1.87-1.5-1.92a2.93 2.93 0 0 0 -3.06 2.41.5.5 0 0 1 -.56.43.49.49 0 0 1 -.43-.56 3.9 3.9 0 0 1 4.13-3.28 2.58 2.58 0 0 1 2.42 3 6.06 6.06 0 0 1 -1.43 3.91 4 4 0 0 1 -2.91 1.26z" fill="#231f20"/><path d="m250.35 93.18a17 17 0 0 0 6.65 1.39c4.18.15 4.89-1 4.89-1l-.1-2.24-.23-5.22-.22-4.87-9.57-.33-.46 4-.14 1.28z" fill="#fff"/><path d="m257.7 95.08h-.7a17.27 17.27 0 0 1 -6.84-1.45.49.49 0 0 1 -.27-.5l1.4-12.26a.49.49 0 0 1 .51-.44l9.57.33a.52.52 0 0 1 .49.48l.55 12.33a.46.46 0 0 1 -.08.28c-.17.21-1 1.23-4.63 1.23zm-6.82-2.21a17.93 17.93 0 0 0 6.12 1.2c3 .1 4.06-.47 4.36-.69l-.52-11.65-8.65-.3z" fill="#231f20"/><path d="m251.15 86.16a8.5 8.5 0 0 0 3 2.87c2 1.21 5.05 2.6 7.57 2.31l-.23-5.22a23.9 23.9 0 0 1 -5.49-.12 16.06 16.06 0 0 1 -4.73-1.09z" fill="#231f20"/><path d="m261.06 91.88c-2.67 0-5.55-1.48-7.12-2.42a8.82 8.82 0 0 1 -3.22-3 .45.45 0 0 1 -.07-.3l.14-1.29a.52.52 0 0 1 .25-.38.5.5 0 0 1 .46 0 15.43 15.43 0 0 0 4.58 1 22.37 22.37 0 0 0 5.4.15.51.51 0 0 1 .38.12.5.5 0 0 1 .18.36l.23 5.21a.5.5 0 0 1 -.44.52 6.64 6.64 0 0 1 -.77.03zm-9.4-5.83a8.08 8.08 0 0 0 2.8 2.55c1.22.73 4.21 2.36 6.79 2.27l-.19-4.2a24.92 24.92 0 0 1 -5.11-.21 18.78 18.78 0 0 1 -4.24-.86z" fill="#231f20"/><path d="m264.89 68.5-.41 11.61a6.43 6.43 0 0 1 -.2 1.47 7.34 7.34 0 0 1 -7.38 5.61h-.86a7.34 7.34 0 0 1 -6.85-5.51 7.55 7.55 0 0 1 -.23-2.08l.41-11.6s1.81 2.39 7 2.34a20.17 20.17 0 0 0 8.52-1.84z" fill="#fff"/><path d="m257.15 87.69h-.27-.86a7.88 7.88 0 0 1 -7.32-5.89 8.18 8.18 0 0 1 -.24-2.22l.41-11.61a.49.49 0 0 1 .34-.46.5.5 0 0 1 .55.18s1.8 2.22 6.61 2.14a19.77 19.77 0 0 0 8.28-1.74.5.5 0 0 1 .5 0 .5.5 0 0 1 .23.44l-.38 11.6a7.05 7.05 0 0 1 -.21 1.57 7.87 7.87 0 0 1 -7.64 5.99zm-7.32-18.64-.37 10.54a6.84 6.84 0 0 0 6.6 7.07h.86a6.88 6.88 0 0 0 6.88-5.22 6.53 6.53 0 0 0 .18-1.38l.38-10.8a21.74 21.74 0 0 1 -8 1.51 10.74 10.74 0 0 1 -6.53-1.72z" fill="#231f20"/><path d="m257.08 74s2.41 5.32 1.34 5.42a6.1 6.1 0 0 1 -2.58-.7" fill="#fff"/><path d="m258.24 79.91a6.73 6.73 0 0 1 -2.63-.77.5.5 0 1 1 .47-.88 6.11 6.11 0 0 0 2.12.65 16.86 16.86 0 0 0 -1.57-4.72.49.49 0 0 1 .24-.66.51.51 0 0 1 .67.25c.79 1.75 2 4.83 1.52 5.74a.77.77 0 0 1 -.59.38z" fill="#231f20"/><ellipse cx="253.68" cy="73.18" fill="#231f20" rx=".5" ry="1.14"/><ellipse cx="260.88" cy="73.18" fill="#231f20" rx=".5" ry="1.14"/><path d="m214.84 40.07a5.66 5.66 0 0 0 -2.54 1.19c-.75.55-1.54 1.27-1.52 2.19a.38.38 0 0 0 .1.27.4.4 0 0 0 .29.05 8 8 0 0 0 3.83-1.28 4 4 0 0 0 -.95 4.42l.19.06" fill="#fff"/><path d="m214.19 47.48h-.15l-.19-.06a.48.48 0 0 1 -.31-.28 4.46 4.46 0 0 1 0-3.33 8.44 8.44 0 0 1 -2.28.49.9.9 0 0 1 -.66-.17.84.84 0 0 1 -.27-.63 3.4 3.4 0 0 1 1.67-2.64 5.92 5.92 0 0 1 2.77-1.28.49.49 0 0 1 .55.44.5.5 0 0 1 -.44.55 5.14 5.14 0 0 0 -2.29 1.1c-.83.6-1.24 1.09-1.31 1.59a7.53 7.53 0 0 0 3.39-1.19.5.5 0 0 1 .67.12.5.5 0 0 1 -.06.67 3.49 3.49 0 0 0 -.91 3.65.51.51 0 0 1 .29.62.51.51 0 0 1 -.47.35z" fill="#231f20"/><path d="m258 81.84-2.73-.92s-1.16 2.58.34 3.48 2.39-2.56 2.39-2.56z" fill="#231f20"/><path d="m293.94 42.38a1.44 1.44 0 0 1 1-.57 7 7 0 0 1 2.32-.17 3.85 3.85 0 0 1 2.11.92.78.78 0 0 1 .27.4.61.61 0 0 1 -.41.63 2 2 0 0 1 -.8.07l-2-.14a5.29 5.29 0 0 1 1.45 1.57 1.85 1.85 0 0 1 -.08 2" fill="#fff"/><path d="m297.82 47.61a.54.54 0 0 1 -.32-.11.51.51 0 0 1 -.06-.71 1.39 1.39 0 0 0 0-1.47 5 5 0 0 0 -1.33-1.42.5.5 0 0 1 .35-.88l2 .14a1.53 1.53 0 0 0 .58 0 .22.22 0 0 0 .1-.09.84.84 0 0 0 -.11-.11 3.33 3.33 0 0 0 -1.83-.79 6.33 6.33 0 0 0 -2.15.16c-.25.05-.58.15-.68.33a.5.5 0 0 1 -.88-.49 1.9 1.9 0 0 1 1.34-.82 7.29 7.29 0 0 1 2.49-.17 4.3 4.3 0 0 1 2.38 1 1.22 1.22 0 0 1 .43.68 1.1 1.1 0 0 1 -.71 1.18 2.09 2.09 0 0 1 -1 .1h-.57a4.9 4.9 0 0 1 .52.74 2.38 2.38 0 0 1 -.15 2.58.48.48 0 0 1 -.4.15z" fill="#231f20"/><path d="m257 156.68a.5.5 0 0 1 -.5-.5v-23.87a.5.5 0 0 1 .5-.5.51.51 0 0 1 .5.5v23.87a.51.51 0 0 1 -.5.5z" fill="#231f20"/></svg>