<svg fill="none" height="370" viewBox="0 0 381 370" width="381" xmlns="http://www.w3.org/2000/svg"><path d="m176.88 193.634c0 139.644.6 133.472-1.4 139.05-1.303 4.031-3.713 7.614-6.954 10.342-3.609 3.247-7.922 5.614-12.6 6.916-1.068.248-57.9738 10.36-115.7398 18.442-21.732 3.042-36.11396 1.962-34.42396-26.71.012-.2-5.45-263.822-5.46-264.024-.597766-19.5544-.09096-39.1269 1.518-58.624 1.08-12.02604 10.97996-16.82604 22.82196-18.584043 9.834-1.455997 118.5778 17.776043 131.3218 23.116043 4.539 2.1476 8.349 5.5774 10.96 9.866 10.352 14.988 7.37 35.656 7.534 48.682.266 21 .308-3.026 2.756 111.502-.109.023-.222.032-.334.026zm-167.66776 135.586c.094 21.754-4.034 38.722 20.74796 36.704 30.736-2.502 94.3498-14.948 116.5638-16.96 15.762-1.428 28.744-9.812 28.6-25.384-1.128-125.328.4-98.074-1.816-206.716-.272-13.38-.642-26.762-.888-40.142-.312-17 1.952-29.214-7.328-42.874-6.36-9.358-15.988-11.79-31.116-14.088-62.0338-9.424-95.0818-17.19004-106.5758-16.17604-8.2.724-21.92596 5.816-22.59996 13.45804-4 44.968 4.4 309.032 4.412 312.178z" fill="#191919"/><path d="m202.676 193.028c3.822-136.6681 2.66-88.374 2.576-127.5621-.034-15.096 3.376-32.148 16.046-40.324 11.258-7.262 124.416-25.999963 134-24.699963 9.508 1.296003 21.082 5.934003 22.344 15.399963.718 5.4 1.43 10.818 1.622 16.254 1.836 52.034-.266 44.928-.502 60.8-.2 13.0001.39 61.1381-.6 103.9561-.92 39.6-3.488 106.324-4.16 132.778-.2 8.112 1.562 15.528-1.146 27.174-2.062 8.872-8.95 13.13-17.694 12.814-13.265-.756-26.472-2.313-39.55-4.662-52.018-8.22-8.412-.942-65.85-10.688-25.624-4.35-26.136-3.726-32.376-7.136-3.675-1.785-6.861-4.438-9.282-7.729-2.421-3.292-4.004-7.123-4.614-11.163-.332-2.2-.232 7.534-.232-135.188-.21-.01-.39-.01-.582-.024zm172.65-6.684c-.077.002-.155-.002-.232-.012.18-12.518.53-25.024.502-37.542-.222-103.9201 2.634-52.0001-.05-129.0561-.025-2.1071-.594-4.172-1.652-5.9943s-2.57-3.3399-4.388-4.40566c-7.691-4.98092-16.943-6.9651-26-5.576-15.512 1.8-36.054 5.81-58.174 9.59996-40.978 7.036-45.558 6.678-54.656 9.878-10.4 3.656-13.446 5-19.1 16.742-5.098 10.6-3.814 20.108-4.25 47.304-2.56 160.0001-1.648 45.7521-2.344 236.3741-.15 3.457.542 6.899 2.019 10.029 1.476 3.13 3.692 5.854 6.455 7.937 4.922 3.948 10.861 6.422 17.13 7.134 29.452 3.126 9.242 1.538 92.2 13.818 10.862 1.865 21.83 3.044 32.84 3.53 7.954.168 13.924-5.29 14.49-10.652 1.634-15.49.612-23.742.708-38.068.052-6.73-.916 27.674 4.502-131.04z" fill="#191919"/><path d="m22.6003 332.362c-.876-11.478-2.088-38.044-3.748-63.234-2.54-38.554-1.748-56.528-3.2-177.9181-.278-22.99 1.578-40.724 1.982-47.676 24.774 5.4 67.652 7.894 142.5997 16.6 2.86.332 2.784.412 2.95 3.336 2.638 46.4641 2 92.9841 2.524 139.4881.36 31.842.862 105.488.862 109.984-24.84 3.276-20.334 2.338-49 5.538-83.8517 9.358-86.7517 14.34-94.9697 13.882zm132.7997-110.942-.31-4.212c2.834.914 5.654 1.81 8.616 2.762 0-.2-.758-116.678-2.37-155.7281-.05-1.248-.424-1.65-1.634-1.764-51-4.8-110.3237-9.936-139.4117-16.06-.2.824-1.182 27.764-1.172 38.508.016 17.6301 1.326 45.4741 1.326 153.2001.922.264 0 .332 4.134-2.152 3.918-2.354 7.85-4.68 11.766-7.024 2.666.618 5.324 1.216 8 1.834-7.7932 3.043-15.2361 6.916-22.2 11.552-.4066.207-.7366.538-.9423.945s-.2764.869-.2017 1.319c.474 7.92.838 15.842 1.276 23.748 3.714 67.034 3.078 52.786 3.078 60.556 83.0237-14.65 79.7577-11.496 138.9597-18.172 0-36.508.238-7.666-.528-85.282-.01-1.03-.14-1.678-1.34-1.97-2.37-.582-4.704-1.352-7.046-2.06z" fill="#191919"/><path d="m80.6503 344.61c-3.8-2.118-3-11.18 5.912-11.926 6.658-.556 13.33-1.016 19.9997-1.52 6.86-.516 7.954 6.786 3.092 9.982s-25.1997 5.58-29.0037 3.464zm10.368-1.506c5.814-.784 12.7177-1.332 18.0297-3.53.546-.179 1.037-.493 1.428-.913s.669-.933.809-1.489c.14-.557.136-1.14-.01-1.695s-.431-1.064-.827-1.479c-1.904-1.94-2.7-1.306-23.9997.336-6.242.48-8.632 8.36-2.42 8.756 2.058.132 4.118.014 6.99.014z" fill="#191919"/><path d="m87.3203 32.3419c0-.4.028-6.364 5.984-6.364 8.5297 0 10.9717 15.624 2.074 15.624-1.778-.002-8.058-.506-8.058-9.26zm6.694-4.424c-1.3065.1278-2.5195.7343-3.4057 1.7028-.8861.9685-1.3828 2.2305-1.3943 3.5432 0 .144.124 6.724 5.908 6.724 7.0497 0 4.766-11.97-1.108-11.97z" fill="#191919"/><path d="m357.438 332.336c-.943.069-1.891.061-2.834-.024-17.4-3.014-34.72-6.478-52.2-8.952-24.552-3.476-38.41-4-85.438-9.98-3.438-.438-3.422-.554-3.412-4.044.184-69.064 1.76-246.524 3.786-248.8.6-.67 2.216-.424 3.388-.554 64.76-7.22 68.908-6.892 120.684-12.892 5.77-.668 11.49-1.8 17.22-2.744 1.236-.2 2.446-.54 3.838-.85.102 1.444.166 2.6.282 3.748 2.988 29.518 1.114 59.074.876 88.618-.6 74.2.948 82.84-3.232 146.842-1.438 22.096-2.314 44.798-2.958 49.632zm-140.4-91.6c-.584.685-.92 1.547-.954 2.446-.012 2.956-.448 60.824-.296 63.826 6.812-6.722 13.2-13.47 21.532-17.94-2.744-5.082-5.832-9.234-3.232-20.708 6.248-27.572 20.578-52 19.924-52.326-.002.408-17.63 3.182-36.976 24.698zm68.346-103.2c-.426-.261-.924-.382-1.423-.346-.498.036-.974.227-1.359.546-2.698 1.786-5.458 1.97-7.224.104-.598-.566-1.322-.981-2.113-1.209-.791-.229-1.625-.265-2.433-.105 1 3 .182 4.19-3.014 4.508-.25.077-.48.208-.674.384-.193.176-.345.392-.446.634-.786 2-1.816 4.17-4.11 4-1.642-.046-3.235.561-4.43 1.688-.49.346-1.146.464-1.648.8-.348.232-.8.696-.786 1.03.842 17.644-.492 30.6 10.586 37.684 3.115 1.782 6.342 3.36 9.66 4.726 1.132.53 2.104 1.132 2.086 2.55-.05 4.108-.094 8.23-.258 12.338-.124 3.154-8.67 5.218-11.036 5.962 2.8 1.662 4.678 4.534 14.062 4.8 5.578.134 11.126-.865 16.306-2.936 2.692-1.056 5.254-2.434 7.868-3.672-.18-.66-8.336-2.828-8.538-2.884-.531-.113-1-.424-1.31-.87-.311-.445-.441-.992-.364-1.53.146-13.384.028-8.912.244-12.8-6.324 2.126-7.4 2.242-8.848.8.8-.436 1.52-.886 2.292-1.222 1.8-.782 3.632-1.432 5.384-2.292 10.642-5.224 13.756-11.876 16.4-23.53 2.138 1.03 4.108 2.022 6.286.63-.1-.13-.183-.272-.246-.424-1.21-2.15.2-2.356 1.558-1.764.676.09.954 1.252 2.28.18 5.858-4.736-.076-13.05-5.77-9.568-.357.237-.76.397-1.183.47s-.856.057-1.272-.046c-.417-.103-.807-.291-1.147-.553-.34-.261-.622-.591-.828-.967-.382-.883-.659-1.808-.824-2.756-3.824.412-4.674-.464-5.4-5.846-2.26 0-4.572.118-6.53-1.92-2.24-2.334-1.8-4.8-1.532-7.636-3.082 2.152-5.92 3.32-10.268 1.04zm74.436-91.234c-2.51.6-4.83 1.364-7.2 1.688-42.984 5.874-19.842 3.234-131.852 14.424-1.4.14-1.984.476-2.022 2.086-.296 12.248-.878 24.496-1.044 36.756 0 .2-1.734 133.912-1.48 135.688 1.036.576 9.138-13.496 31.642-22.086 16.298-6.222 19.044-3.732 26.646-8.422.216-.18.392-.404.514-.657s.188-.53.194-.811c0-2.938-.27-5.874-.128-8.8.078-1.6-.554-2.098-1.854-2.616-4.33-1.357-8.349-3.559-11.824-6.478-.216-.142-.458-.239-.712-.285-.254-.047-.515-.041-.768.015-1.972.251-3.976-.025-5.807-.801-1.83-.776-3.422-2.024-4.613-3.617-1.738-2.576-2.428-5.719-1.929-8.786.5-3.068 2.151-5.829 4.617-7.72.467-.462.743-1.082.774-1.738.104-4.882.122-9.776.116-14.656-.003-.249-.059-.494-.162-.72s-.252-.428-.438-.594c-4.028-2.828-1.626-5.218-1.8-7.288-.252-1.613-.416-3.239-.49-4.87-.045-4.303.842-8.565 2.6-12.492-1.117.004-2.202-.378-3.071-1.082-.868-.704-1.467-1.686-1.695-2.78-.466-2.628 1.624-3.852 3.374-5.126-3.348-6.414-1.222-10.87 2.834-12.376-.518-1.843-.55-3.7885-.095-5.6479.456-1.8593 1.384-3.5693 2.695-4.9641 1.076-1.5871 2.617-2.8021 4.411-3.4779 1.794-.6757 3.754-.7792 5.609-.2961 1.4-5.32 5.422-7.252 10.11-7.87 2.286-.1998 4.587.0892 6.752.8479 2.165.7586 4.144 1.9695 5.804 3.5521 3.064-3.6 5.754-4.028 9.698-1.65 2.815 1.5305 5.06 3.9297 6.4 6.84 3.58-2.228 6.6-1.772 9.774 1.428 1.918 1.9745 3.128 4.529 3.44 7.264.4 2.884-1.236 4.972-3.168 7.148 1.249-.411 2.594-.425 3.851-.04s2.363 1.15 3.167 2.19c.873.96 1.36 2.209 1.37 3.506s-.459 2.553-1.318 3.526c.975.433 1.843 1.075 2.542 1.881s1.212 1.756 1.502 2.783c.29 1.026.351 2.104.177 3.157-.173 1.052-.576 2.054-1.181 2.933.939.735 1.64 1.731 2.013 2.863.374 1.132.403 2.35.085 3.499-.288 1.109-.976 2.072-1.932 2.704-.955.633-2.11.89-3.244.722 0 7.162-3.624 7.718-3.4 8.8.586 3.087.264 6.277-.928 9.184 7.456 1.842 8.628 8.5 2.666 14.784 1.123 1.616 1.825 3.486 2.043 5.442.217 1.955-.055 3.934-.795 5.758-.6 1.994-1.91 3.7-3.683 4.794-1.773 1.093-3.885 1.5-5.937 1.142-1.909-.584-3.763-1.339-5.538-2.254-2.466 3.379-5.567 6.244-9.13 8.436-1 .6-.584 2.092-.476 11.862.026 2.434-.026 2.512 2.4 3.078 23.62 5.514 31.892 5.672 59.848 22.126 0-13.91.506-87.2.888-118.638.414-33.288.78-29.844-.842-63.268zm-27.22 172.298c-2.834-1.222 2.55.548-20.412-6.156-5.518-1.612-1.8.576-11.578 4.778-7.515 3.502-15.883 4.759-24.096 3.618-11.85-1.884-11.83-7.742-13.626-7.456-2.88.458-5.458 1.172-6.774 4.352-4.242 10.256-13.6 27.928-18.93 51.734-.76 2.76-.954 5.645-.572 8.482.383 2.838 1.336 5.568 2.8 8.028 5.924 9.682 6.266 14.094 8.036 26.916.474 3.444-.248-1.766 86.686 12.158 4.314-12.2 6.966-24.714 10.418-36.91-4.013-1.797-7.659-4.321-10.754-7.444-9.856-10.294-10.98-25.892-9.556-40 .545-8.03 3.453-15.719 8.358-22.1zm11.348 65.822c-1.936-3.46-2.716-4.4-3.582-6.156-.22-.45.116-1.172.2-1.776.554.128 1.25.088 1.648.412.769.608 1.427 1.344 1.946 2.176 10.4 17.374 8.504 14.52 11.512 20.85.412-2.512-.442 6.426 3.902-66.054.052-.428-.029-.861-.232-1.241-.202-.38-.516-.689-.9-.885-6.814-4.324-13.948-8.121-21.34-11.358-.406-.254-.896-.34-1.365-.239s-.88.38-1.147.779c-7.106 7.844-7.93 22.822-7.38 33.434.128 7.763 2.523 15.319 6.89 21.738 2.279 3.78 5.737 6.705 9.842 8.326zm10.572 44.484c.822-19.898.968-19.48.452-20.878-2.061-6.193-4.664-12.191-7.78-17.926-2.91 12.26-5.4 24.148-9.968 35.532 5.738 1.1 11.43 2.166 17.29 3.278zm-109.854-14.94c-1.262-7.844-1.6-15.648-6.014-22.4-7.931 5.649-15.232 12.134-21.778 19.344 9.446 1.04 18.552 2.044 27.786 3.062zm64.122-193.476c-.459.662-1.01 1.256-1.636 1.764-.464.262-.832.666-1.049 1.154-.216.487-.269 1.032-.151 1.552.188 2.336-.528 4.655-2 6.478-.674.716-1.41 1.37-2.2 1.956 6.646 4.818 11.734 10.458 14.2 18.482.283-.652.528-1.32.734-2 .477-1.821.57-3.722.273-5.582-.297-1.859-.978-3.636-1.999-5.218-.325-.579-.609-1.181-.85-1.8 2.564.142 3.066 2.332 4.34 3.722 2.19-3.67 2.444-6.2.6-9.17-2.224-3.544-4.676-8.628-10.268-11.332zm-22.388 15.384c1.016.09 1.97.256 2.91.256.917.071 1.837-.07 2.69-.414.852-.344 1.613-.881 2.223-1.568.611-.688 1.053-1.507 1.293-2.395.241-.887.272-1.818.092-2.719-.632-4.8-2.77-9.284-7.368-10.92s-7.176-.632-6.94 4.92c.023.981.284 1.942.76 2.8 3.952 6.542 6.434 6.352 4.34 10.04zm14.526-28.502.31-.424c-7.912-6.526-23.334-8.34-24.87.6-.151 1.221-.177 2.455-.076 3.682.056 1.418 2.82 2.768 3.888 1.856 5.154-4.4 11.312-3.04 12.364-3.748 2.494-1.581 5.448-2.273 8.384-1.966zm-19.214 6.942c.966 1.378.978 1.47 2.576 1.16 6.44-1.252 14.762 6.678 13.56 16.858 1.047-.416 1.996-1.046 2.786-1.849.791-.803 1.405-1.763 1.803-2.816.399-1.054.574-2.18.513-3.305-.06-1.125-.354-2.225-.864-3.23-3.59-8.192-11.552-11.08-20.374-6.818zm-19.564 9.646c-.251 1.199-.227 2.439.07 3.628.298 1.188.86 2.293 1.646 3.233s1.775 1.689 2.892 2.191c1.117.503 2.334.745 3.558.71 4.342.2 7.338.278 10.162-3 .271-.316.467-.689.573-1.091.105-.402.118-.823.038-1.232-.081-.408-.253-.792-.504-1.124s-.574-.602-.945-.791c-1.516-.708-3.16-1.104-4.832-1.163-1.673-.059-3.341.218-4.904.817-.651.374-1.421.485-2.151.31-.73-.176-1.366-.623-1.777-1.252-.8-.912-1.528-.796-3.826-1.236zm49.6 46.712c-.582 3.474-1.622 6.856-3.092 10.058 5.024 2.626 9.142 1.26 10.922-3.6.393-1.122.537-2.316.421-3.499s-.488-2.326-1.091-3.351c-.182-.196-.407-.346-.657-.44s-.519-.129-.785-.102c-1.834.216-3.648.586-5.708.934zm-37.248-58.122c-.609-1.635-.831-3.389-.648-5.124s.767-3.404 1.704-4.876c-3.675 1.248-6.969 3.417-9.57 6.298-1.233 1.21-2.168 2.691-2.731 4.325-.563 1.633-.739 3.376-.513 5.089.008.726.179 1.44.5 2.091.32.651.783 1.221 1.354 1.669.374-5.26 2.306-8.906 9.904-9.472zm4.816 10.946c-.209-1.267-.126-2.564.242-3.794.369-1.23 1.013-2.359 1.884-3.302-2.45-1.141-5.183-1.535-7.856-1.132-1.506.175-2.956.676-4.25 1.468-2.366 1.818-2.628 4.674-1.16 7.972 3.336-3.44 7.186-2.408 11.14-1.212zm-18.2 7.882c-.064-.14-.258-.502-.426-.876-.61-1.08-.95-2.292-.99-3.532-.04-1.239.22-2.471.758-3.588.277-.43.399-.941.348-1.449-.051-.509-.273-.985-.63-1.351-.445.428-.948.792-1.494 1.082-1.554.565-2.898 1.594-3.847 2.949s-1.459 2.969-1.459 4.623c-.278 2.768-.542 5.524-.85 8.526 3.094-2.3 5.786-4.31 8.58-6.384zm-7.778 36.498c-3.246 3.902-3.9 7.83-1.908 11.94 1.4 2.87 4.07 3.772 7.38 4.134-3.912-4.778-4.41-10.432-5.482-16.074zm51.9-47.212c.932-1.023 1.469-2.344 1.516-3.727.047-1.382-.398-2.737-1.258-3.821-1.101-1.416-2.641-2.426-4.378-2.874-1.737-.447-3.573-.306-5.222.402 2.143.968 4.071 2.352 5.673 4.072 1.602 1.721 2.846 3.742 3.659 5.948zm-28.8 15.622c1.589.308 3.234.111 4.705-.564 1.47-.675 2.693-1.793 3.495-3.198-.566-.6-1.132-1.222-1.75-1.88-1.216 2.912-2 3.594-6.456 5.642z" fill="#191919"/><path d="m295.646 345.666c-11.024-1.628-24.722-.572-27.766-7.612-.367-.716-.544-1.515-.513-2.319.032-.804.27-1.586.693-2.271.422-.685 1.014-1.25 1.718-1.639.705-.389 1.497-.59 2.302-.583 3.054-.03.074.056 21.082 1.4 9.186.59 10.2 9.616 6.35 11.9-1.231.549-2.532.927-3.866 1.124zm-21.688-12.968c-6.06-.38-6.446 4.92-3.27 6.71.995.526 2.05.929 3.142 1.2 7.274 1.87 14.773 2.715 22.28 2.512 3.824-.038 3.778-2.624 3.09-5.1-.326-1.174-2-3.434-6.22-3.774-17.128-1.38-18.046-1.368-19.022-1.548z" fill="#191919"/><path d="m286.76 25.916c3.262 0 6.384 2.622 6.04 5.6-.2 10.524-7.34 10.146-7.6 10.146-1.364 0-6.048-.052-6.048-6.566-.002-5.52 4.178-9.18 7.608-9.18zm-1.752 13.986c4.716 0 5.824-4.4 5.824-6.76.053-1.3146-.412-2.5975-1.296-3.5723-.883-.9748-2.114-1.5637-3.428-1.6397-6.026 0-8.034 11.972-1.108 11.972z" fill="#191919"/><path d="m53.8763 56.476c-2.892-.752-24.456-2.636-24.676-2.652-1.172-.09-.87 5.32-.888 36.896 0 2.486-.014 2.562 2.42 2.512 7.664-.158 15.326-.362 23-.554 2.06-.052 2.366-.27 2.382-2.292.0787-10.2894.1387-20.5794.18-30.87 0-2.266-.214-2.466-2.418-3.04zm-22.628 35.03c0-8.29-.97-8.546 3.85-11.86.4343-.2614.8966-.4734 1.378-.632.0818-.0342.1729-.0387.2576-.0127.0847.0259.1577.0806.2064.1547.5917 1.0415.8942 2.2222.8762 3.4199-.0179 1.1976-.3556 2.3688-.9782 3.3921-.372.456-1.554.658-1.314.658.076-.412.168-.824.244-1.236-.4.114-1 .114-1.158.386-.846 1.502-2.988 5.332-3.362 5.73zm4.534-.308c-1.0183.1111-2.0416.1712-3.066.18.4354-.9776.9568-1.9147 1.558-2.8 0 0 1.546 2.542 1.508 2.622zm11.706-1.16c-.132.376.492.038-10.896.76-.0801.0055-.1599-.0154-.227-.0594-.0672-.0441-.1181-.1089-.145-.1846-.4-1.172-.566-1.338-.284-1.558 3.87-3.03 4.456-5.436 2.64-11.2.8-.2 1.2-.534 1.88-.2 2.236 1.076 4.636 1.57 6.646-.232.296.696.556 1.2.734 1.764.4 1.222.638 2.488 1.108 3.684.3932.8394.5414 1.7728.4275 2.6928-.114.9199-.4854 1.789-1.0715 2.5072-.3709.6307-.6446 1.3137-.812 2.026zm-9.04-21.714c.1781-.0853.3778-.1148.5729-.0848.1952.0299.3768.118.5211.2528.1757.1966.3939.3507.638.4505.2441.0997.5078.1426.7709.1252.2631-.0173.5189-.0944.7478-.2254.2289-.1309.425-.3123.5733-.5303.468-.8 1.6-1.2 2.4-1.764.426.45.696 1 1.096 1.108.4606.0516.8847.2751 1.1877.6259.3029.3507.4623.8029.4463 1.2661.082 1.468.438 2.896-1 3.71-1.25.706-1.6 1.262-1.158 3.2.6 2.666-3.286.902-3.286.902-.32.026-.18-2.332-.18-2.332.0387-.1254.052-.2572.0389-.3877-.013-.1306-.0521-.2571-.1149-.3723-.544-.68-.338-.436-.966-1.21-.4086-.7684-.7159-1.5866-.914-2.434-.092-.2-1.264-.334-1.534-.76-.384-.61-.202-1.5.16-1.54zm-.528-.914c-.0508-.6467-.0682-1.2956-.052-1.944.8039.2499 1.6571.2972 2.4837.1377s1.601-.5207 2.2543-1.0517c.3338-.3033.7616-.4829 1.2119-.5087.4503-.0259.8958.1036 1.2621.3667.968.6 2.188-.1 2.91 0 .862.12.334 2.164.284 2.124-.7814-.4678-1.7164-.6066-2.6-.386-.4203.1903-.8761.2899-1.3375.2924-.4614.0024-.9182-.0925-1.3405-.2784-.118-.066-4.936 1.326-5.076 1.248zm14.08 23.26-2.4-.22c-.0569-.006-.1118-.0247-.1606-.0548-.0487-.0301-.0901-.0707-.121-.1189s-.0506-.1027-.0576-.1596c-.007-.0568-.0011-.1145.0172-.1687l.644-1.79c.0222-.0608.0595-.1149.1086-.1571.049-.0423.1081-.0712.1715-.084.0635-.0129.1291-.0092.1907.0106s.1171.0551.1612.1025l1.752 2c.0528.0558.0875.1263.0994.2022.0119.0758.0006.1536-.0326.2229-.0331.0693-.0865.1269-.153.1653-.0666.0383-.1432.0556-.2198.0496zm1.34-2.1c-1.134-1.108-2.452-1.622-2.292-3.618-.1635-1.5222-.5905-3.0043-1.262-4.38-.18-.58-.348-1.158-.6-2 4.782 2.044 4.162 4.672 4.162 9.998zm.528-27.252c-.042 2.014-.348 15.456-.554 18.25-4.102-4.252-7.814-3.31-7.754-4.262.0362-.3213.1935-.6167.44-.826.3479-.2734.7141-.5227 1.096-.746.2565-.149.4807-.3476.6596-.5842s.3089-.5065.3824-.7938c.1243-1.0353.0777-2.0839-.138-3.104-.184-.914.24-.6.49-1.468.3408-1.2237.3746-2.5126.0983-3.7524-.2763-1.2399-.8541-2.3924-1.6823-3.3556-.632-.722-1.43.4-1.752-.2-.1122-.2654-.2953-.4948-.5292-.6631-.2338-.1682-.5095-.2689-.7968-.2909-1.83.148-1.444.654-2.318.838-.722.152-1.446-.48-2.022-.052-.686.51-.614 1.754-1.018 2.434-1.434 2.42-.964 2.75-.978 3.6.0086.6146.1491 1.2203.412 1.776.134.298-.984 1.588 1.068 2.68.54.286.494 1.49.8 2 .4202.5498.8765 1.0709 1.366 1.56.422.568-.038 1.312-.142 1.674-3.4021.5331-6.6017 1.9596-9.272 4.134-.246.218-.386-23.376-.386-23.376-.0016-.0539.0088-.1074.0303-.1568s.0537-.0935.0942-.129.0883-.0617.1401-.0766.1062-.0182.1594-.0096c22.038 3.382 22.208.348 22.114 4.9z" fill="#191919"/><path d="m144.696 102.454c-1.366 1.66-2.884 3.18-4.378 4.738-1.2 1.25-2.4.22-1.456-1.12 1.541-2.052 3.219-3.996 5.022-5.82.644-.902 4.392-3.052.812 2.202z" fill="#191919"/><path d="m147.232 121.694c-1.539-.071-3.069-.278-4.572-.618-.888-.246-1.956-2.036.246-2.036 1.648.028 3.29.205 4.906.528 4.508.258 3.36 2.49-.58 2.126z" fill="#191919"/><path d="m147.04 112.318c-1.904.322-3.772.831-5.576 1.52-.76.4-1.67-.51-.85-1.4.223-.279.517-.493.85-.62 1.868-.456 3.788-.714 5.64-1.262 3.286-.956 2.46 1.53-.064 1.762z" fill="#191919"/><path d="m136.904 297.062c-.368 9.928-7.746 13.714-12.892 9.6-2.575-2.366-4.111-5.653-4.272-9.146-.162-3.494 1.064-6.909 3.41-9.502 5.424-5.198 13.384-.5 13.754 9.048zm-10.78.014c-.102-.04-.218-.078-.322-.116.116-.528.168-1.496.336-1.52 1.286-.214 2.592-.266 3.89-.156 1.158.13.902 1.2.81 2-.27 2.358 1.914 1.58 3.078 1.518 1.056-.054 1.358-.618 1.07-1.558-.672-2.2-1.828-4.024-4.29-4.326-1.723-.213-3.465-.221-5.19-.026-.93.128-1.789.571-2.433 1.255-.645.684-1.035 1.568-1.107 2.505-.128.658.102 1.944.424 2.034.986.248 2.019.24 3-.024.348-.062.49-1.02.734-1.586z" fill="#38a1ff"/><path d="m67.7844 316.162c-3.6913-.169-7.1743-1.758-9.7202-4.436s-3.9574-6.237-3.939-9.932c.0183-3.695 1.4651-7.24 4.0374-9.893 2.5724-2.652 6.071-4.207 9.7638-4.339 1.854.063 3.6774.491 5.365 1.262 1.6876.77 3.206 1.867 4.4678 3.227s2.2419 2.956 2.884 4.697c.6421 1.74.9334 3.59.8572 5.444.0272 3.669-1.4011 7.2-3.9719 9.819-2.5709 2.618-6.0748 4.111-9.7441 4.151zm11.6-14.09c-.0672-2.247-.7941-4.426-2.0903-6.263s-3.1043-3.252-5.1991-4.07c-2.0947-.817-4.3836-.999-6.5815-.525-2.1978.475-4.2075 1.585-5.7787 3.194-1.5711 1.608-2.6343 3.644-3.057 5.852s-.1864 4.492.6797 6.567c.866 2.075 2.3234 3.85 4.1907 5.102 1.8672 1.253 4.0617 1.929 6.3102 1.943 1.5314-.017 3.0445-.336 4.4525-.939 1.408-.602 2.6835-1.477 3.7532-2.573 1.0698-1.096 1.913-2.392 2.4814-3.814.5683-1.422.8507-2.943.8309-4.474z" fill="#191919"/><path d="m112.846 299.212c-.376 10.714-10.624 15.666-17.2959 9.466-2.5019-2.487-3.9983-5.81-4.2024-9.332-.204-3.521.8985-6.995 3.0964-9.754 1.0007-1.24 2.2886-2.217 3.752-2.846 1.4634-.63 3.0579-.893 4.6469-.768 1.588.126 3.121.637 4.468 1.489 1.346.852 2.464 2.019 3.257 3.401 1.579 2.49 2.372 5.397 2.278 8.344zm-1.622.104c.044-10.2-9.17-14.4-14.8739-8.732-1.918 2.105-3.0192 4.827-3.1043 7.674s.8515 5.63 2.6403 7.846c.7665 1.006 1.7585 1.818 2.8963 2.371s2.3896.831 3.6546.811c1.264-.019 2.507-.335 3.627-.923 1.12-.587 2.087-1.43 2.822-2.459 1.469-1.887 2.289-4.197 2.338-6.588z" fill="#191919"/><path d="m354.63 82.1999c-.042 2.098-.314 4.2-.528 6.296-.08.786-.348 1.426-1.364 1.56-18.618 2.428-16.964 2.774-21.676 1.93-.309-.1047-.589-.2838-.814-.5216-.224-.2378-.387-.5271-.474-.8424-2.142-21-1.64-14.746-.67-33.832-.023-.5208.154-1.0309.494-1.426s.818-.6455 1.336-.7c6.414-1.23 12.8-2.6 19.24-3.644 4.03-.648 4.626-.052 4.726 4 .12 4.792-.186 22.912-.27 27.18zm-3.83-9.098c.296-6.412.58-12.762.876-19.2-6.6.98-13.046 1.932-19.716 2.912v19.446c.604-.5313 1.264-.9935 1.97-1.378 2.028-.84 1.816.826.94 1.442-1.97 1.386-3.386 2.744-2.86 5.6.252 2.5212.283 5.0596.09 7.586l18.894-2.744c0-3.516-.05-6.736.026-9.954.05-.4801-.055-.9635-.301-1.3788s-.62-.7404-1.065-.9272c-1.912-1.034-2-1.776 1.146-1.404z" fill="#191919"/><path d="m305.898 302.33c.102-2.524.945-4.962 2.424-7.01 1.479-2.047 3.529-3.613 5.893-4.503 2.365-.889 4.939-1.062 7.401-.496 2.462.565 4.702 1.843 6.442 3.675 1.74 1.831 2.901 4.134 3.339 6.622s.133 5.05-.876 7.365c-1.01 2.316-2.679 4.282-4.8 5.654s-4.599 2.089-7.125 2.061c-1.712-.043-3.399-.422-4.964-1.117s-2.977-1.692-4.157-2.934c-1.179-1.242-2.102-2.704-2.716-4.302-.614-1.599-.906-3.303-.861-5.015zm22.228.36c-.404-1.314-1.171-2.487-2.212-3.385-1.041-.897-2.315-1.483-3.674-1.689-2.534-.374-5.089-.585-7.65-.632-1.145-.041-2.276.266-3.244.88s-1.727 1.506-2.178 2.56c-1.326 2.8-.254 3.076 2.448 3.438 2.576.346 2.736.244 2.704-2.37-.016-1.3.554-1.878 1.714-1.764 1.712.17 3.412.472 5.112.812.89.178 1.018.824.812 1.674-.6 2.474-.428 2.73 2.086 2.948 3.198.28 5.208.32 4.082-2.472z" fill="#38a1ff"/><g fill="#191919"><path d="m279.304 289.464c1.092-.731 2.318-1.238 3.607-1.491 1.29-.254 2.616-.25 3.904.012 1.287.263 2.51.778 3.597 1.515 1.087.738 2.017 1.684 2.736 2.784 1.803 2.628 2.628 5.804 2.334 8.978-.294 3.173-1.689 6.144-3.944 8.396-1.111 1.14-2.479 1.997-3.99 2.499-1.511.501-3.121.633-4.693.383-1.573-.25-3.062-.874-4.343-1.819s-2.317-2.184-3.02-3.613c-1.666-2.89-2.198-6.296-1.494-9.557.705-3.26 2.596-6.143 5.306-8.087zm6.824.49c-1.552-.324-3.164-.185-4.638.399-1.474.583-2.744 1.587-3.654 2.885-1.589 1.952-2.473 4.383-2.509 6.9s.777 4.973 2.309 6.97c.661.924 1.505 1.701 2.48 2.284s2.059.957 3.186 1.101c1.126.144 2.271.054 3.361-.265s2.102-.86 2.973-1.588c6.488-5.312 4.764-16.952-3.508-18.686z"/><path d="m263.888 291.614c1.377 2.487 1.935 5.345 1.597 8.168-.339 2.823-1.558 5.467-3.485 7.558-4.6 4.56-11.692 2.742-13.922-3.646-4.652-13.306 9.352-22.588 15.81-12.08zm-1.044 1.764c-.392-1.056-1.041-1.998-1.89-2.739s-1.869-1.257-2.969-1.503c-1.099-.246-2.243-.213-3.326.097-1.084.309-2.072.884-2.877 1.673-1.75 1.791-2.848 4.118-3.117 6.607-.269 2.49.307 4.998 1.635 7.121 5.95 8.49 17.312-.474 12.544-11.256z"/><path d="m280.836 152.912c.129 3.191-.091 6.387-.658 9.53-.846 5.916-4.964 8.588-.024 10.496 1.816.702 2.562 2.442.36 2.756-.808.051-1.617-.079-2.368-.381s-1.425-.768-1.972-1.365c-.547-.596-.954-1.308-1.19-2.082-.237-.774-.297-1.592-.176-2.392.113-.768.361-1.51.734-2.19 2.2-3.6 1.846-7.654 3.182-17.026.094-.658 1.46-5.73 2.112 2.654z"/><path d="m292.504 178.27c-3.614 6.546-14.316 4.506-12.8 1.674.522-.976 6.868 3.718 12.2-4.572.6-.76 3.112-3.296.6 2.898z"/><path d="m297.59 147.412c.078.224.065.47-.034.686-.1.215-.279.384-.5.47-.221.087-.467.085-.687-.006-.219-.091-.395-.263-.491-.48-1.936-1.732-3.932-4.658-6.646-3.336-1.646.8-2.42-.85-.746-1.66 4.114-1.998 8.242 1.406 9.104 4.326z"/><path d="m291.228 152.268c.712.099 1.368.438 1.862.96s.796 1.196.856 1.912c.008.726-.269 1.427-.773 1.951-.503.524-1.192.829-1.919.849-3.148-.034-3.268-5.61-.026-5.672z"/><path d="m274.344 144.102c-1.857.152-3.585 1.011-4.828 2.4-.98 2.112-1.788.812-1.43-.914.556-2.678 5.112-4.354 7.65-3.284 1.664.176 2.884 2.378-1.392 1.798z"/><path d="m273.8 155.552c.047.315.026.636-.061.943-.088.306-.24.59-.446.833-.207.242-.463.438-.751.573s-.602.207-.921.211-.634-.061-.926-.189c-.291-.129-.552-.318-.764-.556-.212-.237-.371-.518-.465-.822-.095-.304-.124-.625-.084-.941.004-3.962 4.436-3.604 4.418-.052z"/><path d="m102.326 175.938c-1.673.296-3.3971.084-4.949-.609-1.5518-.693-2.8603-1.835-3.7566-3.279-1.589-2.102-2.6532-4.552-3.104-7.148-.78-5.2 4.2-2.218 10.0316-.85 2.548.6 5.126 1.054 7.714 1.468 2.254.36 3.056 1.388 2.242 3.516-.805 1.658-1.949 3.128-3.358 4.317-1.408 1.189-3.05 2.069-4.82 2.585zm-8.6676-10.456c.2267 1.569.9034 3.038 1.948 4.231 1.0447 1.192 2.4125 2.056 3.938 2.487 1.2276.138 2.4686-.075 3.5806-.612 1.112-.538 2.049-1.38 2.703-2.428-4.028-1.218-8.1256-2.456-12.1696-3.678z"/><path d="m109.872 159.376c-2.228 1.438-4.102.666-2.2-1.892.748-1.095 1.22-2.354 1.374-3.671.155-1.316-.012-2.651-.486-3.889-2.784-9.4-6.2-19.4-6.374-20.568-.064-.412.166-1.146.45-1.262.236-.05.481-.039.711.033s.438.203.603.379c2.979 6.667 5.583 13.495 7.8 20.452.806 1.717 1.058 3.642.721 5.508-.336 1.867-1.245 3.582-2.599 4.91z"/><path d="m118.952 130.258c.27 2.422-1.168 1.74-1.752.966-.326-.432-4.314-3.348-6.376-2.498-1.428.734-2.872-.694-1.442-2.318 3.268-3.71 9.234.85 9.57 3.85z"/><path d="m93.4685 144.45c-1.988 0-2.988-2.13-2.988-3.6 0-1.646.552-4.024 2.238-4.024 4.57.008 5.082 7.624.75 7.624z"/><path d="m114.546 143.252c-3.534-.066-3.686-6.552-.308-6.916 3.65-.392 4.016 6.988.308 6.916z"/><path d="m93.7604 128.366c-1.2163.028-2.4051.367-3.4533.984-1.0481.618-1.9208 1.494-2.5347 2.544-1.094 2.086-1.8-.258-1.7-.528.1267-1.224.6655-2.368 1.528-3.246.9132-.916 2.0602-1.563 3.316-1.872 1.2557-.309 2.5722-.267 3.806.12 2.258.49 2.206 1.984-.962 1.998z"/><path d="m70.2581 306.218c-2.692 0-5.4.018-8.128 0-.3492.033-.7014-.009-1.0336-.121-.3321-.113-.6369-.294-.8945-.532-.2575-.238-.462-.528-.6002-.85-.1381-.322-.2069-.67-.2017-1.021-.118-1.428-.128-2.884-.128-4.314-.0272-.312.0115-.627.1135-.923.102-.297.265-.568.4786-.798.2136-.229.4729-.411.7612-.534.2884-.123.5993-.184.9127-.179 2.822-.11 5.642-.038 8.72-.038z"/><path d="m76.0782 305.292c-.952-.516-1.868-1.094-2.846-1.508-.4421-.243-.816-.594-1.0876-1.019-.2715-.426-.432-.913-.4666-1.416-.0346-.504.0577-1.008.2684-1.466.2108-.459.5332-.857.9378-1.159 1-.586 1.932-1.288 3.2-2.152z"/><path d="m103.948 303.514h1.622v2.086c-1.79.078-3.566.156-5.434.246v-1.97l2.176-.246c-.476-.72-.786-1.224-1.12-1.726-2.8857-4.328-2.3997-3-1.5997-4.752.374.322.9657.568 1.0957.966.344 1.058.81 1.984 2.022 2 1.288.026 1.6-1.02 1.918-2.048.128-.4.6-.682.928-1 .768 1.414 1.346.474-.94 4.506-.308.542-.722 1.03-1.082 1.546.13.134.266.264.414.392z"/><path d="m104.102 294.732c.079.969.062 1.944-.052 2.91-.116.566-.772 1.03-1.172 1.532-.528-.45-1.462-.864-1.518-1.364-.241-2.138-.332-4.29-.272-6.44.014-.464 1-1.314 1.378-1.236.337.1.645.278.9.52.255.241.45.539.568.87.14 1.061.162 2.134.066 3.2z"/></g><path d="m336.96 74.828c-1.358-.838-.102-4.892.116-8.666.326-5.626 7.136-6.6 8.358-2.68.886 2.83 1.74 5.67 2.486 8.54.064.3668.054.7427-.03 1.1055s-.239.705-.458 1.0065c-.593.9155-1.435 1.6428-2.427 2.0966s-2.092.6152-3.173.4654c-1.701-.3997-3.34-1.0281-4.872-1.868zm4.84-10.628c-2.168-.152-2.506 1.978-2.164 4.172.2 1.25.8 2.294 2.19 2.422 1 .09 1.98-1.276 2.112-2.68.176-1.984-.138-3.77-2.138-3.914zm-.566 10.264c-1.2-1.134-2.152-2.048-3.258-3.104-.204 1.988.942 3.108 3.248 3.108zm5.06-.876c-.2-.218-.43-.45-.636-.67-.6.6-1.186 1.186-1.764 1.778.166.18.334.374.514.554.608-.55 1.246-1.104 1.876-1.65z" fill="#38a1ff"/><path d="m286.876 307.352c-1.958-.168-3.774-.322-5.6-.49v-1.956h2.266c-.438-.774-.718-1.29-1-1.816-2.314-4.268-1.858-3.034-1.056-4.636.334.36.862.67 1 1.094.588 1.932 1.742 2.646 3.026 1.662.4-.308.538-.956.888-1.366.363-.352.76-.667 1.186-.94.612 1.748 1.49.542-2.938 6.052 1.058.168 1.61.258 2.358.374-.052.618-.092 1.25-.13 2.022z" fill="#191919"/><path d="m286.038 299.032c-.076.966-.642 1.824-1.634 1.572-.339-.155-.635-.391-.862-.688-.227-.296-.378-.644-.44-1.012-.071-1.892.046-3.786.348-5.654.131-.349.345-.661.624-.907.279-.247.614-.422.976-.509.964-.12 1.342.734 1.274 1.686-.362 5.064-.204 4.492-.286 5.512z" fill="#191919"/><path d="m257.744 294.4c-.18 2.64-.334 4.972-.49 7.4-1.88-.14-3.618-.258-5.344-.4-.234 0-.465-.049-.679-.144s-.405-.234-.562-.407c-.156-.174-.275-.379-.347-.601-.073-.222-.098-.457-.074-.69-.106-5.992-.03-5.158 7.496-5.158z" fill="#191919"/><path d="m261.4 301.634c-1.186-.94-3.14-1.042-3.054-3.064.082-1.906.31-2.19 3.452-3.684-.138 2.314-.28 4.534-.398 6.748z" fill="#191919"/><path d="m341.224 74.468c-2.306 0-3.452-1.12-3.258-3.104 1.106 1.056 2.06 1.958 3.258 3.104z" fill="#191919"/><path d="m346.284 73.5999c-.63.554-1.254 1.108-1.886 1.662-.168-.18-.334-.374-.514-.554.6-.6 1.184-1.184 1.764-1.778.218.212.418.43.636.67z" fill="#191919"/><path d="m115.654 95.91c-.749-.6743-1.545-1.2939-2.382-1.854-4.696-2.7964-10.247-3.7915-15.6219-2.8-28.638 5-43.822 38.482-40.748 65.772.63 5.6 2.528-1.714 3.092-9.17.4228-8.598 2.4354-17.042 5.936-24.906 4.764-10.072 10.83-19.064 21.146-24.316 9.124-4.648 18.4679-6.936 28.5779-2.726zm22.254 79.578c-.36-4.862-2.2-3.94-2.658-2.736-.69 1.83-1.214 3.708-1.83 5.562-3.666 11.05-12.816 27.534-22.524 35.584-6.11 5.066-12.3419 8.354-13.7219 10.348.586.324.888 1.062 3.3999.252 7.066-2.357 13.369-6.571 18.248-12.2 6.574-7.53 11.912-16.054 15.816-25.256 1.923-3.566 3.039-7.51 3.27-11.554zm-32.108 56.666c.038.116.058.226.096.354 3.558.084 7.062-.884 10.072-2.782 9.737-5.771 17.84-13.932 23.542-23.71.375-.832.469-1.762.27-2.652-.084-.302-.238-.58-.451-.811-.212-.23-.477-.407-.771-.515-3.484-.8-2.658 8.534-25.256 25-2.442 1.792-5.002 3.416-7.502 5.116zm28.452-101.922c-1.496.374.2-1.694-2.698 21.38-.6 4.688-1.742 9.298-2.512 13.972-.446 2.706-1.674 5.294-1.2 8.166.22 1.326.708 1.288 1.61.734.733-.528 1.353-1.196 1.825-1.966.472-.769.786-1.626.923-2.518 4.02-15.782 3.618-21.342 3.012-36.382-.182-1.163-.505-2.3-.96-3.386zm-35.6879 76.616c0-.18 0-.374.014-.554-3.8892-1.231-7.6968-2.707-11.4-4.418-6.5317-3.28-11.8053-8.615-15.01-15.184-.822-1.752-1.248-3.694-2.042-5.474-.852-1.906-2.042-2.114-2.73.2-.3836 1.719-.1418 3.518.682 5.074 2.9761 7.065 8.1525 12.982 14.76 16.87 6.472 3.962 11.276 4.376 15.726 3.486zm-27.4 22.704c-.8363-1.038-1.7817-1.984-2.82-2.82-4.7929-2.826-10.185-4.481-15.738-4.83-1.7364-.136-3.4673.323-4.908 1.302-2.4 1.46-.6 2.888.838 2.782 10.74-.804 21.032 6.29 22.636 3.566z" fill="#191919"/><path d="m134.212 113.568c3.386 9.116 2.614 14.612 3.272 16.252 3.152 7.862 3.642 21.076 3.316 28.78-.416 9.646 3.6 6.242 4.764 21.082.451 5.803-.125 11.64-1.7 17.244-.382 2.424-.45 4.887-.2 7.328 0 .974 1.578 1.868 6.144 6.788 1.66 1.8 2.548 3 5.292 6.162l.31 4.212c-.39.596-.748 1.213-1.07 1.848-1.652 4.167-4.086 7.979-7.172 11.23-3.925 3.787-8.333 7.039-13.11 9.672-12.874 7.306-23.716 4.158-27.11 4.83-6.26 1.238-15.282 5.586-27.212 1.906-12.624-3.896-16.862-12.734-21.108-16.1-4.124-3.268-9.144-3.952-14.258-4.018-2.666-.6-5.35-1.216-8.016-1.834 3.988-5.766 7.878-2.988 10.812-11.134 4.4-12.2-.972-16.072-3.284-65.874-.6741-7.703-.2668-15.462 1.21-23.052 3.544-15.03 11.152-27.33 24.61-35.482 22.12-13.398 55.22-4.852 64.51 20.16zm-9.89 34.656c-.914-9.466-1.148-16.484-5.384-21.636-4.053-5.187-8.651-9.923-13.716-14.128-1.762-1.4-5.2.016-7.186 1.056-8.0518 3.899-14.926 9.863-19.922 17.284-2.3659 3.134-3.9553 6.783-4.638 10.65-.4764 3.775-.6443 7.582-.502 11.384 1.05 16.512 9.53 25.34 23.028 33.896.9675.589 2.12.796 3.232.58 2.168-.459 4.245-1.277 6.144-2.42 13.284-9.018 18.822-20.516 18.944-36.666zm-8.668-52.314c-.749-.6743-1.545-1.2939-2.382-1.854-4.696-2.7964-10.247-3.7915-15.622-2.8-28.638 5-43.822 38.482-40.748 65.772.63 5.6 2.528-1.714 3.092-9.17.4228-8.598 2.4354-17.042 5.936-24.906 4.764-10.072 10.83-19.064 21.146-24.316 9.124-4.648 18.468-6.936 28.578-2.726zm22.254 79.578c-.36-4.862-2.2-3.94-2.658-2.736-.69 1.83-1.214 3.708-1.83 5.562-3.666 11.05-12.816 27.534-22.524 35.584-6.11 5.066-12.342 8.354-13.722 10.348.586.324.888 1.062 3.4.252 7.066-2.357 13.369-6.571 18.248-12.2 6.574-7.53 11.912-16.054 15.816-25.256 1.922-3.566 3.039-7.51 3.27-11.554zm-32.108 56.666c.038.116.058.226.096.354 3.558.084 7.062-.884 10.072-2.782 9.737-5.771 17.84-13.932 23.542-23.71.375-.832.469-1.762.27-2.652-.084-.302-.238-.58-.451-.811-.212-.23-.477-.407-.771-.515-3.484-.8-2.658 8.534-25.256 25-2.442 1.792-5.002 3.416-7.502 5.116zm28.452-101.922c-1.496.374.2-1.694-2.698 21.38-.6 4.688-1.742 9.298-2.512 13.972-.446 2.706-1.674 5.294-1.2 8.166.22 1.326.708 1.288 1.61.734.733-.528 1.353-1.196 1.825-1.966.472-.769.786-1.626.923-2.518 4.02-15.782 3.618-21.342 3.012-36.382-.182-1.163-.505-2.3-.96-3.386zm-35.688 76.616c0-.18 0-.374.014-.554-3.8892-1.231-7.6968-2.707-11.4-4.418-6.5317-3.28-11.8053-8.615-15.01-15.184-.822-1.752-1.248-3.694-2.042-5.474-.852-1.906-2.042-2.114-2.73.2-.3836 1.719-.1418 3.518.682 5.074 2.9761 7.065 8.1525 12.982 14.76 16.87 6.472 3.962 11.276 4.376 15.726 3.486zm-27.4 22.704c-.8363-1.038-1.7817-1.984-2.82-2.82-4.7928-2.826-10.185-4.481-15.738-4.83-1.7364-.136-3.4673.323-4.908 1.302-2.4 1.46-.6 2.888.838 2.782 10.74-.804 21.032 6.29 22.636 3.566z" fill="orange"/></svg>