<svg height="128" viewBox="0 0 128 128" width="128" xmlns="http://www.w3.org/2000/svg"><path d="m93.187 36.467h-30.187a7.546 7.546 0 0 0 -7.547 7.547 7.546 7.546 0 0 1 -7.547 7.546 7.546 7.546 0 0 1 -7.547-7.546 7.547 7.547 0 0 1 -15.093 0v16.471a25 25 0 0 0 7.322 17.678l7.771 7.771v35.759h45.281v-35.759l7.772-7.771a25 25 0 0 0 7.322-17.678v-16.471a7.546 7.546 0 0 0 -7.547-7.547z" fill="#ffb65f"/><g fill="#f7aa54"><rect height="41.253" rx="7.547" width="15.094" x="40.36" y="10.307"/><path d="m40.359 44.014a7.545 7.545 0 0 1 -7.546 7.546 7.546 7.546 0 0 1 -7.547-7.546v-22.16a7.547 7.547 0 0 1 7.547-7.547 7.546 7.546 0 0 1 7.546 7.547z"/><path d="m85.64 36.467v-18.613a7.546 7.546 0 0 0 -7.546-7.547 7.547 7.547 0 0 0 -7.547 7.547v18.613z"/><path d="m63 36.467h7.547v-22.613a7.547 7.547 0 0 0 -15.094 0v30.16a7.546 7.546 0 0 1 7.547-7.547z"/></g><path d="m19.967 97.565a1.75 1.75 0 0 0 -1.75 1.75v3.6a1.75 1.75 0 0 0 3.5 0v-3.6a1.75 1.75 0 0 0 -1.75-1.75z"/><path d="m19.967 108.565a1.75 1.75 0 0 0 -1.75 1.75v3.6a1.75 1.75 0 0 0 3.5 0v-3.6a1.75 1.75 0 0 0 -1.75-1.75z"/><path d="m16.266 104.863h-3.6a1.75 1.75 0 0 0 0 3.5h3.6a1.75 1.75 0 0 0 0-3.5z"/><path d="m27.266 104.863h-3.6a1.75 1.75 0 0 0 0 3.5h3.6a1.75 1.75 0 0 0 0-3.5z"/><path d="m108.033 12.338a1.75 1.75 0 0 0 -1.75 1.75v3.6a1.75 1.75 0 1 0 3.5 0v-3.6a1.75 1.75 0 0 0 -1.75-1.75z"/><path d="m108.033 23.338a1.75 1.75 0 0 0 -1.75 1.75v3.6a1.75 1.75 0 0 0 3.5 0v-3.6a1.75 1.75 0 0 0 -1.75-1.75z"/><path d="m104.332 19.637h-3.6a1.75 1.75 0 0 0 0 3.5h3.6a1.75 1.75 0 0 0 0-3.5z"/><path d="m115.332 19.637h-3.6a1.75 1.75 0 1 0 0 3.5h3.6a1.75 1.75 0 0 0 0-3.5z"/><path d="m93.188 34.717h-5.8v-16.864a9.281 9.281 0 0 0 -15.549-6.86 9.292 9.292 0 0 0 -17.684 0 9.274 9.274 0 0 0 -15.094 4 9.281 9.281 0 0 0 -15.548 6.86v9.521a1.75 1.75 0 0 0 3.5 0v-9.521a5.8 5.8 0 0 1 11.593 0v22.161a5.8 5.8 0 0 1 -11.593 0v-3.277a1.75 1.75 0 0 0 -3.5 0v19.748a26.568 26.568 0 0 0 7.838 18.915l7.258 7.259v35.034a1.75 1.75 0 0 0 3.5 0v-35.758a1.751 1.751 0 0 0 -.509-1.235l-7.771-7.771a23.1 23.1 0 0 1 -6.81-16.441v-9.218a9.263 9.263 0 0 0 13.343-1.848 9.269 9.269 0 0 0 15.094 0 9.283 9.283 0 0 0 7.544 3.888h10.516a23.386 23.386 0 0 0 -12.2 14.44 1.75 1.75 0 1 0 3.358.986c1.725-5.876 5.746-10.25 11.952-13a30.454 30.454 0 0 1 9.124-2.428 1.75 1.75 0 0 0 -.114-3.5h-22.636a5.8 5.8 0 1 1 0-11.593h30.188a5.8 5.8 0 0 1 5.8 5.8v16.47a23.1 23.1 0 0 1 -6.81 16.441l-.925.925a1.75 1.75 0 1 0 2.475 2.474l.925-.925a26.568 26.568 0 0 0 7.835-18.915v-16.471a9.307 9.307 0 0 0 -9.3-9.297zm-15.094-22.66a5.8 5.8 0 0 1 5.8 5.8v16.86h-11.594v-16.864a5.8 5.8 0 0 1 5.794-5.796zm-30.188 37.753a5.8 5.8 0 0 1 -5.8-5.8v-26.157a5.8 5.8 0 0 1 11.594 0v26.161a5.8 5.8 0 0 1 -5.794 5.796zm9.3-13.052v-22.9a5.8 5.8 0 0 1 11.594 0v20.859h-5.8a9.245 9.245 0 0 0 -5.8 2.041z"/><path d="m85.641 84.185a1.749 1.749 0 0 0 -1.75 1.75v4.49a1.75 1.75 0 0 0 3.5 0v-4.49a1.75 1.75 0 0 0 -1.75-1.75z"/><path d="m85.641 97.913a1.749 1.749 0 0 0 -1.75 1.75v22.03a1.75 1.75 0 0 0 3.5 0v-22.03a1.75 1.75 0 0 0 -1.75-1.75z"/><path d="m59 87.185a1.75 1.75 0 0 0 -1.75 1.75v9.2a1.75 1.75 0 0 0 3.5 0v-9.2a1.749 1.749 0 0 0 -1.75-1.75z"/><path d="m67 87.185a1.749 1.749 0 0 0 -1.75 1.75v9.2a1.75 1.75 0 0 0 3.5 0v-9.2a1.75 1.75 0 0 0 -1.75-1.75z"/></svg>