<?xml version="1.0" standalone="no"?>
<!DOCTYPE svg PUBLIC "-//W3C//DTD SVG 20010904//EN" "http://www.w3.org/TR/2001/REC-SVG-20010904/DTD/svg10.dtd">
<svg version="1.0" xmlns="http://www.w3.org/2000/svg" width="1024.000000pt" height="1024.000000pt"
    viewBox="0 0 1024.000000 1024.000000" preserveAspectRatio="xMidYMid meet">

    <g transform="translate(0.000000,1024.000000) scale(0.100000,-0.100000)" fill="#112A46" stroke="none">
        <path d="M4705 10224 c-979 -81 -1909 -439 -2681 -1030 -67 -51 -171 -134
-230 -185 -148 -124 -458 -437 -579 -584 -55 -67 -113 -136 -128 -155 -46 -56
-209 -286 -279 -395 -447 -693 -728 -1538 -788 -2370 -13 -180 -13 -579 0
-765 26 -368 111 -811 222 -1159 447 -1399 1460 -2533 2798 -3133 848 -380
1816 -520 2757 -398 1433 185 2736 991 3565 2205 567 831 878 1846 878 2865 0
803 -179 1566 -533 2277 -469 942 -1210 1713 -2132 2218 -539 295 -1111 485
-1728 575 -333 48 -801 62 -1142 34z m465 -319 c57 -34 89 -90 106 -185 23
-130 6 -249 -47 -326 -43 -64 -93 -79 -253 -79 l-128 0 -1 105 c-1 58 0 197 1
308 l2 204 143 -4 c121 -2 147 -6 177 -23z m386 2 c2 -2 -2 -93 -10 -203 -8
-109 -18 -245 -22 -302 l-7 -103 -71 7 c-39 4 -73 8 -74 10 -4 3 22 401 35
538 l6 69 70 -6 c38 -3 71 -8 73 -10z m-871 -34 c3 -21 8 -50 10 -65 5 -31 10
-29 -145 -49 -46 -6 -88 -13 -92 -15 -6 -4 -3 -47 7 -80 2 -8 34 -7 110 3 59
8 110 11 113 8 3 -3 8 -32 10 -64 l4 -58 -108 -12 c-60 -7 -110 -14 -112 -15
-1 -2 0 -29 4 -60 l7 -56 51 5 c28 4 82 11 120 16 38 5 73 6 77 2 4 -4 10 -36
14 -70 5 -50 4 -63 -7 -63 -7 -1 -96 -11 -198 -24 -102 -13 -186 -23 -187 -22
-2 1 -52 405 -69 554 -4 28 -5 52 -3 53 24 3 367 47 376 48 7 1 15 -16 18 -36z
m1290 -14 c64 -16 118 -67 138 -129 25 -78 23 -88 -20 -95 -21 -3 -50 -8 -65
-10 -22 -4 -28 1 -37 27 -17 48 -40 68 -78 68 -65 0 -103 -68 -111 -202 -4
-83 -4 -87 21 -112 47 -47 105 -28 143 45 14 28 17 29 37 17 12 -8 39 -24 59
-37 l38 -22 -20 -38 c-46 -90 -103 -133 -180 -134 -117 -2 -205 56 -234 154
-30 100 -17 232 33 334 61 123 149 166 276 134z m-1859 -86 c9 -32 47 -163 84
-291 l67 -234 -26 -10 c-14 -6 -41 -11 -60 -12 -38 -1 -34 -12 -112 269 -19
66 -35 113 -37 103 -2 -9 4 -96 12 -194 21 -241 25 -218 -35 -233 -43 -11 -53
-11 -60 0 -5 8 -50 94 -100 192 -50 98 -92 177 -94 175 -2 -2 14 -64 36 -138
21 -74 48 -165 58 -202 l19 -67 -55 -16 c-31 -9 -59 -13 -63 -8 -4 4 -42 132
-85 283 -43 151 -79 280 -82 285 -4 13 178 68 188 57 3 -4 42 -75 85 -159 43
-83 80 -150 82 -148 3 3 -14 231 -24 307 l-6 47 79 25 c111 35 110 35 129 -31z
m2390 -44 l71 -21 6 -316 c4 -174 5 -317 3 -319 -2 -3 -36 5 -75 17 l-71 22 0
52 0 51 -77 23 c-85 24 -80 26 -115 -37 l-17 -30 -66 18 c-36 10 -68 21 -71
24 -6 6 327 537 336 537 3 0 37 -9 76 -21z m488 -180 c10 -9 6 -19 -103 -263
-39 -88 -70 -160 -69 -161 6 -3 94 -43 146 -65 28 -12 52 -28 52 -35 0 -20
-50 -125 -60 -125 -19 0 -335 148 -333 156 1 5 50 117 109 249 58 132 113 254
120 272 l14 32 57 -26 c32 -14 62 -29 67 -34z m-3683 -297 c77 -144 137 -267
134 -272 -11 -17 -106 -62 -121 -56 -7 3 -36 51 -64 106 l-51 101 -67 -36
c-37 -20 -69 -38 -71 -40 -2 -2 22 -52 54 -110 31 -59 55 -108 53 -109 -19
-18 -120 -66 -127 -62 -5 4 -44 73 -87 154 -94 180 -139 264 -171 320 -14 24
-23 49 -20 55 5 13 100 67 116 67 6 0 28 -35 51 -77 22 -43 44 -84 49 -91 6
-10 23 -5 74 23 37 20 67 39 67 42 0 3 -21 46 -47 96 -27 50 -43 92 -38 94 6
2 33 16 60 32 28 16 54 28 58 27 4 -1 71 -119 148 -264z m4421 -94 c37 -24 67
-47 64 -53 -2 -5 -25 -86 -51 -180 -72 -258 -116 -410 -121 -414 -5 -6 -68 29
-102 56 l-27 21 16 46 17 46 -72 45 -71 44 -37 -36 -36 -35 -61 36 c-34 21
-61 41 -61 46 0 5 12 18 28 30 15 12 59 50 97 85 223 200 340 304 344 305 2 0
35 -19 73 -42z m-5064 -25 c23 -13 42 -29 42 -36 -1 -7 -20 -33 -44 -60 l-43
-47 -34 14 c-31 13 -39 13 -66 0 -32 -16 -53 -50 -53 -87 0 -62 96 -198 157
-223 28 -12 38 -12 66 -1 60 26 91 84 64 122 -14 19 -16 19 -56 -8 l-41 -27
-35 52 c-19 29 -31 55 -27 59 26 22 172 119 179 119 13 0 143 -204 143 -224 0
-37 -59 -142 -97 -173 -134 -107 -253 -97 -370 31 -65 71 -101 135 -119 213
-27 116 8 194 117 264 84 53 139 57 217 12z m2628 -163 c539 -30 977 -137
1440 -349 1048 -481 1830 -1420 2118 -2541 255 -996 98 -2069 -430 -2940 -176
-291 -333 -490 -578 -735 -448 -447 -932 -747 -1526 -942 -401 -132 -750 -186
-1195 -186 -485 0 -880 67 -1315 225 -1108 401 -1979 1299 -2345 2418 -83 252
-139 512 -171 790 -24 201 -24 632 0 830 56 470 168 859 366 1268 189 391 425
719 744 1037 268 268 505 449 820 629 100 57 358 186 372 186 2 0 23 8 47 19
78 34 102 43 212 81 349 121 694 189 1060 209 83 4 162 9 176 10 15 0 107 -4
205 -9z m2805 -82 c58 -49 57 -24 8 -252 -16 -76 -28 -140 -26 -143 3 -2 26
22 53 54 27 32 73 86 102 120 l54 62 49 -42 c27 -23 49 -46 49 -50 0 -4 -69
-89 -152 -189 -84 -99 -170 -202 -192 -229 -42 -53 -41 -53 -106 3 -35 31 -42
42 -38 65 3 15 19 95 37 177 17 82 30 150 29 152 -2 1 -48 -51 -103 -117 -87
-104 -124 -137 -125 -111 0 4 -18 20 -40 36 -22 17 -40 34 -40 38 0 10 28 45
239 296 79 95 146 172 148 172 3 0 27 -19 54 -42z m-5899 -115 c40 -48 126
-150 191 -227 l118 -141 -51 -46 -51 -47 -47 18 c-26 10 -103 41 -171 69 -69
28 -126 50 -127 48 -1 -1 43 -55 99 -121 111 -131 110 -125 40 -183 l-41 -34
-197 233 -196 233 52 47 52 47 36 -15 c20 -8 70 -29 111 -46 41 -16 101 -41
134 -54 32 -14 60 -23 61 -22 2 2 -35 48 -82 103 -131 155 -126 140 -68 191
26 24 52 41 57 38 4 -3 41 -44 80 -91z m6420 -349 c104 -111 126 -158 108
-233 -16 -66 -56 -126 -134 -199 -74 -68 -139 -103 -207 -110 -73 -7 -121 22
-224 134 -73 79 -86 97 -74 108 34 30 289 267 353 328 39 37 76 67 82 65 7 -1
50 -43 96 -93z m-6743 -193 c116 -112 211 -209 211 -215 0 -14 -82 -96 -95
-96 -6 0 -107 94 -225 209 l-215 209 50 51 c27 28 52 50 56 49 4 -2 102 -95
218 -207z m-331 -76 l53 -25 -38 -54 c-38 -55 -38 -55 -81 -49 -33 4 -47 2
-62 -12 -26 -24 -26 -61 1 -75 17 -10 33 -4 102 37 74 43 88 48 143 48 73 0
128 -31 171 -97 24 -35 28 -52 28 -108 0 -58 -4 -72 -28 -104 -64 -84 -117
-118 -182 -118 -44 0 -127 30 -139 51 -4 6 9 35 30 64 21 28 39 53 40 55 1 2
14 -4 27 -13 59 -38 143 12 121 72 -18 52 -50 52 -157 -2 -85 -42 -101 -47
-143 -42 -78 8 -153 82 -161 161 -9 76 58 178 142 217 53 24 70 24 133 -6z
m7574 -357 c36 -51 86 -123 112 -160 l46 -67 -47 -35 c-46 -34 -73 -44 -73
-28 0 6 -111 166 -125 180 -6 6 -75 -38 -75 -49 0 -5 27 -47 61 -94 33 -47 58
-89 55 -93 -2 -4 -25 -22 -50 -40 l-45 -32 -66 94 -66 95 -44 -31 c-25 -18
-45 -36 -45 -42 0 -7 77 -119 132 -192 8 -11 -87 -85 -108 -84 -9 1 -209 285
-219 313 -5 10 34 43 135 113 77 55 186 132 243 171 56 40 105 73 108 73 3 0
35 -42 71 -92z m-7879 -388 c204 -104 263 -138 258 -150 -3 -8 -19 -39 -34
-67 l-27 -53 -93 48 c-136 71 -122 71 -162 -8 l-35 -70 110 -55 110 -55 -32
-65 c-18 -36 -35 -65 -39 -65 -9 0 -521 260 -532 270 -10 9 49 130 62 130 5 0
48 -21 96 -46 48 -25 88 -44 90 -42 7 8 65 128 65 136 0 4 -40 28 -90 52 -49
24 -90 48 -90 52 0 19 62 129 70 126 5 -2 128 -64 273 -138z m8114 -22 c63
-101 113 -209 113 -246 0 -60 -45 -138 -107 -187 -106 -83 -236 -133 -311
-119 -82 15 -106 38 -192 183 -68 116 -68 110 10 153 55 31 372 214 414 239
17 11 34 19 38 19 4 0 20 -19 35 -42z m-8590 -390 c32 -12 61 -24 65 -27 4 -4
-4 -36 -17 -73 -13 -37 -21 -69 -16 -72 4 -3 90 -37 192 -76 101 -40 194 -76
205 -80 l22 -9 -26 -65 c-14 -36 -31 -66 -36 -66 -6 0 -99 34 -206 75 -107 41
-199 75 -205 75 -12 0 -45 -62 -45 -83 0 -7 -6 -21 -13 -31 -12 -17 -17 -16
-81 10 -51 20 -66 31 -63 43 5 14 121 313 147 379 11 27 6 27 77 0z m8871
-212 c12 -35 22 -66 22 -69 0 -3 -85 -33 -189 -66 -103 -34 -200 -70 -215 -82
-33 -26 -36 -79 -6 -109 31 -31 79 -25 259 34 91 30 175 56 185 58 15 2 23 -8
37 -47 32 -91 41 -83 -163 -150 -223 -72 -305 -81 -378 -42 -59 31 -100 107
-107 199 -8 93 28 151 122 200 42 22 369 135 396 137 10 1 22 -20 37 -63z
m-8518 -386 c0 -6 -7 -40 -16 -76 l-17 -65 -51 2 -50 3 -17 -54 c-32 -109 -33
-103 16 -129 25 -13 45 -27 45 -30 0 -27 -40 -135 -49 -133 -10 2 -385 229
-494 299 -43 27 -42 22 -11 130 l14 53 168 3 c424 7 462 7 462 -3z m8611 -195
c54 -28 88 -65 109 -122 37 -100 23 -171 -48 -235 -74 -67 -77 -67 -112 2
l-31 61 31 25 c54 46 34 123 -37 140 -37 10 -158 -12 -211 -38 -48 -23 -66
-55 -57 -100 8 -33 34 -50 90 -58 44 -6 42 -1 30 -94 l-7 -49 -57 6 c-60 5
-124 32 -153 64 -44 48 -62 180 -35 246 18 42 87 103 145 129 113 49 271 59
343 23z m-8991 -304 l255 -36 -3 -40 c-6 -105 6 -94 -175 -159 -89 -33 -165
-62 -170 -66 -4 -4 63 -16 149 -28 86 -12 158 -23 159 -24 1 -2 -2 -33 -8 -70
-10 -64 -11 -67 -36 -63 -14 3 -98 14 -186 26 -88 12 -212 29 -275 38 l-115
17 3 40 c4 67 12 104 22 104 14 0 313 111 323 120 5 4 -34 13 -85 19 -51 6
-121 17 -155 22 -62 11 -63 12 -63 43 0 17 3 48 6 69 l7 37 46 -6 c25 -3 161
-23 301 -43z m8868 -297 c263 -52 293 -60 297 -79 2 -11 6 -47 9 -81 l5 -61
-297 -116 c-163 -63 -297 -115 -298 -114 -1 1 -5 36 -8 78 l-7 76 48 15 48 16
-4 73 c-2 41 -7 79 -12 85 -5 6 -28 14 -50 17 -22 3 -42 7 -44 9 -2 1 -7 36
-11 77 -6 69 -6 73 12 68 10 -3 151 -31 312 -63z m-8829 -305 c60 -13 124 -57
147 -101 19 -36 24 -138 11 -201 -10 -47 -53 -92 -115 -120 -42 -19 -72 -22
-262 -27 -118 -3 -218 -5 -222 -3 -5 3 -8 35 -8 72 0 63 2 69 23 75 12 3 102
6 200 6 221 0 247 9 247 90 0 19 -9 36 -26 49 -25 20 -39 21 -240 21 l-214 0
0 69 0 70 53 4 c122 8 360 6 406 -4z m9143 -309 c-3 -233 -8 -279 -30 -275 -9
2 -43 4 -75 4 l-59 1 4 73 3 72 -75 6 c-41 4 -133 7 -205 8 -184 2 -176 -2
-173 85 2 56 6 71 18 70 8 0 111 -4 228 -8 l212 -7 0 44 c0 25 3 59 6 76 l7
32 71 -3 71 -3 -3 -175z m-8968 -247 c2 -10 6 -43 8 -73 l3 -55 -119 -14 -118
-15 6 -75 c4 -42 9 -77 11 -80 3 -2 55 3 117 12 62 8 116 12 120 8 8 -7 28
-133 22 -140 -1 -2 -56 -9 -121 -17 -65 -7 -149 -18 -188 -23 -147 -20 -286
-34 -290 -29 -3 3 -10 33 -17 68 -13 75 -13 75 86 84 122 12 118 10 111 75
-12 108 0 99 -117 84 -56 -7 -103 -11 -105 -10 -4 5 -23 141 -19 144 1 2 110
16 242 32 131 17 253 32 269 34 71 10 94 7 99 -10z m8581 -103 c258 -31 339
-41 355 -46 16 -4 17 -30 4 -113 l-5 -33 -67 7 c-37 3 -171 20 -299 36 -128
16 -235 29 -239 29 -3 0 -4 15 -1 33 3 17 9 51 12 74 6 40 8 41 38 37 18 -2
109 -13 202 -24z m48 -276 c195 -50 280 -170 233 -328 -19 -62 -57 -111 -109
-139 -35 -18 -58 -22 -132 -22 -152 1 -276 52 -339 142 -78 111 -19 302 107
346 56 20 165 21 240 1z m-8594 -207 c55 -44 88 -94 106 -164 27 -103 14 -155
-56 -225 -120 -120 -371 -158 -474 -70 -75 63 -118 219 -80 291 17 33 94 103
106 96 4 -3 22 -31 38 -62 l31 -57 -22 -23 c-45 -48 -20 -124 46 -141 70 -18
216 27 261 80 29 35 31 57 9 105 -21 43 -52 64 -83 56 -20 -5 -22 -10 -16 -42
12 -61 12 -63 -35 -77 -74 -23 -73 -24 -104 91 -16 58 -27 107 -25 109 8 7
214 65 235 65 12 1 40 -14 63 -32z m8443 -394 c312 -120 289 -102 249 -196
l-19 -44 -149 -17 c-81 -10 -163 -21 -182 -24 -33 -7 -33 -8 40 -36 220 -84
230 -89 223 -105 -3 -9 -13 -35 -21 -58 -8 -24 -19 -45 -23 -48 -7 -5 -449
160 -537 200 l-33 15 24 62 23 63 164 22 c90 12 173 24 184 26 l20 3 -20 9
c-11 4 -77 30 -147 57 -73 28 -128 55 -128 62 0 17 41 116 48 116 3 0 131 -48
284 -107z m-8253 -110 l33 -67 -24 -17 c-67 -50 -64 -37 -25 -121 l35 -76 43
9 c24 4 48 8 52 9 5 0 22 -29 38 -65 16 -36 33 -65 37 -65 5 0 23 -31 42 -69
38 -80 44 -62 -67 -190 -60 -68 -82 -121 -50 -121 6 0 58 22 115 50 l102 49
30 -59 c17 -33 30 -63 30 -68 0 -9 -539 -277 -545 -271 -1 2 -31 60 -65 129
-46 93 -63 139 -67 181 -5 52 -3 58 27 93 18 20 50 46 71 57 52 26 138 26 171
0 l24 -20 13 35 c7 20 42 69 77 109 35 40 64 77 64 80 0 4 -15 4 -32 1 -18 -4
-78 -13 -133 -21 -55 -8 -171 -26 -258 -40 -87 -14 -165 -25 -172 -25 -15 0
-78 128 -71 145 4 12 457 414 466 415 3 0 21 -30 39 -67z m8016 -462 c124
-113 225 -211 225 -218 0 -7 -14 -42 -32 -78 -23 -45 -37 -64 -48 -61 -8 3
-141 25 -295 51 -154 25 -288 49 -297 53 -16 6 -15 13 14 75 23 49 36 66 47
63 9 -3 33 -8 54 -12 l37 -6 34 73 33 74 -38 35 -38 35 31 63 c17 34 35 61 39
60 5 -2 110 -95 234 -207z m-340 -397 c83 -58 179 -125 215 -149 36 -25 78
-55 94 -68 l29 -23 -38 -57 c-21 -31 -42 -57 -46 -57 -5 0 -89 56 -186 125
-98 68 -182 125 -188 125 -5 0 -26 -24 -45 -53 -19 -28 -47 -69 -63 -89 l-29
-38 -56 41 c-31 22 -57 44 -57 49 0 15 199 299 210 300 6 0 78 -48 160 -106z
m-5470 -1294 c72 -45 131 -83 132 -84 5 -4 -64 -106 -72 -106 -5 0 -45 23 -88
50 -43 28 -82 50 -86 50 -5 0 -20 -18 -35 -40 l-26 -40 75 -48 c41 -26 75 -51
75 -55 0 -10 -59 -97 -65 -97 -3 0 -37 20 -75 45 -39 25 -75 43 -79 40 -5 -2
-35 -47 -67 -100 -33 -52 -64 -94 -69 -95 -14 0 -115 69 -115 79 0 7 69 118
297 474 23 36 26 38 46 24 12 -8 81 -51 152 -97z m3865 -3 c35 -61 104 -179
152 -261 49 -82 87 -150 86 -151 -11 -10 -111 -65 -117 -65 -5 0 -75 41 -156
91 -81 50 -149 88 -151 86 -3 -2 29 -61 71 -131 41 -70 75 -131 75 -135 0 -9
-96 -71 -110 -71 -4 0 -19 19 -33 43 -13 23 -81 139 -151 257 -69 118 -126
218 -126 221 0 4 26 22 57 39 54 31 59 32 83 18 14 -8 85 -51 158 -96 72 -45
132 -79 132 -76 0 3 -36 67 -80 141 -44 75 -79 137 -78 138 16 14 105 65 113
65 6 0 39 -51 75 -113z m-3551 -153 c121 -35 184 -142 163 -272 -21 -124 -99
-254 -187 -310 -107 -69 -296 3 -333 127 -47 156 68 406 210 458 46 16 86 16
147 -3z m3036 -48 c80 -37 144 -122 184 -245 46 -141 14 -258 -87 -318 -110
-65 -203 -54 -291 35 -85 85 -134 200 -135 312 -1 107 55 186 156 221 71 25
113 23 173 -5z m-2695 -95 c35 -11 54 -22 53 -32 -1 -8 -26 -94 -57 -191 -31
-98 -56 -190 -56 -206 0 -66 83 -97 129 -48 15 16 44 91 81 211 32 103 61 189
64 192 2 3 35 -5 71 -17 78 -26 78 2 -1 -246 -72 -226 -108 -282 -206 -313
-53 -17 -151 9 -217 57 -84 62 -89 160 -20 377 23 72 48 154 57 183 17 59 20
59 102 33z m2300 -143 c23 -73 64 -202 91 -286 27 -85 47 -157 44 -161 -8 -13
-127 -43 -135 -34 -7 7 -52 145 -151 461 -17 56 -30 105 -27 107 7 8 111 44
125 45 7 0 30 -57 53 -132z m-213 16 c21 -91 21 -90 -53 -105 -36 -7 -68 -18
-71 -25 -2 -6 3 -49 11 -95 26 -146 55 -303 61 -325 4 -18 -3 -22 -66 -36 -41
-9 -72 -11 -75 -6 -4 5 -24 104 -45 221 -22 116 -41 213 -44 215 -3 3 -35 0
-71 -7 -37 -6 -68 -10 -70 -8 -5 5 -33 141 -30 145 2 1 28 7 57 12 30 5 124
23 209 39 85 16 160 28 165 27 6 -2 15 -25 22 -52z m-1612 7 c32 -7 28 3 129
-299 10 -29 19 -52 21 -50 2 2 15 73 30 158 14 85 27 155 28 156 4 3 126 -21
131 -26 5 -5 -91 -590 -98 -597 -2 -2 -33 1 -69 7 l-65 12 -21 56 c-11 32 -37
108 -58 169 -20 62 -40 109 -44 105 -5 -6 -23 -106 -44 -249 -4 -24 -10 -45
-13 -47 -4 -2 -35 1 -69 7 -42 6 -63 14 -63 24 0 14 86 532 95 570 5 23 25 23
110 4z m1180 -331 c63 -157 115 -291 115 -297 0 -8 -14 -13 -37 -13 -21 0 -54
-3 -74 -6 -37 -6 -37 -6 -54 46 -17 51 -17 51 -54 46 -20 -3 -57 -8 -82 -11
l-46 -6 -6 -45 c-2 -25 -7 -48 -10 -51 -10 -10 -147 -16 -147 -7 0 5 18 99 39
209 22 110 47 241 56 290 9 50 20 97 25 105 7 11 122 31 153 26 5 -1 60 -130
122 -286z m-533 259 c93 -24 139 -104 146 -253 5 -125 -9 -201 -51 -263 -52
-76 -83 -86 -250 -84 -78 1 -143 3 -145 5 -4 5 18 584 23 601 3 12 225 8 277
-6z" />
        <path d="M4998 9784 c-5 -4 -8 -79 -8 -166 l0 -158 49 0 c41 0 53 4 69 25 40
51 36 235 -6 277 -19 19 -92 34 -104 22z" />
        <path d="M6433 9528 c-11 -18 -34 -58 -51 -89 l-31 -55 48 -16 48 -15 7 99 c4
55 5 102 3 105 -3 2 -14 -11 -24 -29z" />
        <path d="M7557 8942 c-37 -37 -67 -70 -67 -74 0 -7 67 -48 78 -48 9 0 68 178
61 184 -2 2 -34 -26 -72 -62z" />
        <path d="M5180 6285 l0 -1265 948 0 949 0 26 88 c15 48 40 143 57 212 17 69
35 142 41 163 18 66 67 346 88 502 23 170 39 363 43 510 l3 99 -90 41 c-50 22
-120 53 -155 69 -36 16 -139 62 -230 101 -137 60 -894 397 -1043 464 -90 40
-486 215 -559 247 l-78 33 0 -1264z m1045 245 l0 -85 88 -3 88 -3 -3 -97 -3
-97 -85 -5 -85 -5 -3 -82 -3 -83 -94 0 -95 0 0 85 0 84 -87 3 -88 3 -3 97 -3
97 88 3 88 3 3 88 3 88 97 -3 97 -3 0 -85z m-606 -294 c17 -20 27 -221 12
-230 -18 -11 -13 -66 10 -102 11 -18 41 -52 66 -74 25 -22 44 -42 41 -45 -10
-10 -109 68 -136 107 -43 63 -53 103 -43 172 4 32 7 80 5 105 -4 76 15 104 45
67z m1031 2 c0 -7 3 -70 6 -140 6 -143 2 -158 -68 -234 -41 -44 -105 -90 -114
-81 -3 2 16 22 42 43 48 40 94 108 94 138 0 10 -5 27 -11 38 -17 31 -12 197 7
226 16 24 44 30 44 10z m-879 -39 c8 -15 9 -54 4 -124 l-7 -103 -33 22 c-19
11 -34 28 -35 36 0 16 27 155 35 178 7 19 23 14 36 -9z m736 -55 c6 -38 15
-81 18 -95 6 -21 1 -30 -29 -52 -19 -15 -37 -24 -39 -20 -10 21 -7 216 4 229
21 26 33 9 46 -62z m-1031 -2 c19 -12 50 -84 63 -146 9 -42 23 -69 49 -99 41
-44 189 -167 202 -167 24 0 -19 67 -72 113 -85 73 -109 128 -70 158 14 11 15
11 5 -1 -17 -18 -16 -32 1 -55 13 -18 14 -18 39 2 24 19 25 21 9 36 -9 10 -11
17 -6 17 6 0 49 -39 95 -86 46 -47 103 -97 126 -111 88 -51 146 -161 146 -273
0 -88 -25 -152 -79 -200 -53 -46 -70 -41 -70 23 2 106 -67 200 -224 307 -50
35 -106 80 -124 101 -64 75 -107 189 -121 322 -7 68 -1 80 31 59z m1306 -52
c-5 -71 -35 -181 -69 -248 -36 -71 -80 -115 -192 -192 -144 -98 -211 -193
-211 -297 0 -59 -8 -64 -53 -34 -40 26 -72 77 -87 140 -31 133 26 270 145 346
29 19 81 66 115 104 34 39 74 78 89 87 l26 17 -19 -21 c-18 -21 -18 -22 5 -41
l24 -20 22 27 c13 15 23 21 23 14 0 -32 -34 -81 -84 -123 -56 -46 -86 -85 -86
-114 0 -12 17 -3 62 32 113 89 176 155 187 198 25 103 32 122 51 153 13 21 27
32 38 30 14 -3 16 -13 14 -58z m-912 -32 c-6 -92 -4 -162 5 -187 l8 -25 -32
23 c-18 13 -40 38 -48 57 -15 31 -15 38 6 111 34 117 29 109 48 90 12 -12 16
-30 13 -69z m526 55 c3 -16 12 -48 20 -72 24 -77 19 -108 -26 -154 -22 -22
-43 -38 -45 -35 -3 2 3 24 12 47 14 36 15 51 5 100 -15 69 -15 82 -2 115 12
34 28 33 36 -1z" />
        <path d="M4870 7464 c-91 -41 -230 -103 -310 -138 -80 -35 -165 -73 -190 -84
-89 -41 -431 -192 -435 -192 -2 0 -36 -15 -77 -34 -40 -18 -197 -88 -348 -155
-151 -67 -348 -154 -437 -194 l-163 -72 0 -50 c0 -27 7 -138 15 -246 30 -399
101 -786 223 -1209 l19 -65 951 -3 952 -2 0 1260 c0 1194 -1 1260 -17 1259
-10 0 -92 -34 -183 -75z m-1060 -1066 c73 -23 153 -65 193 -102 l27 -25 0
-351 c0 -192 -2 -350 -5 -350 -2 0 -25 13 -51 30 -73 46 -227 100 -286 100
l-28 0 0 365 0 365 43 -6 c23 -3 71 -15 107 -26z m610 -333 l0 -365 -28 0
c-63 0 -228 -57 -294 -102 -14 -10 -31 -18 -37 -18 -8 0 -11 103 -11 349 l0
349 38 30 c77 61 208 110 320 121 9 1 12 -78 12 -364z m-800 -49 l0 -333 63
-13 c136 -27 309 -91 337 -125 8 -10 -8 -7 -49 9 -83 33 -220 64 -318 72 l-83
7 0 358 0 359 25 0 25 0 0 -334z m898 -23 l-3 -358 -80 -7 c-93 -8 -249 -42
-319 -70 -77 -30 -67 -12 15 26 75 35 167 64 274 88 l60 13 3 333 2 332 25 0
25 0 -2 -357z m-986 -65 l3 -333 100 -7 c123 -9 295 -43 354 -69 57 -25 49
-33 -15 -14 -77 22 -206 35 -361 35 l-143 0 0 360 0 360 30 0 30 0 2 -332z
m1080 315 c3 -13 2 -475 -2 -695 0 -5 -56 -8 -125 -8 -143 0 -309 -15 -377
-35 -58 -17 -61 -12 -10 14 65 32 208 62 373 76 l76 7 6 217 c4 119 7 267 7
329 0 111 0 112 24 112 14 0 25 -7 28 -17z" />
        <path d="M3210 4900 c0 -24 122 -334 195 -495 299 -661 764 -1261 1285 -1655
47 -35 87 -66 90 -69 20 -23 263 -181 278 -181 9 0 12 248 12 1205 l0 1205
-930 0 c-583 0 -930 -4 -930 -10z m1168 -467 c17 -16 110 -100 206 -188 l174
-160 -59 -3 c-32 -2 -59 -5 -59 -8 0 -3 14 -26 31 -51 23 -33 46 -52 85 -69
30 -13 54 -30 54 -38 0 -7 -20 -33 -45 -57 -53 -51 -85 -98 -85 -125 0 -11 9
-30 20 -44 34 -43 22 -55 -15 -14 l-34 39 -1 -30 c0 -17 4 -45 9 -63 13 -45 4
-40 -19 10 -15 34 -20 39 -26 25 -3 -10 -2 -36 4 -59 15 -59 6 -60 -19 -2 -12
30 -19 64 -17 87 2 20 1 37 -3 37 -4 0 -21 -16 -38 -35 -17 -20 -31 -33 -31
-29 0 18 44 75 73 93 18 11 26 21 19 21 -22 0 -55 -21 -85 -54 l-29 -31 19 35
c19 34 64 64 113 74 14 3 49 29 78 57 l52 51 -43 28 c-36 22 -117 123 -117
144 0 3 9 6 21 6 20 0 20 0 -2 39 -39 70 -107 130 -165 147 -40 11 -58 12 -74
4 -27 -15 -25 -29 5 -35 14 -3 37 -8 53 -11 37 -8 87 -47 123 -98 l31 -41 -49
-7 c-26 -3 -106 -7 -177 -7 l-129 -1 -126 117 c-193 180 -271 256 -271 264 0
4 116 8 258 9 l259 0 31 -27z m-18 -408 c96 -4 176 -8 178 -10 2 -1 -7 -23
-20 -49 -25 -52 -24 -52 -144 -35 -155 21 -349 109 -447 201 l-45 43 24 54 25
55 127 -126 127 -126 175 -7z" />
        <path d="M5180 3699 l0 -1211 38 23 c96 58 332 231 453 332 397 332 727 735
1004 1227 96 172 259 533 325 723 16 45 32 90 35 100 7 16 -41 17 -924 17
l-931 0 0 -1211z m619 776 c29 -14 45 -44 56 -102 6 -29 4 -33 -19 -39 -35 -8
-56 1 -56 26 0 24 -26 38 -42 22 -19 -19 0 -56 39 -77 61 -33 83 -75 83 -162
0 -82 -16 -132 -51 -157 -68 -47 -142 10 -150 114 -4 44 -3 45 28 48 28 3 33
0 39 -25 13 -56 49 -72 60 -28 10 41 -3 69 -47 93 -73 42 -100 150 -59 240 26
58 67 74 119 47z m-226 -6 c35 -16 47 -50 47 -131 0 -53 -5 -79 -21 -108 -20
-35 -20 -39 -5 -68 12 -24 46 -154 46 -178 0 -2 -18 -4 -40 -4 -43 0 -40 -6
-71 125 -6 28 -18 57 -25 65 -12 12 -14 -1 -14 -88 l0 -103 -37 3 -38 3 -2
239 c-1 131 0 243 3 247 8 13 129 11 157 -2z m436 -114 c7 -66 16 -127 19
-135 3 -8 12 46 21 120 l16 135 48 3 47 3 0 -250 0 -251 -30 0 -30 0 -1 148
-2 147 -12 -90 c-7 -49 -16 -116 -20 -147 -6 -55 -8 -58 -34 -58 l-28 0 -13
108 c-26 223 -27 225 -29 55 l-1 -163 -30 0 -30 0 0 251 0 250 48 -3 47 -3 14
-120z m391 70 l0 -55 -60 0 -60 0 0 -40 0 -40 55 0 55 0 0 -50 0 -50 -56 0
-55 0 3 -47 3 -48 58 -3 57 -3 0 -54 0 -55 -95 0 -95 0 0 250 0 250 95 0 95 0
0 -55z" />
        <path d="M5490 4330 c0 -46 2 -50 24 -50 25 0 36 16 36 54 0 27 -18 46 -42 46
-15 0 -18 -9 -18 -50z" />
        <path d="M8410 8215 c-63 -59 -116 -113 -118 -120 -4 -16 58 -65 82 -65 44 0
140 76 190 150 24 36 20 75 -12 110 l-27 31 -115 -106z" />
        <path d="M9220 7201 c-25 -15 -70 -42 -100 -58 -109 -61 -120 -68 -120 -80 0
-6 16 -28 35 -48 30 -33 38 -36 67 -30 77 17 190 94 209 142 10 27 -16 103
-35 103 -6 0 -31 -13 -56 -29z" />
        <path d="M725 6221 c97 -52 98 -52 110 12 l7 37 -103 0 -104 0 90 -49z" />
        <path d="M9533 5459 c4 -13 7 -36 7 -51 l0 -26 95 31 c52 17 95 34 95 38 0 3
-26 9 -57 12 -32 4 -78 9 -102 13 -43 7 -44 6 -38 -17z" />
        <path d="M9375 4208 c-22 -19 -29 -34 -29 -61 0 -56 37 -86 139 -113 119 -32
194 -4 195 72 0 69 -72 112 -200 121 -70 5 -78 4 -105 -19z" />
        <path d="M936 3369 c-42 -34 -76 -63 -74 -64 4 -4 190 34 195 39 5 4 -35 86
-41 86 -2 0 -38 -28 -80 -61z" />
        <path d="M1053 2896 l-27 -24 19 -43 c10 -24 22 -48 26 -52 6 -8 109 38 109
49 0 11 -23 50 -43 72 -26 28 -49 28 -84 -2z" />
        <path d="M9055 3074 c-8 -20 -15 -40 -15 -44 0 -4 37 -15 83 -25 45 -10 88
-20 95 -22 6 -3 12 -1 12 3 -1 9 -131 116 -149 122 -6 2 -17 -13 -26 -34z" />
        <path d="M3576 1189 c-56 -44 -108 -188 -92 -253 7 -27 51 -56 85 -56 57 0
145 140 145 232 0 86 -74 127 -138 77z" />
        <path d="M6583 1146 c-24 -21 -28 -32 -27 -73 1 -62 46 -164 91 -203 43 -38
84 -39 120 -4 23 23 25 31 20 84 -6 66 -55 169 -95 201 -33 26 -75 24 -109 -5z" />
        <path d="M5505 815 c-4 -27 -10 -75 -15 -105 -4 -30 -6 -57 -4 -59 6 -6 94 10
94 17 0 4 -15 50 -34 102 l-34 95 -7 -50z" />
        <path d="M5026 818 c-3 -35 -7 -109 -8 -166 l-3 -103 49 3 c72 4 90 32 95 149
2 57 -2 101 -9 120 -14 33 -55 59 -94 59 -23 0 -25 -4 -30 -62z" />
    </g>
</svg>